<!-- Generated by IcoMoon.io -->
<svg version="1.1" xmlns="http://www.w3.org/2000/svg" width="32" height="32" viewBox="0 0 32 32"><title>apartment-svgrepo-com</title>
<path d="M7.111 9.6h5.689v-2.133c0.001-0.377 0.151-0.739 0.417-1.005s0.628-0.416 1.005-0.417h9.956c0.377 0.001 0.739 0.15 1.006 0.417s0.416 0.629 0.417 1.005v17.067c-0.001 0.377-0.151 0.739-0.417 1.005s-0.629 0.417-1.006 0.417h-17.067c-0.377-0.001-0.738-0.151-1.005-0.417s-0.417-0.628-0.417-1.005v-13.511c0.001-0.377 0.151-0.739 0.417-1.005s0.628-0.416 1.005-0.417zM17.778 24.533h2.844v-3.556h-2.844v3.556zM14.222 24.533h2.133v-3.556c0.001-0.377 0.151-0.739 0.417-1.005s0.628-0.417 1.005-0.417h2.844c0.377 0.001 0.739 0.151 1.006 0.417s0.416 0.628 0.417 1.005v3.556h2.133l0.001-17.067h-9.956v17.067zM7.111 24.533h5.689v-13.511h-5.689v13.511zM16.356 16c0 0.141 0.042 0.278 0.12 0.395s0.189 0.208 0.319 0.262c0.13 0.054 0.273 0.068 0.411 0.041s0.265-0.095 0.364-0.195 0.167-0.226 0.195-0.364c0.027-0.138 0.014-0.281-0.041-0.411s-0.145-0.241-0.262-0.319c-0.117-0.078-0.255-0.12-0.395-0.12-0.188 0-0.37 0.075-0.503 0.208s-0.208 0.314-0.208 0.503zM16.356 13.156c0 0.141 0.042 0.278 0.12 0.395s0.189 0.208 0.319 0.262c0.13 0.054 0.273 0.068 0.411 0.041s0.265-0.095 0.364-0.195 0.167-0.226 0.195-0.364c0.027-0.138 0.014-0.281-0.041-0.411s-0.145-0.241-0.262-0.319c-0.117-0.078-0.255-0.12-0.395-0.12-0.188 0-0.37 0.075-0.503 0.208s-0.208 0.314-0.208 0.503zM16.356 10.311c0 0.141 0.042 0.278 0.12 0.395s0.189 0.208 0.319 0.262c0.13 0.054 0.273 0.068 0.411 0.041s0.265-0.095 0.364-0.195 0.167-0.226 0.195-0.364c0.027-0.138 0.014-0.281-0.041-0.411s-0.145-0.241-0.262-0.319c-0.117-0.078-0.255-0.12-0.395-0.12-0.188 0-0.37 0.075-0.503 0.208s-0.208 0.314-0.208 0.503zM20.622 16c0 0.141 0.042 0.278 0.12 0.395s0.189 0.208 0.319 0.262c0.13 0.054 0.273 0.068 0.411 0.041s0.265-0.095 0.364-0.195 0.167-0.226 0.195-0.364c0.027-0.138 0.014-0.281-0.041-0.411s-0.145-0.241-0.262-0.319c-0.117-0.078-0.255-0.12-0.395-0.12-0.188 0-0.37 0.075-0.503 0.208s-0.208 0.314-0.208 0.503zM20.622 13.156c0 0.141 0.042 0.278 0.12 0.395s0.189 0.208 0.319 0.262c0.13 0.054 0.273 0.068 0.411 0.041s0.265-0.095 0.364-0.195 0.167-0.226 0.195-0.364c0.027-0.138 0.014-0.281-0.041-0.411s-0.145-0.241-0.262-0.319c-0.117-0.078-0.255-0.12-0.395-0.12-0.188 0-0.37 0.075-0.503 0.208s-0.208 0.314-0.208 0.503zM20.622 10.311c0 0.141 0.042 0.278 0.12 0.395s0.189 0.208 0.319 0.262c0.13 0.054 0.273 0.068 0.411 0.041s0.265-0.095 0.364-0.195 0.167-0.226 0.195-0.364c0.027-0.138 0.014-0.281-0.041-0.411s-0.145-0.241-0.262-0.319c-0.117-0.078-0.255-0.12-0.395-0.12-0.188 0-0.37 0.075-0.503 0.208s-0.208 0.314-0.208 0.503z"></path>
</svg>
