<!-- Generated by IcoMoon.io -->
<svg version="1.1" xmlns="http://www.w3.org/2000/svg" width="32" height="32" viewBox="0 0 32 32"><title>bath-svgrepo-com</title>
<path fill="#1c274c" d="M7.18 3.667c-1.204 0-2.18 0.976-2.18 2.18v9.153h0.379c0.014 0 0.029 0 0.043 0 0.007 0 0.014 0 0.021 0h21.134c0.014 0 0.029 0 0.043 0h2.712c0.552 0 1 0.448 1 1s-0.448 1-1 1h-0.357c0.009 0.060 0.015 0.121 0.019 0.182 0.005 0.077 0.005 0.16 0.005 0.241v0.051c0 0.5 0 0.793-0.021 1.121-0.189 2.982-1.801 5.735-4.136 7.536 0.018 0.029 0.035 0.059 0.051 0.090l1.333 2.667c0.247 0.494 0.047 1.095-0.447 1.342s-1.095 0.047-1.342-0.447l-1.29-2.581c-1.069 0.541-2.232 0.897-3.441 1.020-0.326 0.033-0.525 0.041-0.864 0.053l-0.009 0c-0.987 0.037-1.953 0.060-2.835 0.060s-1.848-0.023-2.835-0.060l-0.009-0c-0.339-0.013-0.538-0.020-0.864-0.053-1.209-0.122-2.372-0.479-3.441-1.020l-1.29 2.581c-0.247 0.494-0.848 0.694-1.342 0.447s-0.694-0.848-0.447-1.342l1.333-2.667c0.016-0.031 0.033-0.061 0.051-0.090-2.335-1.8-3.947-4.554-4.136-7.536-0.021-0.327-0.021-0.621-0.021-1.121v-0.029c0-0.007 0-0.014 0-0.021 0-0.025 0-0.050 0-0.075-0-0.005-0-0.010-0-0.014v-0.333h-0.333c-0.552 0-1-0.448-1-1s0.448-1 1-1h0.333v-9.153c0-2.309 1.872-4.18 4.18-4.18 1.709 0 3.246 1.041 3.881 2.628l0.147 0.367c1.058-0.268 2.205-0.206 3.287 0.256 1.354 0.578 2.339 1.67 2.843 2.95 0.198 0.503-0.039 1.072-0.535 1.285l-7.948 3.421c-0.249 0.107-0.53 0.109-0.78 0.005s-0.447-0.305-0.546-0.557c-0.504-1.28-0.534-2.762 0.026-4.142 0.399-0.982 1.047-1.788 1.839-2.365l-0.191-0.478c-0.331-0.828-1.133-1.37-2.024-1.37zM5.444 17c-0.053 0-0.085 0-0.109 0-0.017 0-0.024 0.001-0.024 0.001s-0 0 0 0c-0.167 0.011-0.298 0.143-0.31 0.31-0 0.002-0 0.008-0 0.024-0 0.024-0 0.056-0 0.109 0 0.537 0 0.766 0.017 1.023 0.247 3.896 3.593 7.37 7.477 7.763 0.26 0.026 0.404 0.032 0.746 0.045 0.971 0.036 1.911 0.059 2.76 0.059s1.789-0.022 2.76-0.059c0.343-0.013 0.486-0.019 0.746-0.045 3.883-0.393 7.23-3.868 7.477-7.763 0.016-0.257 0.017-0.486 0.017-1.023 0-0.053 0-0.085-0-0.109-0-0.014-0-0.020-0-0.023s-0-0.002 0 0c-0.011-0.167-0.144-0.3-0.311-0.311 0.002 0 0.002 0 0 0s-0.010-0-0.023-0c-0.024-0-0.056-0-0.109-0h-21.113zM13.71 6.757c-0.876-0.374-1.824-0.322-2.634 0.072-0.718 0.35-1.328 0.97-1.667 1.804-0.218 0.537-0.297 1.096-0.254 1.635l5.841-2.515c-0.333-0.428-0.768-0.775-1.287-0.996z"></path>
</svg>
