<!-- Generated by IcoMoon.io -->
<svg version="1.1" xmlns="http://www.w3.org/2000/svg" width="32" height="32" viewBox="0 0 32 32"><title>bed-svgrepo-com</title>
<path fill="#1c274c" d="M14.591 4.333h2.817c2.45-0 4.391-0 5.91 0.204 1.563 0.21 2.829 0.653 3.826 1.651s1.441 2.263 1.651 3.826c0.202 1.501 0.204 3.414 0.204 5.824 0.459 0.378 0.823 0.866 1.054 1.425 0.16 0.387 0.223 0.787 0.251 1.209 0.028 0.406 0.028 0.901 0.028 1.493v0.067c0 0.593 0 1.087-0.028 1.493-0.029 0.423-0.091 0.822-0.251 1.209-0.372 0.898-1.086 1.612-1.984 1.984-0.387 0.16-0.787 0.223-1.209 0.251-0.162 0.011-0.337 0.018-0.527 0.022v1.673c0 0.552-0.448 1-1 1s-1-0.448-1-1v-1.667h-16.667v1.667c0 0.552-0.448 1-1 1s-1-0.448-1-1v-1.673c-0.19-0.004-0.366-0.011-0.527-0.022-0.423-0.029-0.822-0.091-1.209-0.251-0.898-0.372-1.612-1.086-1.984-1.984-0.16-0.387-0.223-0.787-0.251-1.209-0.028-0.406-0.028-0.901-0.028-1.493v-0.067c0-0.593 0-1.087 0.028-1.494 0.029-0.423 0.091-0.822 0.251-1.209 0.232-0.559 0.596-1.047 1.054-1.425 0-2.41 0.002-4.323 0.204-5.824 0.21-1.563 0.653-2.829 1.651-3.826s2.263-1.441 3.826-1.651c1.519-0.204 3.46-0.204 5.91-0.204zM5.001 15.039c0.046-0.004 0.092-0.008 0.139-0.011 0.336-0.023 0.732-0.027 1.194-0.028v-1.069c-0-1.198-0-2.197 0.107-2.99 0.113-0.837 0.36-1.593 0.967-2.2s1.363-0.855 2.2-0.967c0.793-0.107 1.792-0.107 2.99-0.107h6.805c1.198-0 2.197-0 2.99 0.107 0.837 0.113 1.593 0.36 2.2 0.967s0.855 1.363 0.967 2.2c0.107 0.793 0.107 1.792 0.107 2.99v1.069c0.462 0.001 0.858 0.005 1.194 0.028 0.047 0.003 0.093 0.007 0.139 0.011-0.003-2.046-0.026-3.567-0.186-4.757-0.18-1.341-0.519-2.114-1.083-2.679s-1.337-0.902-2.679-1.083c-1.37-0.184-3.177-0.186-5.719-0.186h-2.667c-2.542 0-4.349 0.002-5.719 0.186-1.341 0.18-2.114 0.519-2.679 1.083s-0.902 1.337-1.083 2.679c-0.16 1.191-0.183 2.711-0.186 4.757zM23.667 15v-1c0-1.285-0.002-2.149-0.089-2.793-0.083-0.615-0.226-0.879-0.399-1.052s-0.437-0.317-1.052-0.399c-0.644-0.087-1.507-0.089-2.793-0.089h-2.333v5.333h6.667zM15 15v-5.333h-2.333c-1.285 0-2.149 0.002-2.793 0.089-0.615 0.083-0.879 0.226-1.052 0.399s-0.317 0.437-0.399 1.052c-0.087 0.644-0.089 1.507-0.089 2.793v1h6.667zM5.276 17.023c-0.321 0.022-0.477 0.061-0.58 0.104-0.408 0.169-0.733 0.494-0.902 0.902-0.043 0.103-0.082 0.259-0.104 0.58-0.022 0.33-0.023 0.756-0.023 1.391s0.001 1.061 0.023 1.391c0.022 0.321 0.061 0.477 0.104 0.58 0.169 0.408 0.494 0.733 0.902 0.902 0.103 0.043 0.259 0.082 0.58 0.104 0.33 0.023 0.756 0.023 1.391 0.023h18.667c0.635 0 1.061-0.001 1.391-0.023 0.321-0.022 0.477-0.061 0.58-0.104 0.408-0.169 0.733-0.494 0.902-0.902 0.043-0.103 0.082-0.259 0.104-0.58 0.023-0.33 0.023-0.756 0.023-1.391s-0.001-1.061-0.023-1.391c-0.022-0.321-0.061-0.477-0.104-0.58-0.169-0.408-0.494-0.733-0.902-0.902-0.103-0.043-0.259-0.082-0.58-0.104-0.33-0.023-0.756-0.023-1.391-0.023h-18.667c-0.635 0-1.061 0.001-1.391 0.023z"></path>
</svg>
