<!-- Generated by IcoMoon.io -->
<svg version="1.1" xmlns="http://www.w3.org/2000/svg" width="32" height="32" viewBox="0 0 32 32"><title>gym-fitness-svgrepo-com</title>
<path d="M29.92 17.12h1.76c0.353 0 0.64-0.287 0.64-0.64s-0.287-0.64-0.64-0.64h-1.76c-0.353 0-0.64 0.287-0.64 0.64s0.287 0.64 0.64 0.64zM10.208 17.12h12.16c0.353 0 0.64-0.287 0.64-0.64s-0.287-0.64-0.64-0.64h-12.16c-0.353 0-0.64 0.287-0.64 0.64s0.287 0.64 0.64 0.64zM0.96 17.12h1.76c0.353 0 0.64-0.287 0.64-0.64s-0.287-0.64-0.64-0.64h-1.76c-0.353 0-0.64 0.287-0.64 0.64s0.287 0.64 0.64 0.64z"></path>
<path d="M24.64 24.64c-1.233 0-2.24-1.007-2.24-2.24v-11.84c0-1.233 1.007-2.24 2.24-2.24s2.24 1.007 2.24 2.24v11.84c0 1.233-1.007 2.24-2.24 2.24zM24.64 23.36c0.527 0 0.96-0.433 0.96-0.96v-11.84c0-0.527-0.433-0.96-0.96-0.96s-0.96 0.433-0.96 0.96v11.84c0 0.527 0.433 0.96 0.96 0.96z"></path>
<path d="M27.84 20.32c-1.233 0-2.24-1.007-2.24-2.24v-3.2c0-1.233 1.007-2.24 2.24-2.24s2.24 1.007 2.24 2.24v3.2c0 1.233-1.007 2.24-2.24 2.24zM27.84 19.040c0.527 0 0.96-0.433 0.96-0.96v-3.2c0-0.527-0.433-0.96-0.96-0.96s-0.96 0.433-0.96 0.96v3.2c0 0.527 0.433 0.96 0.96 0.96zM8 23.36c0.527 0 0.96-0.433 0.96-0.96v-11.84c0-0.527-0.433-0.96-0.96-0.96s-0.96 0.433-0.96 0.96v11.84c0 0.527 0.433 0.96 0.96 0.96zM8 24.64c-1.233 0-2.24-1.007-2.24-2.24v-11.84c0-1.233 1.007-2.24 2.24-2.24s2.24 1.007 2.24 2.24v11.84c0 1.233-1.007 2.24-2.24 2.24z"></path>
<path d="M4.8 19.040c0.527 0 0.96-0.433 0.96-0.96v-3.2c0-0.527-0.433-0.96-0.96-0.96s-0.96 0.433-0.96 0.96v3.2c0 0.527 0.433 0.96 0.96 0.96zM4.8 20.32c-1.233 0-2.24-1.007-2.24-2.24v-3.2c0-1.233 1.007-2.24 2.24-2.24s2.24 1.007 2.24 2.24v3.2c0 1.233-1.007 2.24-2.24 2.24z"></path>
</svg>
