<!-- Generated by IcoMoon.io -->
<svg version="1.1" xmlns="http://www.w3.org/2000/svg" width="32" height="32" viewBox="0 0 32 32"><title>instagram-svgrepo-com</title>
<path d="M21.587 2.667h-11.173c-4.853 0-7.747 2.893-7.747 7.747v11.16c0 4.867 2.893 7.76 7.747 7.76h11.16c4.853 0 7.747-2.893 7.747-7.747v-11.173c0.013-4.853-2.88-7.747-7.733-7.747zM16 21.173c-2.853 0-5.173-2.32-5.173-5.173s2.32-5.173 5.173-5.173c2.853 0 5.173 2.32 5.173 5.173s-2.32 5.173-5.173 5.173zM23.893 9.173c-0.067 0.16-0.16 0.307-0.28 0.44-0.133 0.12-0.28 0.213-0.44 0.28s-0.333 0.107-0.507 0.107c-0.36 0-0.693-0.133-0.947-0.387-0.12-0.133-0.213-0.28-0.28-0.44s-0.107-0.333-0.107-0.507c0-0.173 0.040-0.347 0.107-0.507 0.067-0.173 0.16-0.307 0.28-0.44 0.307-0.307 0.773-0.453 1.2-0.36 0.093 0.013 0.173 0.040 0.253 0.080 0.080 0.027 0.16 0.067 0.24 0.12 0.067 0.040 0.133 0.107 0.2 0.16 0.12 0.133 0.213 0.267 0.28 0.44 0.067 0.16 0.107 0.333 0.107 0.507s-0.040 0.347-0.107 0.507z"></path>
</svg>
