<!-- Generated by IcoMoon.io -->
<svg version="1.1" xmlns="http://www.w3.org/2000/svg" width="32" height="32" viewBox="0 0 32 32"><title>telegram-svgrepo-com</title>
<path fill="#09244b" d="M26.37 5.906c1.451-0.611 3.006 0.616 2.749 2.169l-3.025 18.342c-0.292 1.769-2.234 2.783-3.857 1.902-1.358-0.737-3.372-1.873-5.188-3.059-0.907-0.592-3.682-2.492-3.341-3.844 0.292-1.156 4.958-5.5 7.625-8.083 1.047-1.015 0.57-1.601-0.667-0.667-3.069 2.318-7.996 5.842-9.625 6.833-1.438 0.875-2.188 1.024-3.083 0.875-1.635-0.272-3.151-0.694-4.388-1.207-1.673-0.693-1.591-2.992-0.001-3.661l22.8-9.6z"></path>
</svg>
