<!-- Generated by IcoMoon.io -->
<svg version="1.1" xmlns="http://www.w3.org/2000/svg" width="32" height="32" viewBox="0 0 32 32"><title>wifi-svgrepo-com</title>
<path d="M14.498 21.438c0-0.792 0.642-1.434 1.434-1.434s1.434 0.642 1.434 1.434c0 0.792-0.642 1.433-1.434 1.433s-1.434-0.641-1.434-1.433zM18.798 21.438c0-1.583-1.283-2.866-2.866-2.866s-2.866 1.283-2.866 2.866c0 1.583 1.283 2.866 2.866 2.866s2.866-1.283 2.866-2.866z"></path>
<path d="M21.695 18.541c-1.061-2.108-3.243-3.552-5.764-3.552s-4.703 1.446-5.764 3.552l1.085 1.085c0.727-1.874 2.547-3.204 4.679-3.204s3.952 1.33 4.679 3.204l1.085-1.085z"></path>
<path d="M24.313 15.923c-1.795-2.722-4.878-4.517-8.382-4.517s-6.587 1.797-8.382 4.517l1.039 1.038c1.51-2.472 4.234-4.122 7.343-4.122s5.833 1.65 7.344 4.123l1.038-1.039z"></path>
<path d="M26.885 13.351c-2.479-3.353-6.463-5.528-10.954-5.528s-8.474 2.175-10.954 5.528l1.027 1.025c2.208-3.099 5.831-5.12 9.927-5.12s7.72 2.021 9.928 5.12l1.026-1.026z"></path>
</svg>
