<svg xmlns="http://www.w3.org/2000/svg" width="1175" height="165" fill="none"><path fill="#fff" fill-rule="evenodd" d="M1097 114v48h-21V0h21v97h21l32-49h25l-40 57 40 57h-25l-32-48h-21Z" clip-rule="evenodd"></path><path fill="#fff" d="M1026 162h21V0h-21v162ZM980 162h19l-1-24 1-53c0-31-20-42-46-42-27 0-47 15-51 38h21c3-13 13-21 29-21s26 7 26 24v3l-25 4c-32 5-54 13-54 38 0 24 21 35 42 35 18 0 31-8 38-20l1 18Zm-60-34c0-15 17-19 58-25v10c0 22-15 34-33 34-14 0-25-7-25-19Z"></path><path fill="#fff" fill-rule="evenodd" d="M709 45h21l23 100h4l26-100h31l27 100h3l24-100h21l-30 117h-32l-26-96h-5l-25 96h-33L709 45Z" clip-rule="evenodd"></path><path fill="#fff" d="M697 129h-22c-6 12-18 17-31 17-20 0-36-14-38-36h92v-5c0-41-27-62-56-62-30 0-57 23-57 60 0 38 26 61 58 61 23 0 47-11 54-35Zm-56-68c19 0 33 12 35 32h-70c2-20 17-32 35-32Z"></path><path fill="#fff" fill-rule="evenodd" d="M502 114v48h-20V0h20v97h22l31-49h25l-39 57 39 57h-25l-31-48h-22Z" clip-rule="evenodd"></path><path fill="#fff" d="M436 162h19l-1-24 1-53c0-31-20-42-47-42-26 0-46 15-50 38h21c3-13 13-21 29-21s26 7 26 24v3l-25 4c-32 5-54 13-54 38 0 24 20 35 42 35 18 0 31-8 38-20l1 18Zm-60-34c0-15 17-19 58-25v10c0 22-15 34-33 34-15 0-25-7-25-19ZM268 164c36 0 63-20 70-53h-22c-7 21-24 33-48 33-29 0-52-25-52-62s24-61 52-61c23 0 41 13 47 33h23c-6-32-34-53-70-53-40 0-75 31-75 81 0 51 34 82 75 82Z"></path><path fill="#EF8C41" d="M0 88h67v21H0V88ZM0 140h67v21H0v-21ZM91 36h67v21H91V36ZM91 88h67v21H91V88ZM91 140h67v21H91v-21Z"></path></svg>