<svg xmlns="http://www.w3.org/2000/svg" xmlns:xlink="http://www.w3.org/1999/xlink" width="500" zoomAndPan="magnify" viewBox="0 0 375 374.999991" height="500" preserveAspectRatio="xMidYMid meet" version="1.0"><defs><g/><clipPath id="0260a86f85"><path d="M 26.066406 17.335938 L 338.816406 17.335938 L 338.816406 366.085938 L 26.066406 366.085938 Z M 26.066406 17.335938 " clip-rule="nonzero"/></clipPath><clipPath id="d14d3c2361"><path d="M 188 11.3125 L 362 11.3125 L 362 138 L 188 138 Z M 188 11.3125 " clip-rule="nonzero"/></clipPath><clipPath id="1435fb658d"><path d="M 364 140 L 368.925781 140 L 368.925781 145.5625 L 364 145.5625 Z M 364 140 " clip-rule="nonzero"/></clipPath></defs><path fill="#fbcb1c" d="M 316.425781 95.003906 L 199.089844 34.320312 C 194.496094 31.941406 188.632812 30.636719 182.652344 30.636719 C 176.671875 30.636719 170.75 31.925781 166.171875 34.300781 L 48.535156 94.894531 C 39.027344 99.804688 31.601562 110.484375 31.601562 120.292969 C 31.601562 120.292969 31.601562 132.917969 31.601562 132.917969 C 31.601562 143.265625 79.460938 138.347656 84.441406 136.535156 C 100.648438 130.632812 112.121094 124.074219 130.105469 131.085938 C 146.027344 137.292969 150.5 151.566406 146.230469 166.046875 C 143.53125 175.191406 140.085938 200.390625 157.128906 200.390625 C 169.726562 200.390625 171.234375 183.34375 170.394531 175.796875 C 169.386719 166.746094 165.484375 159.226562 167.558594 150.144531 C 170.144531 138.804688 186.429688 116.53125 208.929688 125.171875 C 214.972656 127.488281 222.34375 132.425781 225.464844 136.617188 C 229.644531 142.234375 234.71875 148.683594 235.632812 154.914062 C 238.695312 175.765625 216.484375 231.796875 247.464844 231.796875 C 272.949219 231.796875 260.046875 183.894531 257.648438 167.953125 C 256.226562 158.488281 257.609375 144.917969 263.984375 136.1875 C 265.667969 133.886719 268.882812 131.410156 271.910156 130.773438 C 278.554688 129.367188 285.738281 133.410156 289.480469 138.0625 C 292.898438 142.308594 295.152344 148.503906 301.582031 149.734375 C 305.183594 150.425781 309.066406 149.914062 311.511719 147.175781 C 316.054688 142.097656 321.257812 133.289062 323.453125 127.660156 C 326.949219 118.773438 323.890625 111.007812 325.15625 101.859375 C 322.691406 99.070312 319.699219 96.691406 316.425781 95.003906 " fill-opacity="1" fill-rule="nonzero"/><g clip-path="url(#0260a86f85)"><path fill="#fbcb1c" d="M 323.988281 262.078125 C 323.988281 268.34375 319.828125 276.066406 314.394531 279.195312 L 192.632812 349.453125 C 187.203125 352.585938 178.375 352.585938 172.925781 349.453125 L 51.089844 279.089844 C 45.640625 275.9375 40.816406 268.238281 40.816406 261.957031 L 40.457031 139.445312 L 40.457031 121.316406 C 40.457031 115.054688 45.300781 107.347656 50.75 104.199219 L 172.835938 33.941406 C 178.285156 30.792969 187.28125 30.792969 192.730469 33.941406 L 314.078125 104.308594 C 319.527344 107.457031 323.453125 115.15625 323.453125 121.441406 L 323.453125 131.707031 Z M 330.863281 99.945312 C 328.300781 96.710938 325.222656 93.953125 321.820312 91.996094 L 199.949219 21.628906 C 195.179688 18.875 189.144531 17.359375 182.929688 17.359375 C 176.71875 17.359375 170.683594 18.855469 165.929688 21.613281 L 43.570312 91.871094 C 33.691406 97.5625 26.066406 109.945312 26.066406 121.316406 L 26.066406 135.957031 L 26.515625 261.957031 C 26.515625 273.324219 33.90625 285.722656 43.75 291.402344 L 165.757812 361.785156 C 170.53125 364.523438 176.625 366.039062 182.835938 366.039062 C 189.046875 366.039062 195.113281 364.523438 199.867188 361.785156 L 321.773438 291.527344 C 331.636719 285.832031 338.796875 273.449219 338.796875 262.078125 L 338.835938 121.441406 C 338.835938 113.984375 335.761719 106.101562 330.863281 99.945312 " fill-opacity="1" fill-rule="nonzero"/></g><path fill="#100f0d" d="M 145.765625 60.074219 L 146.613281 60.21875 L 146.597656 60.34375 C 146.5 60.9375 146.101562 63.617188 146.101562 67.117188 C 146.101562 70.886719 146.570312 75.597656 148.3125 79.644531 C 149.175781 81.671875 150.359375 83.527344 151.945312 85.042969 C 153.535156 86.5625 155.527344 87.746094 158.082031 88.4375 C 159.628906 88.851562 160.863281 89.039062 161.796875 89.035156 C 162.894531 89.035156 163.527344 88.789062 163.859375 88.484375 C 164.035156 88.328125 164.152344 88.148438 164.242188 87.910156 C 164.332031 87.671875 164.382812 87.371094 164.382812 87 C 164.398438 85.671875 163.65625 83.5625 162.371094 81.1875 C 158.554688 74.03125 150.175781 64.289062 145.804688 60.082031 L 146.953125 58.796875 C 146.957031 58.796875 147.261719 59.046875 147.808594 59.492188 C 149.722656 61.050781 154.5625 64.953125 159.296875 68.457031 C 161.664062 70.207031 164.003906 71.863281 165.921875 73.058594 C 166.878906 73.660156 167.730469 74.148438 168.410156 74.476562 C 168.753906 74.636719 169.046875 74.757812 169.28125 74.832031 C 169.511719 74.910156 169.679688 74.9375 169.730469 74.933594 L 169.738281 74.933594 L 169.785156 75.332031 L 169.496094 75.082031 C 169.597656 74.960938 169.730469 74.929688 169.738281 74.933594 L 169.785156 75.332031 L 169.496094 75.082031 L 169.839844 75.378906 L 169.402344 75.246094 L 169.496094 75.082031 L 169.839844 75.378906 L 169.402344 75.246094 L 169.597656 75.300781 L 169.390625 75.300781 L 169.402344 75.246094 L 169.597656 75.300781 L 169.390625 75.300781 L 169.390625 75.277344 L 169.386719 75.273438 C 169.296875 74.4375 168.707031 72.980469 167.648438 71.382812 C 166.058594 68.972656 163.4375 66.179688 160.007812 64.015625 C 156.578125 61.847656 152.351562 60.296875 147.488281 60.292969 C 147.140625 60.292969 146.796875 60.304688 146.445312 60.320312 L 146.402344 59.460938 L 147 60.082031 L 146.363281 60.695312 L 145.765625 60.074219 L 146.613281 60.21875 L 145.765625 60.074219 L 145.167969 59.449219 L 145.804688 58.835938 L 146.042969 58.609375 L 146.363281 58.597656 C 146.742188 58.582031 147.117188 58.574219 147.488281 58.574219 C 154.472656 58.574219 160.230469 61.546875 164.289062 65.050781 C 166.320312 66.800781 167.933594 68.6875 169.085938 70.4375 C 170.234375 72.191406 170.9375 73.765625 171.101562 75.066406 L 171.101562 75.058594 L 171.117188 75.300781 C 171.117188 75.46875 171.09375 75.640625 171.027344 75.820312 C 170.9375 76.089844 170.710938 76.351562 170.453125 76.484375 C 170.199219 76.625 169.953125 76.65625 169.730469 76.65625 C 169.34375 76.652344 168.992188 76.558594 168.601562 76.421875 C 167.875 76.164062 167.015625 75.722656 166.027344 75.144531 C 162.585938 73.121094 157.570312 69.382812 153.386719 66.132812 C 149.199219 62.878906 145.859375 60.125 145.855469 60.121094 L 146.402344 59.460938 L 147.003906 58.839844 C 150.007812 61.742188 154.734375 67.03125 158.738281 72.445312 C 160.742188 75.148438 162.5625 77.882812 163.894531 80.378906 C 165.226562 82.878906 166.09375 85.113281 166.109375 87 C 166.109375 87.527344 166.035156 88.039062 165.859375 88.511719 C 165.601562 89.222656 165.082031 89.839844 164.371094 90.210938 C 163.664062 90.59375 162.804688 90.757812 161.796875 90.757812 C 160.640625 90.757812 159.277344 90.546875 157.632812 90.101562 C 154.8125 89.34375 152.539062 87.996094 150.75 86.289062 C 148.074219 83.71875 146.484375 80.375 145.566406 76.957031 C 144.644531 73.539062 144.378906 70.046875 144.378906 67.117188 C 144.378906 62.96875 144.910156 59.957031 144.917969 59.921875 L 144.964844 59.644531 L 145.167969 59.449219 L 145.765625 60.074219 " fill-opacity="1" fill-rule="nonzero"/><path fill="#100f0d" d="M 143.972656 58.203125 L 144.078125 59.058594 C 144.054688 59.0625 142.34375 59.273438 139.742188 59.273438 C 136.15625 59.273438 130.871094 58.878906 125.9375 56.929688 C 123.472656 55.957031 121.09375 54.585938 119.078125 52.664062 C 117.0625 50.746094 115.421875 48.269531 114.457031 45.148438 C 113.84375 43.160156 113.546875 41.578125 113.542969 40.292969 C 113.546875 39.144531 113.785156 38.191406 114.386719 37.484375 C 114.6875 37.140625 115.066406 36.882812 115.484375 36.71875 C 115.894531 36.558594 116.339844 36.496094 116.796875 36.496094 C 117.722656 36.5 118.710938 36.757812 119.792969 37.175781 C 123.5625 38.667969 128.527344 42.289062 133.242188 46.242188 C 137.941406 50.1875 142.339844 54.449219 144.796875 57.214844 L 144.148438 57.789062 L 143.453125 58.296875 C 143.449219 58.289062 139.71875 53.203125 135.984375 47.636719 C 134.113281 44.851562 132.242188 41.949219 130.832031 39.484375 C 130.125 38.25 129.527344 37.128906 129.101562 36.167969 C 128.890625 35.691406 128.714844 35.25 128.59375 34.851562 C 128.472656 34.445312 128.390625 34.082031 128.386719 33.707031 C 128.390625 33.40625 128.441406 33.058594 128.699219 32.726562 C 128.828125 32.566406 129.007812 32.4375 129.195312 32.359375 C 129.382812 32.285156 129.574219 32.253906 129.746094 32.253906 C 129.851562 32.253906 129.957031 32.261719 130.054688 32.285156 C 131.3125 32.496094 132.816406 33.230469 134.472656 34.398438 C 136.945312 36.15625 139.699219 38.914062 141.859375 42.496094 C 144.011719 46.082031 145.566406 50.496094 145.566406 55.515625 C 145.566406 56.222656 145.539062 56.941406 145.472656 57.671875 L 145.445312 57.992188 L 144.363281 59.027344 L 144.078125 59.058594 L 143.972656 58.203125 L 143.375 57.582031 L 144.019531 56.972656 L 144.609375 57.59375 L 143.753906 57.519531 C 143.8125 56.839844 143.839844 56.171875 143.839844 55.515625 C 143.84375 49.308594 141.277344 44.0625 138.195312 40.285156 C 136.652344 38.394531 134.988281 36.878906 133.472656 35.804688 C 131.96875 34.726562 130.585938 34.105469 129.773438 33.980469 L 129.746094 33.980469 L 129.746094 33.6875 L 129.851562 33.949219 L 129.746094 33.980469 L 129.746094 33.6875 L 129.851562 33.949219 L 129.679688 33.527344 L 130.09375 33.726562 C 130.066406 33.796875 129.953125 33.917969 129.851562 33.949219 L 129.679688 33.527344 L 130.09375 33.726562 L 129.882812 33.625 L 130.117188 33.671875 L 130.09375 33.726562 L 129.882812 33.625 L 130.117188 33.671875 L 130.113281 33.707031 C 130.113281 33.800781 130.144531 34.039062 130.246094 34.34375 C 130.597656 35.519531 131.707031 37.628906 133.148438 40.023438 C 135.316406 43.628906 138.25 47.949219 140.628906 51.363281 C 141.820312 53.066406 142.875 54.546875 143.628906 55.601562 C 144.386719 56.65625 144.847656 57.277344 144.847656 57.277344 L 143.507812 58.359375 C 140.796875 55.308594 135.480469 50.210938 130.128906 45.917969 C 127.453125 43.769531 124.765625 41.816406 122.402344 40.417969 C 121.222656 39.71875 120.125 39.15625 119.164062 38.78125 C 118.203125 38.402344 117.382812 38.214844 116.796875 38.21875 C 116.503906 38.21875 116.277344 38.261719 116.105469 38.324219 C 115.847656 38.433594 115.6875 38.566406 115.535156 38.851562 C 115.382812 39.136719 115.269531 39.609375 115.269531 40.292969 C 115.269531 41.300781 115.519531 42.75 116.105469 44.640625 C 116.988281 47.480469 118.449219 49.683594 120.269531 51.414062 C 122.992188 54.015625 126.546875 55.566406 130.09375 56.445312 C 133.632812 57.332031 137.152344 57.554688 139.742188 57.554688 C 140.996094 57.554688 142.035156 57.5 142.757812 57.449219 C 143.113281 57.425781 143.394531 57.402344 143.585938 57.378906 L 143.800781 57.359375 L 143.863281 57.351562 L 143.972656 58.203125 L 143.375 57.582031 L 143.972656 58.203125 " fill-opacity="1" fill-rule="nonzero"/><path fill="#211c1d" d="M 148.675781 60.332031 C 148.675781 60.332031 144.320312 85.09375 160.765625 89.527344 C 179.550781 94.589844 157.585938 67.703125 149.3125 59.71875 C 149.3125 59.71875 173.691406 79.808594 173.15625 75.429688 C 172.625 71.046875 163.394531 59.082031 149.3125 59.71875 L 148.675781 60.332031 " fill-opacity="1" fill-rule="nonzero"/><path fill="#211c1d" d="M 146.882812 58.460938 C 146.882812 58.460938 123.226562 61.414062 118.191406 45.15625 C 112.113281 25.523438 139.425781 49.457031 147.058594 58.046875 C 147.058594 58.046875 128.460938 32.675781 132.824219 33.390625 C 137.1875 34.105469 148.757812 43.824219 147.519531 57.855469 L 146.882812 58.460938 " fill-opacity="1" fill-rule="nonzero"/><path fill="#100f0d" d="M 149.984375 41.457031 L 150.707031 42.152344 C 149.539062 43.355469 148.253906 45.324219 147.296875 47.46875 C 146.332031 49.609375 145.695312 51.945312 145.699219 53.855469 C 145.699219 54.59375 145.789062 55.265625 145.980469 55.839844 C 146.164062 56.414062 146.4375 56.890625 146.8125 57.285156 C 147.21875 57.710938 147.734375 58.019531 148.371094 58.230469 C 149.003906 58.441406 149.753906 58.550781 150.578125 58.550781 C 152.480469 58.550781 154.761719 57.984375 156.863281 57.121094 C 158.964844 56.265625 160.898438 55.113281 162.117188 54.039062 C 164.984375 51.523438 166.636719 48.5625 167.582031 45.738281 C 168.527344 42.914062 168.753906 40.226562 168.753906 38.339844 C 168.753906 37.503906 168.707031 36.824219 168.664062 36.359375 C 168.640625 36.125 168.621094 35.945312 168.605469 35.828125 L 168.582031 35.664062 L 169.574219 35.5 L 169.378906 36.480469 L 169.371094 36.480469 C 169.246094 36.457031 167.878906 36.214844 165.84375 36.214844 C 163.878906 36.214844 161.289062 36.441406 158.605469 37.300781 C 155.914062 38.160156 153.132812 39.640625 150.707031 42.152344 L 149.265625 40.761719 C 151.949219 37.976562 155.054688 36.328125 157.992188 35.390625 C 160.9375 34.453125 163.71875 34.210938 165.84375 34.210938 C 168.183594 34.210938 169.71875 34.507812 169.761719 34.519531 L 170.445312 34.648438 L 170.5625 35.332031 C 170.566406 35.378906 170.753906 36.527344 170.753906 38.339844 C 170.753906 40.382812 170.515625 43.277344 169.484375 46.375 C 168.457031 49.464844 166.617188 52.761719 163.441406 55.542969 C 161.980469 56.816406 159.90625 58.039062 157.625 58.976562 C 155.34375 59.90625 152.863281 60.546875 150.578125 60.550781 C 149.585938 60.550781 148.625 60.425781 147.734375 60.128906 C 146.847656 59.835938 146.023438 59.359375 145.367188 58.667969 C 144.753906 58.035156 144.332031 57.273438 144.066406 56.453125 C 143.804688 55.636719 143.691406 54.757812 143.691406 53.855469 C 143.695312 51.523438 144.425781 48.984375 145.46875 46.648438 C 146.515625 44.320312 147.875 42.207031 149.265625 40.761719 L 149.984375 41.457031 " fill-opacity="1" fill-rule="nonzero"/><path fill="#100f0d" d="M 137.179688 60.164062 L 137.679688 60.675781 C 137.175781 61.15625 136.707031 61.867188 136.375 62.660156 C 136.039062 63.453125 135.84375 64.316406 135.84375 65.089844 C 135.84375 65.941406 136.070312 66.640625 136.527344 67.109375 C 137.007812 67.617188 137.785156 67.875 138.730469 67.882812 C 140.238281 67.894531 142.058594 67.160156 143.007812 66.234375 C 143.800781 65.480469 144.195312 64.472656 144.195312 63.457031 C 144.195312 62.496094 143.839844 61.542969 143.125 60.792969 C 142.363281 60.003906 141.355469 59.609375 140.339844 59.605469 C 139.382812 59.609375 138.425781 59.960938 137.679688 60.675781 L 137.179688 60.164062 L 136.6875 59.644531 C 137.707031 58.664062 139.03125 58.175781 140.339844 58.175781 C 141.730469 58.175781 143.125 58.722656 144.15625 59.800781 C 145.136719 60.824219 145.628906 62.148438 145.628906 63.457031 C 145.628906 64.84375 145.082031 66.234375 144 67.273438 C 142.699219 68.5 140.660156 69.300781 138.730469 69.3125 C 137.539062 69.3125 136.34375 68.984375 135.492188 68.097656 C 134.707031 67.285156 134.410156 66.183594 134.410156 65.089844 C 134.414062 64.082031 134.65625 63.046875 135.054688 62.105469 C 135.453125 61.160156 136.007812 60.292969 136.6875 59.644531 L 137.179688 60.164062 " fill-opacity="1" fill-rule="nonzero"/><path fill="#100f0d" d="M 126.292969 63.035156 C 126.335938 63.078125 126.9375 63.722656 128.035156 64.347656 C 129.140625 64.976562 130.730469 65.585938 132.789062 65.585938 C 133.496094 65.585938 134.257812 65.515625 135.078125 65.339844 L 135.367188 66.746094 C 134.453125 66.933594 133.589844 67.015625 132.789062 67.015625 C 130.367188 67.015625 128.480469 66.269531 127.207031 65.523438 C 125.929688 64.777344 125.257812 64.027344 125.222656 63.988281 L 126.292969 63.035156 " fill-opacity="1" fill-rule="nonzero"/><path fill="#100f0d" d="M 138.234375 68.632812 C 137.988281 69.613281 137.886719 70.519531 137.886719 71.347656 C 137.886719 73.328125 138.464844 74.871094 139.046875 75.925781 C 139.335938 76.449219 139.625 76.855469 139.839844 77.121094 C 139.941406 77.253906 140.027344 77.351562 140.089844 77.414062 L 140.152344 77.484375 L 140.164062 77.496094 L 139.171875 78.527344 C 139.128906 78.488281 138.460938 77.835938 137.789062 76.617188 C 137.117188 75.398438 136.453125 73.609375 136.453125 71.347656 C 136.453125 70.402344 136.566406 69.375 136.847656 68.28125 L 138.234375 68.632812 " fill-opacity="1" fill-rule="nonzero"/><path fill="#100f0d" d="M 143.9375 58.238281 C 143.28125 58.867188 143.15625 59.804688 143.664062 60.332031 C 144.175781 60.863281 145.117188 60.777344 145.777344 60.144531 C 146.429688 59.519531 146.554688 58.582031 146.050781 58.050781 C 145.542969 57.519531 144.597656 57.601562 143.9375 58.238281 " fill-opacity="1" fill-rule="nonzero"/><path fill="#100f0d" d="M 146.441406 46.40625 C 146.546875 46.425781 148.269531 46.804688 150.511719 48.425781 C 152.753906 50.054688 155.5 52.925781 157.632812 57.863281 L 155.792969 58.65625 C 153.789062 54.039062 151.300781 51.476562 149.332031 50.050781 C 148.351562 49.335938 147.5 48.914062 146.90625 48.667969 C 146.609375 48.542969 146.378906 48.464844 146.226562 48.417969 L 146.0625 48.375 L 146.027344 48.367188 L 146.054688 48.265625 L 146.03125 48.367188 L 146.027344 48.367188 L 146.054688 48.265625 L 146.03125 48.367188 L 146.441406 46.40625 " fill-opacity="1" fill-rule="nonzero"/><path fill="#100f0d" d="M 158.144531 35.207031 C 158.25 35.226562 159.972656 35.601562 162.214844 37.226562 C 164.457031 38.847656 167.203125 41.722656 169.335938 46.65625 L 167.496094 47.453125 C 165.496094 42.828125 163.003906 40.273438 161.042969 38.847656 C 160.0625 38.136719 159.207031 37.707031 158.613281 37.464844 C 158.316406 37.34375 158.085938 37.265625 157.933594 37.21875 L 157.769531 37.171875 L 157.738281 37.164062 L 157.761719 37.058594 L 157.742188 37.164062 L 157.738281 37.164062 L 157.761719 37.058594 L 157.742188 37.164062 L 158.144531 35.207031 " fill-opacity="1" fill-rule="nonzero"/><path fill="#100f0d" d="M 151.007812 39.28125 C 151.164062 39.3125 153.316406 39.792969 156.101562 41.8125 C 158.890625 43.828125 162.289062 47.398438 164.925781 53.492188 L 162.164062 54.683594 C 159.722656 49.058594 156.703125 45.960938 154.335938 44.242188 C 153.148438 43.378906 152.128906 42.871094 151.414062 42.574219 C 151.0625 42.429688 150.785156 42.335938 150.605469 42.28125 L 150.417969 42.226562 L 150.386719 42.21875 L 150.582031 41.296875 L 150.394531 42.222656 L 150.386719 42.21875 L 150.582031 41.296875 L 150.394531 42.222656 L 151.007812 39.28125 " fill-opacity="1" fill-rule="nonzero"/><path fill="#100f0d" d="M 179.523438 22.363281 C 180.445312 21.539062 181.425781 20.746094 182.46875 19.988281 C 182.878906 19.6875 183.457031 19.773438 183.757812 20.1875 C 184.058594 20.597656 183.96875 21.171875 183.554688 21.472656 C 182.5625 22.203125 181.625 22.957031 180.757812 23.734375 C 180.378906 24.074219 179.792969 24.042969 179.449219 23.664062 C 179.113281 23.285156 179.144531 22.699219 179.523438 22.363281 " fill-opacity="1" fill-rule="nonzero"/><g clip-path="url(#d14d3c2361)"><path fill="#100f0d" d="M 188.878906 16.085938 C 191.09375 14.972656 193.425781 14.019531 195.824219 13.253906 C 196.308594 13.101562 196.828125 13.367188 196.980469 13.855469 C 197.136719 14.335938 196.871094 14.855469 196.382812 15.011719 C 194.082031 15.742188 191.835938 16.667969 189.707031 17.730469 C 189.253906 17.960938 188.699219 17.777344 188.472656 17.324219 C 188.242188 16.867188 188.425781 16.316406 188.878906 16.085938 Z M 203.152344 11.59375 C 204.730469 11.386719 206.304688 11.277344 207.871094 11.277344 C 208.816406 11.277344 209.765625 11.316406 210.699219 11.402344 C 211.207031 11.445312 211.582031 11.894531 211.539062 12.402344 C 211.492188 12.90625 211.042969 13.28125 210.535156 13.238281 C 209.65625 13.160156 208.769531 13.117188 207.871094 13.117188 C 206.394531 13.117188 204.894531 13.226562 203.394531 13.421875 C 202.890625 13.492188 202.425781 13.132812 202.359375 12.632812 C 202.292969 12.125 202.648438 11.660156 203.152344 11.59375 Z M 218.101562 13.136719 C 220.445312 14.078125 222.636719 15.402344 224.597656 17.160156 C 224.980469 17.496094 225.007812 18.082031 224.671875 18.460938 C 224.328125 18.839844 223.75 18.871094 223.367188 18.53125 C 221.570312 16.925781 219.570312 15.710938 217.414062 14.847656 C 216.941406 14.65625 216.714844 14.117188 216.902344 13.648438 C 217.09375 13.175781 217.632812 12.945312 218.101562 13.136719 Z M 229.316406 23.164062 C 230.542969 25.476562 231.324219 27.933594 231.714844 30.40625 C 231.792969 30.910156 231.445312 31.382812 230.945312 31.460938 C 230.441406 31.539062 229.96875 31.195312 229.890625 30.695312 C 229.527344 28.402344 228.8125 26.144531 227.6875 24.035156 C 227.449219 23.582031 227.617188 23.027344 228.070312 22.78125 C 228.519531 22.546875 229.082031 22.71875 229.320312 23.164062 Z M 231.769531 38 C 231.40625 40.613281 230.667969 43.101562 229.625 45.300781 C 229.40625 45.761719 228.855469 45.957031 228.394531 45.738281 C 227.9375 45.519531 227.738281 44.972656 227.957031 44.511719 C 228.914062 42.492188 229.605469 40.183594 229.941406 37.75 C 230.011719 37.246094 230.476562 36.894531 230.980469 36.964844 C 231.488281 37.035156 231.839844 37.5 231.769531 38 Z M 224.996094 51.457031 C 223.15625 52.964844 220.988281 53.878906 218.660156 53.875 C 218.265625 53.875 217.871094 53.847656 217.476562 53.796875 C 216.96875 53.730469 216.613281 53.269531 216.679688 52.761719 C 216.746094 52.253906 217.210938 51.902344 217.71875 51.96875 C 218.035156 52.007812 218.351562 52.027344 218.660156 52.027344 C 220.496094 52.027344 222.238281 51.320312 223.832031 50.027344 C 224.226562 49.707031 224.808594 49.769531 225.128906 50.160156 C 225.449219 50.554688 225.394531 51.136719 224.996094 51.457031 Z M 210.582031 50.125 L 210.566406 50.105469 C 209.597656 49.167969 208.875 48.257812 208.390625 47.347656 C 207.898438 46.441406 207.648438 45.535156 207.648438 44.648438 C 207.648438 43.929688 207.816406 43.238281 208.121094 42.601562 C 208.34375 42.140625 208.894531 41.953125 209.355469 42.171875 C 209.816406 42.394531 210.003906 42.945312 209.785156 43.402344 C 209.59375 43.808594 209.492188 44.210938 209.492188 44.648438 C 209.492188 45.183594 209.640625 45.785156 210.011719 46.476562 C 210.382812 47.167969 210.980469 47.941406 211.851562 48.78125 L 211.863281 48.792969 C 212.234375 49.148438 212.242188 49.730469 211.886719 50.097656 C 211.535156 50.464844 210.949219 50.472656 210.582031 50.125 Z M 214.472656 37.941406 C 216.625 37.144531 219.128906 36.539062 221.78125 36.117188 C 222.285156 36.035156 222.757812 36.378906 222.84375 36.882812 C 222.921875 37.382812 222.578125 37.855469 222.074219 37.933594 C 219.511719 38.347656 217.113281 38.929688 215.113281 39.671875 C 214.636719 39.847656 214.105469 39.605469 213.929688 39.128906 C 213.75 38.652344 213.992188 38.121094 214.472656 37.941406 Z M 229.230469 35.410156 C 229.933594 35.386719 230.640625 35.375 231.335938 35.375 C 233.195312 35.375 235.007812 35.460938 236.710938 35.632812 C 237.214844 35.683594 237.585938 36.136719 237.535156 36.640625 C 237.480469 37.148438 237.03125 37.519531 236.519531 37.464844 C 234.890625 37.300781 233.136719 37.21875 231.335938 37.21875 C 230.660156 37.21875 229.976562 37.230469 229.292969 37.25 C 228.78125 37.273438 228.355469 36.871094 228.335938 36.363281 C 228.320312 35.855469 228.71875 35.429688 229.230469 35.410156 Z M 244.140625 37.3125 L 244.261719 37.371094 C 246.589844 38.414062 248.667969 39.828125 250.503906 41.519531 C 250.878906 41.867188 250.898438 42.445312 250.554688 42.820312 C 250.210938 43.195312 249.625 43.21875 249.25 42.875 C 247.546875 41.304688 245.640625 40.007812 243.503906 39.050781 L 243.402344 39.003906 C 242.9375 38.804688 242.722656 38.261719 242.925781 37.789062 C 243.128906 37.324219 243.675781 37.113281 244.140625 37.3125 Z M 255.316406 47.367188 C 256.636719 49.453125 257.75 51.714844 258.679688 54.089844 C 258.863281 54.566406 258.628906 55.101562 258.15625 55.285156 C 257.679688 55.46875 257.144531 55.234375 256.960938 54.761719 C 256.070312 52.480469 255.003906 50.324219 253.753906 48.351562 C 253.480469 47.921875 253.609375 47.351562 254.042969 47.082031 C 254.472656 46.808594 255.042969 46.9375 255.316406 47.367188 Z M 260.871094 61.246094 C 261.4375 63.679688 261.839844 66.152344 262.097656 68.609375 C 262.152344 69.117188 261.785156 69.574219 261.28125 69.625 C 260.773438 69.675781 260.316406 69.308594 260.261719 68.804688 C 260.011719 66.414062 259.617188 64.015625 259.074219 61.660156 C 258.960938 61.164062 259.269531 60.667969 259.761719 60.554688 C 260.261719 60.4375 260.757812 60.746094 260.871094 61.246094 Z M 262.453125 76.058594 C 262.429688 78.664062 262.238281 81.175781 261.90625 83.511719 C 261.832031 84.011719 261.363281 84.363281 260.859375 84.292969 C 260.355469 84.21875 260.007812 83.753906 260.074219 83.246094 C 260.398438 81 260.582031 78.570312 260.609375 76.039062 C 260.613281 75.53125 261.03125 75.121094 261.542969 75.128906 C 262.050781 75.132812 262.457031 75.550781 262.453125 76.058594 Z M 260.480469 90.796875 C 259.890625 93.394531 259.304688 95.753906 258.859375 97.945312 C 258.757812 98.445312 258.269531 98.765625 257.773438 98.667969 C 257.269531 98.5625 256.949219 98.078125 257.050781 97.578125 C 257.507812 95.328125 258.09375 92.964844 258.679688 90.390625 C 258.789062 89.890625 259.285156 89.582031 259.785156 89.691406 C 260.277344 89.804688 260.589844 90.296875 260.480469 90.796875 Z M 258.042969 105.039062 C 258.082031 107.3125 258.484375 109.511719 259.464844 111.84375 C 259.664062 112.3125 259.445312 112.851562 258.976562 113.050781 C 258.503906 113.246094 257.960938 113.027344 257.765625 112.558594 C 256.6875 110.007812 256.234375 107.542969 256.199219 105.066406 C 256.195312 104.558594 256.597656 104.136719 257.109375 104.128906 C 257.621094 104.121094 258.039062 104.527344 258.042969 105.039062 Z M 263.167969 117.878906 C 263.980469 118.902344 264.910156 119.964844 265.96875 121.070312 C 266.660156 121.796875 267.367188 122.492188 268.078125 123.164062 C 268.449219 123.511719 268.464844 124.097656 268.121094 124.46875 C 267.769531 124.835938 267.183594 124.855469 266.8125 124.503906 C 266.078125 123.8125 265.351562 123.09375 264.632812 122.347656 C 263.542969 121.203125 262.574219 120.101562 261.71875 119.023438 C 261.402344 118.621094 261.472656 118.046875 261.867188 117.730469 C 262.269531 117.414062 262.847656 117.476562 263.167969 117.878906 Z M 273.675781 127.722656 C 275.679688 129.128906 277.75 130.34375 279.882812 131.378906 C 280.339844 131.601562 280.53125 132.152344 280.3125 132.609375 C 280.089844 133.066406 279.535156 133.261719 279.074219 133.039062 C 276.851562 131.960938 274.699219 130.691406 272.617188 129.234375 C 272.195312 128.941406 272.097656 128.367188 272.390625 127.949219 C 272.683594 127.53125 273.253906 127.429688 273.675781 127.722656 Z M 286.597656 133.957031 C 288.894531 134.617188 291.246094 135.082031 293.652344 135.347656 C 294.15625 135.398438 294.523438 135.855469 294.46875 136.363281 C 294.414062 136.871094 293.960938 137.234375 293.453125 137.179688 C 290.941406 136.90625 288.488281 136.421875 286.085938 135.730469 C 285.59375 135.585938 285.3125 135.074219 285.453125 134.585938 C 285.597656 134.09375 286.109375 133.816406 286.597656 133.957031 Z M 300.851562 135.527344 C 303.199219 135.390625 305.585938 135.074219 308 134.570312 C 308.5 134.460938 308.988281 134.78125 309.09375 135.28125 C 309.199219 135.777344 308.878906 136.269531 308.378906 136.371094 C 305.878906 136.898438 303.398438 137.226562 300.953125 137.367188 C 300.445312 137.398438 300.007812 137.007812 299.980469 136.5 C 299.953125 135.992188 300.339844 135.558594 300.851562 135.527344 Z M 314.921875 132.5625 C 317.109375 131.734375 319.335938 130.710938 321.601562 129.644531 C 322.0625 129.425781 322.613281 129.625 322.828125 130.085938 C 323.046875 130.546875 322.847656 131.09375 322.386719 131.3125 C 320.113281 132.382812 317.84375 133.425781 315.582031 134.289062 C 315.105469 134.46875 314.574219 134.230469 314.390625 133.753906 C 314.210938 133.28125 314.445312 132.746094 314.921875 132.5625 Z M 328.316406 126.550781 C 330.632812 125.554688 332.988281 124.660156 335.367188 124.027344 C 335.863281 123.894531 336.367188 124.1875 336.496094 124.675781 C 336.628906 125.171875 336.335938 125.675781 335.84375 125.808594 C 333.582031 126.40625 331.316406 127.265625 329.046875 128.246094 C 328.582031 128.449219 328.035156 128.230469 327.835938 127.765625 C 327.632812 127.296875 327.847656 126.753906 328.316406 126.550781 Z M 342.914062 123.074219 L 343.125 123.085938 C 345.757812 123.203125 348.171875 123.851562 350.375 124.875 C 350.835938 125.089844 351.035156 125.640625 350.820312 126.101562 C 350.605469 126.5625 350.054688 126.765625 349.59375 126.546875 C 347.585938 125.617188 345.425781 125.035156 343.039062 124.929688 L 342.847656 124.921875 C 342.335938 124.898438 341.941406 124.476562 341.957031 123.964844 C 341.972656 123.453125 342.402344 123.058594 342.914062 123.074219 Z M 356.652344 129.164062 C 358.488281 130.839844 360.15625 132.742188 361.699219 134.722656 C 362.011719 135.125 361.941406 135.703125 361.539062 136.011719 C 361.136719 136.328125 360.554688 136.257812 360.242188 135.851562 C 358.742188 133.929688 357.140625 132.105469 355.410156 130.527344 C 355.035156 130.183594 355.003906 129.601562 355.351562 129.226562 C 355.695312 128.851562 356.277344 128.824219 356.652344 129.164062 " fill-opacity="1" fill-rule="nonzero"/></g><g clip-path="url(#1435fb658d)"><path fill="#100f0d" d="M 366.082031 140.882812 C 366.78125 141.929688 367.460938 142.960938 368.121094 143.953125 C 368.40625 144.382812 368.292969 144.953125 367.863281 145.234375 C 367.441406 145.519531 366.867188 145.402344 366.585938 144.976562 C 365.917969 143.972656 365.242188 142.945312 364.546875 141.902344 C 364.261719 141.480469 364.375 140.90625 364.800781 140.628906 C 365.226562 140.34375 365.796875 140.460938 366.082031 140.882812 " fill-opacity="1" fill-rule="nonzero"/></g><g fill="#000000" fill-opacity="1"><g transform="translate(35.408368, 235.197717)"><g><path d="M 17.015625 0.671875 C 13.648438 0.671875 10.734375 0.175781 8.265625 -0.8125 C 5.804688 -1.800781 3.910156 -3.1875 2.578125 -4.96875 C 1.242188 -6.757812 0.578125 -8.816406 0.578125 -11.140625 C 0.578125 -12.910156 1.035156 -14.476562 1.953125 -15.84375 C 2.867188 -17.21875 4.097656 -18.285156 5.640625 -19.046875 C 7.191406 -19.804688 8.921875 -20.1875 10.828125 -20.1875 C 12.765625 -20.1875 14.515625 -19.804688 16.078125 -19.046875 C 17.640625 -18.285156 18.878906 -17.226562 19.796875 -15.875 C 20.722656 -14.519531 21.1875 -12.972656 21.1875 -11.234375 C 21.1875 -9.710938 20.863281 -8.34375 20.21875 -7.125 C 19.570312 -5.914062 18.675781 -4.953125 17.53125 -4.234375 C 16.394531 -3.523438 15.078125 -3.171875 13.578125 -3.171875 C 11.953125 -3.171875 10.632812 -3.628906 9.625 -4.546875 C 8.625 -5.472656 8.125 -6.457031 8.125 -7.5 C 8.125 -8.289062 8.441406 -9.066406 9.078125 -9.828125 C 9.722656 -10.597656 10.582031 -10.984375 11.65625 -10.984375 C 12.039062 -10.984375 12.421875 -10.910156 12.796875 -10.765625 C 13.179688 -10.628906 13.390625 -10.53125 13.421875 -10.46875 L 13.421875 -10 C 12.554688 -10.101562 11.890625 -9.84375 11.421875 -9.21875 C 10.953125 -8.59375 10.71875 -7.914062 10.71875 -7.1875 C 10.71875 -6.3125 10.976562 -5.585938 11.5 -5.015625 C 12.019531 -4.441406 12.75 -4.15625 13.6875 -4.15625 C 14.800781 -4.15625 15.671875 -4.570312 16.296875 -5.40625 C 16.921875 -6.238281 17.234375 -7.25 17.234375 -8.4375 C 17.234375 -10 16.675781 -11.289062 15.5625 -12.3125 C 14.445312 -13.332031 13.078125 -13.84375 11.453125 -13.84375 C 9.710938 -13.84375 8.285156 -13.257812 7.171875 -12.09375 C 6.066406 -10.9375 5.515625 -9.539062 5.515625 -7.90625 C 5.515625 -6.382812 5.945312 -5.054688 6.8125 -3.921875 C 7.6875 -2.796875 8.882812 -1.9375 10.40625 -1.34375 C 11.9375 -0.757812 13.691406 -0.46875 15.671875 -0.46875 C 18.097656 -0.46875 20.144531 -0.941406 21.8125 -1.890625 C 23.476562 -2.847656 24.742188 -4.097656 25.609375 -5.640625 C 26.472656 -7.191406 26.90625 -8.832031 26.90625 -10.5625 C 26.90625 -12.15625 26.550781 -13.535156 25.84375 -14.703125 C 25.132812 -15.867188 24.195312 -16.882812 23.03125 -17.75 C 21.863281 -18.613281 20.578125 -19.390625 19.171875 -20.078125 C 17.773438 -20.773438 16.375 -21.445312 14.96875 -22.09375 C 13.5625 -22.738281 12.273438 -23.425781 11.109375 -24.15625 C 9.953125 -24.882812 9.015625 -25.722656 8.296875 -26.671875 C 7.585938 -27.628906 7.234375 -28.75 7.234375 -30.03125 C 7.234375 -31.59375 7.785156 -32.898438 8.890625 -33.953125 C 10.003906 -35.015625 11.488281 -35.804688 13.34375 -36.328125 C 15.207031 -36.847656 17.25 -37.109375 19.46875 -37.109375 C 23.632812 -37.109375 26.84375 -36.46875 29.09375 -35.1875 C 31.351562 -33.90625 32.484375 -32.34375 32.484375 -30.5 C 32.484375 -29.113281 31.96875 -28.019531 30.9375 -27.21875 C 29.914062 -26.414062 28.625 -26.015625 27.0625 -26.015625 C 25.539062 -26.015625 24.265625 -26.429688 23.234375 -27.265625 C 22.210938 -28.097656 21.703125 -29.070312 21.703125 -30.1875 C 21.703125 -30.78125 21.859375 -31.300781 22.171875 -31.75 L 22.75 -31.75 C 22.644531 -31.09375 22.832031 -30.519531 23.3125 -30.03125 C 23.800781 -29.539062 24.460938 -29.296875 25.296875 -29.296875 C 26.085938 -29.296875 26.691406 -29.546875 27.109375 -30.046875 C 27.523438 -30.554688 27.734375 -31.175781 27.734375 -31.90625 C 27.734375 -32.976562 27.203125 -33.929688 26.140625 -34.765625 C 25.085938 -35.597656 23.554688 -36.015625 21.546875 -36.015625 C 19.847656 -36.015625 18.457031 -35.585938 17.375 -34.734375 C 16.300781 -33.890625 15.765625 -32.84375 15.765625 -31.59375 C 15.765625 -30.519531 16.144531 -29.582031 16.90625 -28.78125 C 17.675781 -27.976562 18.691406 -27.226562 19.953125 -26.53125 C 21.222656 -25.84375 22.601562 -25.160156 24.09375 -24.484375 C 25.582031 -23.804688 27.082031 -23.066406 28.59375 -22.265625 C 30.101562 -21.472656 31.488281 -20.570312 32.75 -19.5625 C 34.019531 -18.5625 35.035156 -17.375 35.796875 -16 C 36.566406 -14.632812 36.953125 -13.03125 36.953125 -11.1875 C 36.953125 -8.625 36.117188 -6.457031 34.453125 -4.6875 C 32.785156 -2.914062 30.453125 -1.578125 27.453125 -0.671875 C 24.453125 0.222656 20.972656 0.671875 17.015625 0.671875 Z M 17.015625 0.671875 "/></g></g></g><g fill="#000000" fill-opacity="1"><g transform="translate(73.555378, 235.197717)"><g><path d="M 14.46875 0.671875 C 12.3125 0.671875 10.398438 0.304688 8.734375 -0.421875 C 7.078125 -1.148438 5.78125 -2.300781 4.84375 -3.875 C 3.90625 -5.457031 3.4375 -7.515625 3.4375 -10.046875 L 3.4375 -27.484375 L -1.046875 -27.484375 L -1.046875 -28.578125 L 1.203125 -28.578125 C 3.109375 -28.578125 4.726562 -28.972656 6.0625 -29.765625 C 7.394531 -30.566406 8.46875 -31.617188 9.28125 -32.921875 C 10.101562 -34.222656 10.671875 -35.601562 10.984375 -37.0625 L 11.546875 -37.0625 L 11.546875 -28.578125 L 21.34375 -28.578125 L 21.34375 -27.484375 L 11.65625 -27.484375 L 11.65625 -6.921875 C 11.65625 -5.078125 12.050781 -3.519531 12.84375 -2.25 C 13.644531 -0.988281 14.707031 -0.359375 16.03125 -0.359375 C 17.101562 -0.359375 17.976562 -0.722656 18.65625 -1.453125 C 19.332031 -2.179688 19.671875 -3.132812 19.671875 -4.3125 C 19.671875 -5.320312 19.410156 -6.117188 18.890625 -6.703125 C 18.367188 -7.296875 17.742188 -7.59375 17.015625 -7.59375 C 16.328125 -7.59375 15.765625 -7.296875 15.328125 -6.703125 C 14.890625 -6.117188 14.722656 -5.375 14.828125 -4.46875 L 14.421875 -4.46875 C 14.316406 -4.675781 14.203125 -5 14.078125 -5.4375 C 13.953125 -5.875 13.890625 -6.332031 13.890625 -6.8125 C 13.890625 -8.101562 14.28125 -9.1875 15.0625 -10.0625 C 15.84375 -10.945312 16.828125 -11.390625 18.015625 -11.390625 C 19.328125 -11.390625 20.484375 -10.910156 21.484375 -9.953125 C 22.492188 -9.003906 23 -7.664062 23 -5.9375 C 23 -3.988281 22.207031 -2.398438 20.625 -1.171875 C 19.050781 0.0546875 17 0.671875 14.46875 0.671875 Z M 14.46875 0.671875 "/></g></g></g><g fill="#000000" fill-opacity="1"><g transform="translate(97.182585, 235.197717)"><g><path d="M 16.390625 0.671875 C 13.410156 0.671875 10.753906 0.0546875 8.421875 -1.171875 C 6.097656 -2.398438 4.269531 -4.140625 2.9375 -6.390625 C 1.601562 -8.648438 0.9375 -11.289062 0.9375 -14.3125 C 0.9375 -17.332031 1.601562 -19.96875 2.9375 -22.21875 C 4.269531 -24.476562 6.097656 -26.222656 8.421875 -27.453125 C 10.753906 -28.679688 13.410156 -29.296875 16.390625 -29.296875 C 19.410156 -29.296875 22.082031 -28.679688 24.40625 -27.453125 C 26.726562 -26.222656 28.550781 -24.476562 29.875 -22.21875 C 31.195312 -19.96875 31.859375 -17.332031 31.859375 -14.3125 C 31.859375 -11.289062 31.195312 -8.648438 29.875 -6.390625 C 28.550781 -4.140625 26.726562 -2.398438 24.40625 -1.171875 C 22.082031 0.0546875 19.410156 0.671875 16.390625 0.671875 Z M 16.390625 -0.515625 C 18.472656 -0.515625 20.191406 -1.675781 21.546875 -4 C 22.898438 -6.332031 23.578125 -9.769531 23.578125 -14.3125 C 23.578125 -18.851562 22.898438 -22.273438 21.546875 -24.578125 C 20.191406 -26.890625 18.472656 -28.046875 16.390625 -28.046875 C 14.304688 -28.046875 12.585938 -26.890625 11.234375 -24.578125 C 9.890625 -22.273438 9.21875 -18.851562 9.21875 -14.3125 C 9.21875 -9.769531 9.890625 -6.332031 11.234375 -4 C 12.585938 -1.675781 14.304688 -0.515625 16.390625 -0.515625 Z M 16.390625 -0.515625 "/></g></g></g><g fill="#000000" fill-opacity="1"><g transform="translate(129.969236, 235.197717)"><g><path d="M 17.953125 0.671875 C 15.628906 0.640625 13.441406 0.269531 11.390625 -0.4375 C 9.347656 -1.15625 7.546875 -2.171875 5.984375 -3.484375 C 4.421875 -4.804688 3.1875 -6.378906 2.28125 -8.203125 C 1.382812 -10.023438 0.9375 -12.0625 0.9375 -14.3125 C 0.9375 -17.332031 1.644531 -19.96875 3.0625 -22.21875 C 4.488281 -24.476562 6.425781 -26.222656 8.875 -27.453125 C 11.320312 -28.679688 14.070312 -29.296875 17.125 -29.296875 C 19.0625 -29.296875 20.992188 -29 22.921875 -28.40625 C 24.847656 -27.820312 26.453125 -27.023438 27.734375 -26.015625 L 25.71875 -19.5625 L 25.25 -19.5625 C 24.757812 -22.238281 23.84375 -24.335938 22.5 -25.859375 C 21.164062 -27.390625 19.617188 -28.15625 17.859375 -28.15625 C 16.253906 -28.15625 14.8125 -27.53125 13.53125 -26.28125 C 12.25 -25.03125 11.222656 -23.390625 10.453125 -21.359375 C 9.691406 -19.335938 9.3125 -17.144531 9.3125 -14.78125 C 9.3125 -12.070312 9.785156 -9.648438 10.734375 -7.515625 C 11.691406 -5.378906 12.96875 -3.6875 14.5625 -2.4375 C 16.164062 -1.195312 17.957031 -0.578125 19.9375 -0.578125 C 21.914062 -0.578125 23.421875 -1.0625 24.453125 -2.03125 C 25.492188 -3 26.015625 -4.210938 26.015625 -5.671875 C 26.015625 -6.890625 25.664062 -7.84375 24.96875 -8.53125 C 24.28125 -9.226562 23.453125 -9.578125 22.484375 -9.578125 C 21.441406 -9.578125 20.640625 -9.226562 20.078125 -8.53125 C 19.523438 -7.84375 19.335938 -7.113281 19.515625 -6.34375 L 19 -6.25 C 18.75 -6.5625 18.546875 -7.003906 18.390625 -7.578125 C 18.242188 -8.148438 18.171875 -8.660156 18.171875 -9.109375 C 18.171875 -10.703125 18.695312 -12.078125 19.75 -13.234375 C 20.8125 -14.398438 22.332031 -14.984375 24.3125 -14.984375 C 25.519531 -14.984375 26.597656 -14.6875 27.546875 -14.09375 C 28.503906 -13.507812 29.257812 -12.722656 29.8125 -11.734375 C 30.375 -10.742188 30.65625 -9.644531 30.65625 -8.4375 C 30.65625 -6.519531 30.082031 -4.875 28.9375 -3.5 C 27.789062 -2.132812 26.253906 -1.097656 24.328125 -0.390625 C 22.398438 0.316406 20.273438 0.671875 17.953125 0.671875 Z M 17.953125 0.671875 "/></g></g></g><g fill="#000000" fill-opacity="1"><g transform="translate(161.558917, 235.197717)"><g><path d="M 24.46875 0.671875 C 22.59375 0.671875 21.003906 0.265625 19.703125 -0.546875 C 18.398438 -1.359375 17.410156 -2.445312 16.734375 -3.8125 C 16.054688 -5.1875 15.679688 -6.691406 15.609375 -8.328125 C 15.578125 -10.097656 15.707031 -11.5625 16 -12.71875 C 16.300781 -13.882812 16.710938 -15.054688 17.234375 -16.234375 L 16.859375 -16.546875 C 16.722656 -16.484375 16.566406 -16.40625 16.390625 -16.3125 C 16.222656 -16.226562 16 -16.1875 15.71875 -16.1875 C 15.164062 -16.1875 14.6875 -16.34375 14.28125 -16.65625 C 13.882812 -16.96875 13.6875 -17.382812 13.6875 -17.90625 C 13.6875 -18.382812 13.867188 -18.789062 14.234375 -19.125 C 14.597656 -19.457031 15.054688 -19.625 15.609375 -19.625 C 16.066406 -19.625 16.507812 -19.445312 16.9375 -19.09375 C 17.375 -18.75 17.609375 -18.285156 17.640625 -17.703125 L 18.015625 -17.640625 C 19.015625 -17.503906 19.960938 -17.828125 20.859375 -18.609375 C 21.765625 -19.390625 22.21875 -20.472656 22.21875 -21.859375 C 22.21875 -23.179688 21.890625 -24.25 21.234375 -25.0625 C 20.578125 -25.875 19.585938 -26.28125 18.265625 -26.28125 C 16.847656 -26.28125 15.597656 -25.71875 14.515625 -24.59375 C 13.441406 -23.46875 12.609375 -22.046875 12.015625 -20.328125 C 11.429688 -18.609375 11.140625 -16.863281 11.140625 -15.09375 L 11.140625 -14 C 11.140625 -10.21875 11.300781 -7.15625 11.625 -4.8125 C 11.957031 -2.46875 12.398438 -1.054688 12.953125 -0.578125 L 12.953125 0 L 1.203125 0 L 1.203125 -0.578125 C 1.785156 -1.054688 2.234375 -2.46875 2.546875 -4.8125 C 2.859375 -7.15625 3.015625 -10.21875 3.015625 -14 L 3.015625 -27.953125 C 3.015625 -29.929688 2.925781 -31.4375 2.75 -32.46875 C 2.582031 -33.507812 2.359375 -34.273438 2.078125 -34.765625 C 1.804688 -35.253906 1.515625 -35.632812 1.203125 -35.90625 L 1.203125 -36.4375 C 2.828125 -36.5 4.515625 -36.726562 6.265625 -37.125 C 8.023438 -37.53125 9.457031 -38.113281 10.5625 -38.875 L 11.140625 -38.875 L 11.140625 -21.90625 L 11.765625 -21.90625 C 12.035156 -23.332031 12.640625 -24.597656 13.578125 -25.703125 C 14.515625 -26.816406 15.660156 -27.691406 17.015625 -28.328125 C 18.367188 -28.972656 19.8125 -29.296875 21.34375 -29.296875 C 24.113281 -29.296875 26.253906 -28.632812 27.765625 -27.3125 C 29.273438 -26 30.03125 -24.335938 30.03125 -22.328125 C 30.03125 -19.960938 29.394531 -18.128906 28.125 -16.828125 C 26.863281 -15.535156 25.28125 -14.890625 23.375 -14.890625 C 22.570312 -14.890625 21.726562 -15.046875 20.84375 -15.359375 C 19.957031 -15.671875 19.269531 -16.015625 18.78125 -16.390625 L 18.484375 -16.078125 C 18.859375 -13.441406 19.660156 -11.40625 20.890625 -9.96875 C 22.128906 -8.53125 23.789062 -7.8125 25.875 -7.8125 C 27.21875 -7.8125 28.347656 -8.179688 29.265625 -8.921875 C 30.191406 -9.671875 30.890625 -10.660156 31.359375 -11.890625 C 31.828125 -13.117188 32.0625 -14.460938 32.0625 -15.921875 L 32.734375 -15.921875 C 33.117188 -13.910156 33.257812 -11.914062 33.15625 -9.9375 C 33.050781 -7.957031 32.675781 -6.171875 32.03125 -4.578125 C 31.394531 -2.984375 30.453125 -1.707031 29.203125 -0.75 C 27.953125 0.195312 26.375 0.671875 24.46875 0.671875 Z M 24.46875 0.671875 "/></g></g></g><g fill="#000000" fill-opacity="1"><g transform="translate(195.698674, 235.197717)"><g><path d="M 1.296875 0 L 1.296875 -0.578125 C 1.785156 -1.234375 2.1875 -2.6875 2.5 -4.9375 C 2.8125 -7.195312 2.96875 -10.21875 2.96875 -14 L 2.96875 -27.0625 C 2.96875 -30.050781 2.789062 -32.164062 2.4375 -33.40625 C 2.09375 -34.65625 1.679688 -35.488281 1.203125 -35.90625 L 1.203125 -36.4375 C 2.828125 -36.5 4.515625 -36.726562 6.265625 -37.125 C 8.023438 -37.53125 9.457031 -38.113281 10.5625 -38.875 L 11.140625 -38.875 L 11.140625 -23.15625 L 11.703125 -23.15625 C 12.398438 -25.101562 13.597656 -26.613281 15.296875 -27.6875 C 17.003906 -28.757812 18.929688 -29.296875 21.078125 -29.296875 C 23.335938 -29.296875 25.242188 -28.785156 26.796875 -27.765625 C 28.359375 -26.742188 29.546875 -25.335938 30.359375 -23.546875 C 31.179688 -21.765625 31.59375 -19.726562 31.59375 -17.4375 L 31.59375 -14 C 31.59375 -10.21875 31.765625 -7.195312 32.109375 -4.9375 C 32.460938 -2.6875 32.863281 -1.234375 33.3125 -0.578125 L 33.3125 0 L 21.75 0 L 21.75 -0.578125 C 22.238281 -1.234375 22.640625 -2.6875 22.953125 -4.9375 C 23.265625 -7.195312 23.421875 -10.21875 23.421875 -14 L 23.421875 -18.109375 C 23.421875 -20.265625 22.925781 -21.972656 21.9375 -23.234375 C 20.945312 -24.503906 19.484375 -25.140625 17.546875 -25.140625 C 16.359375 -25.140625 15.28125 -24.832031 14.3125 -24.21875 C 13.34375 -23.613281 12.570312 -22.78125 12 -21.71875 C 11.425781 -20.664062 11.140625 -19.460938 11.140625 -18.109375 L 11.140625 -14 C 11.140625 -10.21875 11.300781 -7.195312 11.625 -4.9375 C 11.957031 -2.6875 12.347656 -1.234375 12.796875 -0.578125 L 12.796875 0 Z M 1.296875 0 "/></g></g></g><g fill="#000000" fill-opacity="1"><g transform="translate(230.150684, 235.197717)"><g><path d="M 16.390625 0.671875 C 13.410156 0.671875 10.753906 0.0546875 8.421875 -1.171875 C 6.097656 -2.398438 4.269531 -4.140625 2.9375 -6.390625 C 1.601562 -8.648438 0.9375 -11.289062 0.9375 -14.3125 C 0.9375 -17.332031 1.601562 -19.96875 2.9375 -22.21875 C 4.269531 -24.476562 6.097656 -26.222656 8.421875 -27.453125 C 10.753906 -28.679688 13.410156 -29.296875 16.390625 -29.296875 C 19.410156 -29.296875 22.082031 -28.679688 24.40625 -27.453125 C 26.726562 -26.222656 28.550781 -24.476562 29.875 -22.21875 C 31.195312 -19.96875 31.859375 -17.332031 31.859375 -14.3125 C 31.859375 -11.289062 31.195312 -8.648438 29.875 -6.390625 C 28.550781 -4.140625 26.726562 -2.398438 24.40625 -1.171875 C 22.082031 0.0546875 19.410156 0.671875 16.390625 0.671875 Z M 16.390625 -0.515625 C 18.472656 -0.515625 20.191406 -1.675781 21.546875 -4 C 22.898438 -6.332031 23.578125 -9.769531 23.578125 -14.3125 C 23.578125 -18.851562 22.898438 -22.273438 21.546875 -24.578125 C 20.191406 -26.890625 18.472656 -28.046875 16.390625 -28.046875 C 14.304688 -28.046875 12.585938 -26.890625 11.234375 -24.578125 C 9.890625 -22.273438 9.21875 -18.851562 9.21875 -14.3125 C 9.21875 -9.769531 9.890625 -6.332031 11.234375 -4 C 12.585938 -1.675781 14.304688 -0.515625 16.390625 -0.515625 Z M 16.390625 -0.515625 "/></g></g></g><g fill="#000000" fill-opacity="1"><g transform="translate(262.937335, 235.197717)"><g><path d="M 9.9375 0.671875 C 7.71875 0.671875 6 -0.046875 4.78125 -1.484375 C 3.570312 -2.921875 2.96875 -4.734375 2.96875 -6.921875 L 2.96875 -27.109375 C 2.96875 -29.085938 2.878906 -30.664062 2.703125 -31.84375 C 2.535156 -33.03125 2.320312 -33.9375 2.0625 -34.5625 C 1.800781 -35.1875 1.515625 -35.632812 1.203125 -35.90625 L 1.203125 -36.4375 C 2.828125 -36.5 4.503906 -36.726562 6.234375 -37.125 C 7.972656 -37.53125 9.414062 -38.113281 10.5625 -38.875 L 11.09375 -38.875 L 11.09375 -8.375 C 11.125 -7.164062 11.335938 -6.175781 11.734375 -5.40625 C 12.128906 -4.644531 12.710938 -4.265625 13.484375 -4.265625 C 14.003906 -4.265625 14.425781 -4.453125 14.75 -4.828125 C 15.082031 -5.210938 15.300781 -5.6875 15.40625 -6.25 L 15.921875 -6.140625 C 15.710938 -4.234375 15.148438 -2.617188 14.234375 -1.296875 C 13.316406 0.015625 11.882812 0.671875 9.9375 0.671875 Z M 9.9375 0.671875 "/></g></g></g><g fill="#000000" fill-opacity="1"><g transform="translate(279.33067, 235.197717)"><g><path d="M 1.296875 0 L 1.296875 -0.578125 C 1.785156 -1.234375 2.1875 -2.6875 2.5 -4.9375 C 2.8125 -7.195312 2.96875 -10.21875 2.96875 -14 L 2.96875 -17.59375 C 2.96875 -20.570312 2.789062 -22.6875 2.4375 -23.9375 C 2.09375 -25.1875 1.679688 -26.019531 1.203125 -26.4375 L 1.203125 -26.953125 C 2.828125 -27.023438 4.453125 -27.257812 6.078125 -27.65625 C 7.710938 -28.0625 9.085938 -28.644531 10.203125 -29.40625 L 10.71875 -29.40625 L 10.71875 -23.46875 L 11.34375 -23.46875 C 11.9375 -25.3125 12.976562 -26.742188 14.46875 -27.765625 C 15.957031 -28.785156 17.726562 -29.296875 19.78125 -29.296875 C 22.101562 -29.296875 24 -28.710938 25.46875 -27.546875 C 26.945312 -26.390625 28 -24.769531 28.625 -22.6875 L 29.203125 -22.6875 C 29.753906 -24.738281 30.785156 -26.351562 32.296875 -27.53125 C 33.804688 -28.707031 35.65625 -29.296875 37.84375 -29.296875 C 39.957031 -29.296875 41.722656 -28.765625 43.140625 -27.703125 C 44.566406 -26.648438 45.632812 -25.210938 46.34375 -23.390625 C 47.0625 -21.566406 47.421875 -19.515625 47.421875 -17.234375 L 47.421875 -14 C 47.421875 -10.21875 47.582031 -7.195312 47.90625 -4.9375 C 48.238281 -2.6875 48.628906 -1.234375 49.078125 -0.578125 L 49.078125 0 L 38.09375 0 L 38.09375 -0.578125 C 38.582031 -1.234375 38.984375 -2.6875 39.296875 -4.9375 C 39.609375 -7.195312 39.765625 -10.21875 39.765625 -14 L 39.765625 -17.953125 C 39.765625 -20.066406 39.328125 -21.789062 38.453125 -23.125 C 37.585938 -24.46875 36.289062 -25.140625 34.5625 -25.140625 C 33.414062 -25.140625 32.429688 -24.816406 31.609375 -24.171875 C 30.796875 -23.535156 30.179688 -22.6875 29.765625 -21.625 C 29.347656 -20.5625 29.125 -19.425781 29.09375 -18.21875 L 29.09375 -14 C 29.09375 -10.21875 29.253906 -7.195312 29.578125 -4.9375 C 29.910156 -2.6875 30.304688 -1.234375 30.765625 -0.578125 L 30.765625 0 L 19.828125 0 L 19.828125 -0.578125 C 20.316406 -1.234375 20.71875 -2.6875 21.03125 -4.9375 C 21.34375 -7.195312 21.5 -10.21875 21.5 -14 L 21.5 -17.953125 C 21.5 -20.066406 21.054688 -21.789062 20.171875 -23.125 C 19.285156 -24.46875 17.972656 -25.140625 16.234375 -25.140625 C 15.085938 -25.140625 14.109375 -24.816406 13.296875 -24.171875 C 12.484375 -23.535156 11.859375 -22.675781 11.421875 -21.59375 C 10.992188 -20.519531 10.78125 -19.359375 10.78125 -18.109375 L 10.78125 -14 C 10.78125 -10.21875 10.941406 -7.195312 11.265625 -4.9375 C 11.597656 -2.6875 11.988281 -1.234375 12.4375 -0.578125 L 12.4375 0 Z M 1.296875 0 "/></g></g></g><g fill="#000000" fill-opacity="1"><g transform="translate(77.299069, 278.667463)"><g><path d="M 21.4375 0.625 C 19.269531 0.625 17.390625 0.148438 15.796875 -0.796875 C 14.210938 -1.753906 13.144531 -3.222656 12.59375 -5.203125 L 12.15625 -5.203125 L 12.15625 0 L 1.125 0 L 1.125 -0.578125 C 1.632812 -1.191406 2.078125 -2.578125 2.453125 -4.734375 C 2.828125 -6.890625 3.015625 -9.769531 3.015625 -13.375 L 3.015625 -20.609375 C 3.015625 -24.234375 2.828125 -27.125 2.453125 -29.28125 C 2.078125 -31.4375 1.632812 -32.820312 1.125 -33.4375 L 1.125 -34.03125 L 21.4375 -34.03125 C 24.1875 -34.03125 26.234375 -33.550781 27.578125 -32.59375 C 28.929688 -31.632812 29.609375 -30.394531 29.609375 -28.875 C 29.609375 -27.800781 29.234375 -26.898438 28.484375 -26.171875 C 27.734375 -25.441406 26.742188 -24.890625 25.515625 -24.515625 C 24.285156 -24.148438 22.941406 -23.96875 21.484375 -23.96875 L 20.375 -23.96875 L 20.375 -23.375 L 21.4375 -23.375 C 24.03125 -23.375 26.378906 -22.90625 28.484375 -21.96875 C 30.585938 -21.03125 32.265625 -19.691406 33.515625 -17.953125 C 34.765625 -16.222656 35.390625 -14.160156 35.390625 -11.765625 C 35.390625 -9.523438 34.882812 -7.460938 33.875 -5.578125 C 32.875 -3.703125 31.34375 -2.195312 29.28125 -1.0625 C 27.226562 0.0625 24.613281 0.625 21.4375 0.625 Z M 12.203125 -24.25 L 15.75 -24.25 C 17.207031 -24.25 18.320312 -24.660156 19.09375 -25.484375 C 19.875 -26.316406 20.265625 -27.332031 20.265625 -28.53125 C 20.265625 -29.664062 19.988281 -30.6875 19.4375 -31.59375 C 18.894531 -32.5 18.003906 -32.953125 16.765625 -32.953125 L 12.203125 -32.953125 Z M 19.984375 -0.4375 C 21.828125 -0.4375 23.40625 -1.253906 24.71875 -2.890625 C 26.03125 -4.523438 26.6875 -6.800781 26.6875 -9.71875 C 26.6875 -11.238281 26.46875 -12.785156 26.03125 -14.359375 C 25.59375 -15.929688 24.953125 -17.378906 24.109375 -18.703125 C 23.265625 -20.035156 22.234375 -21.109375 21.015625 -21.921875 C 19.804688 -22.734375 18.40625 -23.140625 16.8125 -23.140625 L 12.15625 -23.140625 L 12.15625 -10.359375 L 12.546875 -10.359375 C 12.804688 -11.710938 13.375 -12.800781 14.25 -13.625 C 15.125 -14.457031 16.109375 -14.875 17.203125 -14.875 C 18.273438 -14.875 19.148438 -14.601562 19.828125 -14.0625 C 20.515625 -13.53125 21.023438 -12.832031 21.359375 -11.96875 C 21.703125 -11.113281 21.875 -10.203125 21.875 -9.234375 C 21.875 -8.785156 21.800781 -8.226562 21.65625 -7.5625 C 21.507812 -6.894531 21.351562 -6.429688 21.1875 -6.171875 L 20.65625 -6.171875 C 20.71875 -6.785156 20.648438 -7.414062 20.453125 -8.0625 C 20.265625 -8.71875 19.9375 -9.269531 19.46875 -9.71875 C 19 -10.175781 18.375 -10.40625 17.59375 -10.40625 C 16.59375 -10.40625 15.789062 -9.988281 15.1875 -9.15625 C 14.59375 -8.332031 14.296875 -7.207031 14.296875 -5.78125 C 14.296875 -4.382812 14.820312 -3.144531 15.875 -2.0625 C 16.925781 -0.976562 18.296875 -0.4375 19.984375 -0.4375 Z M 19.984375 -0.4375 "/></g></g></g><g fill="#000000" fill-opacity="1"><g transform="translate(113.565509, 278.667463)"><g><path d="M 12.203125 0.625 C 10.160156 0.625 8.441406 0.113281 7.046875 -0.90625 C 5.648438 -1.925781 4.59375 -3.273438 3.875 -4.953125 C 3.164062 -6.640625 2.8125 -8.503906 2.8125 -10.546875 L 2.8125 -16.484375 C 2.8125 -19.265625 2.648438 -21.238281 2.328125 -22.40625 C 2.003906 -23.570312 1.632812 -24.347656 1.21875 -24.734375 L 1.21875 -25.234375 C 2.707031 -25.296875 4.273438 -25.503906 5.921875 -25.859375 C 7.578125 -26.210938 8.925781 -26.75 9.96875 -27.46875 L 10.453125 -27.46875 L 10.453125 -9.921875 C 10.453125 -8.035156 10.890625 -6.441406 11.765625 -5.140625 C 12.640625 -3.847656 13.9375 -3.203125 15.65625 -3.203125 C 17.375 -3.203125 18.703125 -3.816406 19.640625 -5.046875 C 20.578125 -6.285156 21.0625 -7.828125 21.09375 -9.671875 L 21.09375 -16.484375 C 21.09375 -19.265625 20.929688 -21.238281 20.609375 -22.40625 C 20.285156 -23.570312 19.914062 -24.347656 19.5 -24.734375 L 19.5 -25.234375 C 20.988281 -25.296875 22.554688 -25.503906 24.203125 -25.859375 C 25.859375 -26.210938 27.203125 -26.75 28.234375 -27.46875 L 28.734375 -27.46875 L 28.734375 -7.6875 C 28.765625 -6.582031 28.945312 -5.6875 29.28125 -5 C 29.625 -4.320312 30.148438 -3.984375 30.859375 -3.984375 C 31.378906 -3.984375 31.785156 -4.160156 32.078125 -4.515625 C 32.367188 -4.878906 32.582031 -5.316406 32.71875 -5.828125 L 33.203125 -5.734375 C 33.003906 -3.953125 32.46875 -2.445312 31.59375 -1.21875 C 30.71875 0.0078125 29.390625 0.625 27.609375 0.625 C 25.441406 0.625 23.878906 0.113281 22.921875 -0.90625 C 21.960938 -1.925781 21.351562 -3.273438 21.09375 -4.953125 L 20.5625 -4.953125 C 19.976562 -3.171875 18.945312 -1.796875 17.46875 -0.828125 C 16 0.140625 14.242188 0.625 12.203125 0.625 Z M 12.203125 0.625 "/></g></g></g><g fill="#000000" fill-opacity="1"><g transform="translate(146.477544, 278.667463)"><g><path d="M 19.984375 2 C 18.328125 2 16.789062 1.832031 15.375 1.5 C 13.96875 1.175781 12.597656 0.8125 11.265625 0.40625 C 9.941406 0.0078125 8.554688 -0.332031 7.109375 -0.625 C 5.671875 -0.914062 4.113281 -1.03125 2.4375 -0.96875 C 1.851562 0.09375 1.101562 0.625 0.1875 0.625 C -0.90625 0.625 -1.453125 0.171875 -1.453125 -0.734375 C -1.453125 -1.148438 -1.148438 -1.609375 -0.546875 -2.109375 C 0.046875 -2.617188 0.859375 -2.835938 1.890625 -2.765625 L 17.15625 -25.671875 L 9.96875 -25.671875 C 8.769531 -25.671875 7.640625 -25.34375 6.578125 -24.6875 C 5.523438 -24.039062 4.664062 -23.140625 4 -21.984375 C 3.34375 -20.835938 2.96875 -19.472656 2.875 -17.890625 L 2.328125 -17.890625 L 2.328125 -26.6875 L 25.90625 -26.6875 L 25.90625 -26.203125 L 12.828125 -6.46875 C 12.117188 -5.332031 11.503906 -4.421875 10.984375 -3.734375 C 10.460938 -3.054688 9.945312 -2.507812 9.4375 -2.09375 L 9.484375 -1.5 C 11.066406 -1.3125 12.484375 -1.015625 13.734375 -0.609375 C 14.984375 -0.203125 16.15625 0.160156 17.25 0.484375 C 18.351562 0.804688 19.488281 0.96875 20.65625 0.96875 C 22.25 0.96875 23.445312 0.570312 24.25 -0.21875 C 25.0625 -1.007812 25.46875 -2.070312 25.46875 -3.40625 C 25.46875 -4.34375 25.191406 -5.078125 24.640625 -5.609375 C 24.085938 -6.148438 23.359375 -6.421875 22.453125 -6.421875 C 21.804688 -6.421875 21.238281 -6.203125 20.75 -5.765625 C 20.269531 -5.328125 20.03125 -4.832031 20.03125 -4.28125 C 20.03125 -3.695312 20.210938 -3.234375 20.578125 -2.890625 C 20.953125 -2.546875 21.398438 -2.441406 21.921875 -2.578125 L 21.96875 -2.09375 C 21.644531 -1.894531 21.160156 -1.796875 20.515625 -1.796875 C 19.410156 -1.796875 18.492188 -2.179688 17.765625 -2.953125 C 17.035156 -3.734375 16.671875 -4.691406 16.671875 -5.828125 C 16.671875 -7.316406 17.171875 -8.601562 18.171875 -9.6875 C 19.179688 -10.78125 20.53125 -11.328125 22.21875 -11.328125 C 24.03125 -11.328125 25.523438 -10.75 26.703125 -9.59375 C 27.890625 -8.445312 28.484375 -7 28.484375 -5.25 C 28.484375 -3.082031 27.6875 -1.332031 26.09375 0 C 24.507812 1.332031 22.472656 2 19.984375 2 Z M 19.984375 2 "/></g></g></g><g fill="#000000" fill-opacity="1"><g transform="translate(175.646265, 278.667463)"><g><path d="M 19.984375 2 C 18.328125 2 16.789062 1.832031 15.375 1.5 C 13.96875 1.175781 12.597656 0.8125 11.265625 0.40625 C 9.941406 0.0078125 8.554688 -0.332031 7.109375 -0.625 C 5.671875 -0.914062 4.113281 -1.03125 2.4375 -0.96875 C 1.851562 0.09375 1.101562 0.625 0.1875 0.625 C -0.90625 0.625 -1.453125 0.171875 -1.453125 -0.734375 C -1.453125 -1.148438 -1.148438 -1.609375 -0.546875 -2.109375 C 0.046875 -2.617188 0.859375 -2.835938 1.890625 -2.765625 L 17.15625 -25.671875 L 9.96875 -25.671875 C 8.769531 -25.671875 7.640625 -25.34375 6.578125 -24.6875 C 5.523438 -24.039062 4.664062 -23.140625 4 -21.984375 C 3.34375 -20.835938 2.96875 -19.472656 2.875 -17.890625 L 2.328125 -17.890625 L 2.328125 -26.6875 L 25.90625 -26.6875 L 25.90625 -26.203125 L 12.828125 -6.46875 C 12.117188 -5.332031 11.503906 -4.421875 10.984375 -3.734375 C 10.460938 -3.054688 9.945312 -2.507812 9.4375 -2.09375 L 9.484375 -1.5 C 11.066406 -1.3125 12.484375 -1.015625 13.734375 -0.609375 C 14.984375 -0.203125 16.15625 0.160156 17.25 0.484375 C 18.351562 0.804688 19.488281 0.96875 20.65625 0.96875 C 22.25 0.96875 23.445312 0.570312 24.25 -0.21875 C 25.0625 -1.007812 25.46875 -2.070312 25.46875 -3.40625 C 25.46875 -4.34375 25.191406 -5.078125 24.640625 -5.609375 C 24.085938 -6.148438 23.359375 -6.421875 22.453125 -6.421875 C 21.804688 -6.421875 21.238281 -6.203125 20.75 -5.765625 C 20.269531 -5.328125 20.03125 -4.832031 20.03125 -4.28125 C 20.03125 -3.695312 20.210938 -3.234375 20.578125 -2.890625 C 20.953125 -2.546875 21.398438 -2.441406 21.921875 -2.578125 L 21.96875 -2.09375 C 21.644531 -1.894531 21.160156 -1.796875 20.515625 -1.796875 C 19.410156 -1.796875 18.492188 -2.179688 17.765625 -2.953125 C 17.035156 -3.734375 16.671875 -4.691406 16.671875 -5.828125 C 16.671875 -7.316406 17.171875 -8.601562 18.171875 -9.6875 C 19.179688 -10.78125 20.53125 -11.328125 22.21875 -11.328125 C 24.03125 -11.328125 25.523438 -10.75 26.703125 -9.59375 C 27.890625 -8.445312 28.484375 -7 28.484375 -5.25 C 28.484375 -3.082031 27.6875 -1.332031 26.09375 0 C 24.507812 1.332031 22.472656 2 19.984375 2 Z M 19.984375 2 "/></g></g></g><g fill="#000000" fill-opacity="1"><g transform="translate(100.358346, 195.809847)"><g><path d="M 3.8125 0 L 2.234375 0 L 2.234375 -6.140625 L 0.203125 -6.140625 L 0.203125 -7.46875 L 5.84375 -7.46875 L 5.84375 -6.140625 L 3.8125 -6.140625 Z M 3.8125 0 "/></g></g></g><g fill="#000000" fill-opacity="1"><g transform="translate(107.97973, 195.809847)"><g><path d="M 7.046875 0 L 5.484375 0 L 5.484375 -3.21875 L 2.515625 -3.21875 L 2.515625 0 L 0.9375 0 L 0.9375 -7.46875 L 2.515625 -7.46875 L 2.515625 -4.53125 L 5.484375 -4.53125 L 5.484375 -7.46875 L 7.046875 -7.46875 Z M 7.046875 0 "/></g></g></g><g fill="#000000" fill-opacity="1"><g transform="translate(117.545612, 195.809847)"><g><path d="M 5.234375 0 L 0.9375 0 L 0.9375 -7.46875 L 5.234375 -7.46875 L 5.234375 -6.171875 L 2.515625 -6.171875 L 2.515625 -4.53125 L 5.046875 -4.53125 L 5.046875 -3.234375 L 2.515625 -3.234375 L 2.515625 -1.3125 L 5.234375 -1.3125 Z M 5.234375 0 "/></g></g></g></svg>