<svg xmlns="http://www.w3.org/2000/svg" xmlns:xlink="http://www.w3.org/1999/xlink" width="500" zoomAndPan="magnify" viewBox="0 0 375 374.999991" height="500" preserveAspectRatio="xMidYMid meet" version="1.0"><defs><clipPath id="ad504e9d02"><path d="M 246 183 L 293 183 L 293 245 L 246 245 Z M 246 183 " clip-rule="nonzero"/></clipPath><clipPath id="2a34d8df84"><path d="M -11.367188 214.84375 L 329.21875 93.664062 L 386.285156 254.066406 L 45.699219 375.242188 Z M -11.367188 214.84375 " clip-rule="nonzero"/></clipPath><clipPath id="b5cedc621a"><path d="M 386.359375 253.753906 L 45.777344 374.929688 L -11.292969 214.53125 L 329.292969 93.351562 Z M 386.359375 253.753906 " clip-rule="nonzero"/></clipPath><clipPath id="7e94f977de"><path d="M 293 175 L 368 175 L 368 230 L 293 230 Z M 293 175 " clip-rule="nonzero"/></clipPath><clipPath id="ca02f8d836"><path d="M -11.367188 214.84375 L 329.21875 93.664062 L 386.285156 254.066406 L 45.699219 375.242188 Z M -11.367188 214.84375 " clip-rule="nonzero"/></clipPath><clipPath id="6e14236fe0"><path d="M 386.359375 253.753906 L 45.777344 374.929688 L -11.292969 214.53125 L 329.292969 93.351562 Z M 386.359375 253.753906 " clip-rule="nonzero"/></clipPath><clipPath id="56b4dd3c04"><path d="M 230 125 L 294 125 L 294 187 L 230 187 Z M 230 125 " clip-rule="nonzero"/></clipPath><clipPath id="678181f83d"><path d="M -11.367188 214.84375 L 329.21875 93.664062 L 386.285156 254.066406 L 45.699219 375.242188 Z M -11.367188 214.84375 " clip-rule="nonzero"/></clipPath><clipPath id="ece2e455dc"><path d="M 386.359375 253.753906 L 45.777344 374.929688 L -11.292969 214.53125 L 329.292969 93.351562 Z M 386.359375 253.753906 " clip-rule="nonzero"/></clipPath><clipPath id="114bb6289f"><path d="M 250 181 L 300 181 L 300 248 L 250 248 Z M 250 181 " clip-rule="nonzero"/></clipPath><clipPath id="3e441a3ce6"><path d="M -11.367188 214.84375 L 329.21875 93.664062 L 386.285156 254.066406 L 45.699219 375.242188 Z M -11.367188 214.84375 " clip-rule="nonzero"/></clipPath><clipPath id="e41601622a"><path d="M 386.359375 253.753906 L 45.777344 374.929688 L -11.292969 214.53125 L 329.292969 93.351562 Z M 386.359375 253.753906 " clip-rule="nonzero"/></clipPath><clipPath id="3b160c3851"><path d="M 289 157 L 313 157 L 313 182 L 289 182 Z M 289 157 " clip-rule="nonzero"/></clipPath><clipPath id="88da17cb27"><path d="M -11.367188 214.84375 L 329.21875 93.664062 L 386.285156 254.066406 L 45.699219 375.242188 Z M -11.367188 214.84375 " clip-rule="nonzero"/></clipPath><clipPath id="30b9024154"><path d="M 386.359375 253.753906 L 45.777344 374.929688 L -11.292969 214.53125 L 329.292969 93.351562 Z M 386.359375 253.753906 " clip-rule="nonzero"/></clipPath><clipPath id="24a32ba0f2"><path d="M 292 138 L 305 138 L 305 159 L 292 159 Z M 292 138 " clip-rule="nonzero"/></clipPath><clipPath id="94a43dd595"><path d="M -11.367188 214.84375 L 329.21875 93.664062 L 386.285156 254.066406 L 45.699219 375.242188 Z M -11.367188 214.84375 " clip-rule="nonzero"/></clipPath><clipPath id="770442de95"><path d="M 386.359375 253.753906 L 45.777344 374.929688 L -11.292969 214.53125 L 329.292969 93.351562 Z M 386.359375 253.753906 " clip-rule="nonzero"/></clipPath><clipPath id="9582d5d6d3"><path d="M 308 158 L 332 158 L 332 164 L 308 164 Z M 308 158 " clip-rule="nonzero"/></clipPath><clipPath id="0676826d13"><path d="M -11.367188 214.84375 L 329.21875 93.664062 L 386.285156 254.066406 L 45.699219 375.242188 Z M -11.367188 214.84375 " clip-rule="nonzero"/></clipPath><clipPath id="c87853cda4"><path d="M 386.359375 253.753906 L 45.777344 374.929688 L -11.292969 214.53125 L 329.292969 93.351562 Z M 386.359375 253.753906 " clip-rule="nonzero"/></clipPath><clipPath id="560859d5f3"><path d="M 290 178 L 297 178 L 297 186 L 290 186 Z M 290 178 " clip-rule="nonzero"/></clipPath><clipPath id="8a3382061b"><path d="M -11.367188 214.84375 L 329.21875 93.664062 L 386.285156 254.066406 L 45.699219 375.242188 Z M -11.367188 214.84375 " clip-rule="nonzero"/></clipPath><clipPath id="b3a63d5b88"><path d="M 386.359375 253.753906 L 45.777344 374.929688 L -11.292969 214.53125 L 329.292969 93.351562 Z M 386.359375 253.753906 " clip-rule="nonzero"/></clipPath><clipPath id="6453edae69"><path d="M 267 189 L 298 189 L 298 210 L 267 210 Z M 267 189 " clip-rule="nonzero"/></clipPath><clipPath id="307c920e1c"><path d="M -11.367188 214.84375 L 329.21875 93.664062 L 386.285156 254.066406 L 45.699219 375.242188 Z M -11.367188 214.84375 " clip-rule="nonzero"/></clipPath><clipPath id="e5d8b07458"><path d="M 386.359375 253.753906 L 45.777344 374.929688 L -11.292969 214.53125 L 329.292969 93.351562 Z M 386.359375 253.753906 " clip-rule="nonzero"/></clipPath><clipPath id="80be5e1586"><path d="M 249 219 L 280 219 L 280 240 L 249 240 Z M 249 219 " clip-rule="nonzero"/></clipPath><clipPath id="1a96c9b294"><path d="M -11.367188 214.84375 L 329.21875 93.664062 L 386.285156 254.066406 L 45.699219 375.242188 Z M -11.367188 214.84375 " clip-rule="nonzero"/></clipPath><clipPath id="b7fa79fb34"><path d="M 386.359375 253.753906 L 45.777344 374.929688 L -11.292969 214.53125 L 329.292969 93.351562 Z M 386.359375 253.753906 " clip-rule="nonzero"/></clipPath><clipPath id="a906e370b6"><path d="M 255 201 L 293 201 L 293 227 L 255 227 Z M 255 201 " clip-rule="nonzero"/></clipPath><clipPath id="d9b6024ef6"><path d="M -11.367188 214.84375 L 329.21875 93.664062 L 386.285156 254.066406 L 45.699219 375.242188 Z M -11.367188 214.84375 " clip-rule="nonzero"/></clipPath><clipPath id="fcde3a935d"><path d="M 386.359375 253.753906 L 45.777344 374.929688 L -11.292969 214.53125 L 329.292969 93.351562 Z M 386.359375 253.753906 " clip-rule="nonzero"/></clipPath><clipPath id="5d352964d6"><path d="M 18 227 L 242 227 L 242 353 L 18 353 Z M 18 227 " clip-rule="nonzero"/></clipPath><clipPath id="7ddcbdff59"><path d="M -11.367188 214.84375 L 329.21875 93.664062 L 386.285156 254.066406 L 45.699219 375.242188 Z M -11.367188 214.84375 " clip-rule="nonzero"/></clipPath><clipPath id="d60332b3f2"><path d="M 386.359375 253.753906 L 45.777344 374.929688 L -11.292969 214.53125 L 329.292969 93.351562 Z M 386.359375 253.753906 " clip-rule="nonzero"/></clipPath><clipPath id="9d64bdebb0"><path d="M 129 47 L 152 47 L 152 60 L 129 60 Z M 129 47 " clip-rule="nonzero"/></clipPath><clipPath id="fcf87d8615"><path d="M 186.707031 130.617188 L 97 56.683594 L 131.820312 14.433594 L 221.527344 88.367188 Z M 186.707031 130.617188 " clip-rule="nonzero"/></clipPath><clipPath id="b6aa488ef1"><path d="M 131.628906 14.277344 L 221.339844 88.210938 L 186.515625 130.460938 L 96.808594 56.523438 Z M 131.628906 14.277344 " clip-rule="nonzero"/></clipPath><clipPath id="5e98b645ac"><path d="M 117 26 L 135 26 L 135 52 L 117 52 Z M 117 26 " clip-rule="nonzero"/></clipPath><clipPath id="cbe1860b34"><path d="M 186.707031 130.617188 L 97 56.683594 L 131.820312 14.433594 L 221.527344 88.367188 Z M 186.707031 130.617188 " clip-rule="nonzero"/></clipPath><clipPath id="6de2979b69"><path d="M 131.628906 14.277344 L 221.339844 88.210938 L 186.515625 130.460938 L 96.808594 56.523438 Z M 131.628906 14.277344 " clip-rule="nonzero"/></clipPath><clipPath id="3c88d3da89"><path d="M 117 52 L 135 52 L 135 78 L 117 78 Z M 117 52 " clip-rule="nonzero"/></clipPath><clipPath id="756e770ddf"><path d="M 186.707031 130.617188 L 97 56.683594 L 131.820312 14.433594 L 221.527344 88.367188 Z M 186.707031 130.617188 " clip-rule="nonzero"/></clipPath><clipPath id="c675a34974"><path d="M 131.628906 14.277344 L 221.339844 88.210938 L 186.515625 130.460938 L 96.808594 56.523438 Z M 131.628906 14.277344 " clip-rule="nonzero"/></clipPath><clipPath id="5f18004c1c"><path d="M 127 44 L 152 44 L 152 59 L 127 59 Z M 127 44 " clip-rule="nonzero"/></clipPath><clipPath id="5e2ee96254"><path d="M 186.707031 130.617188 L 97 56.683594 L 131.820312 14.433594 L 221.527344 88.367188 Z M 186.707031 130.617188 " clip-rule="nonzero"/></clipPath><clipPath id="0682872b0f"><path d="M 131.628906 14.277344 L 221.339844 88.210938 L 186.515625 130.460938 L 96.808594 56.523438 Z M 131.628906 14.277344 " clip-rule="nonzero"/></clipPath><clipPath id="5507fc82ba"><path d="M 118 48 L 127 48 L 127 56 L 118 56 Z M 118 48 " clip-rule="nonzero"/></clipPath><clipPath id="badab5c01e"><path d="M 186.707031 130.617188 L 97 56.683594 L 131.820312 14.433594 L 221.527344 88.367188 Z M 186.707031 130.617188 " clip-rule="nonzero"/></clipPath><clipPath id="3b23c2c26e"><path d="M 131.628906 14.277344 L 221.339844 88.210938 L 186.515625 130.460938 L 96.808594 56.523438 Z M 131.628906 14.277344 " clip-rule="nonzero"/></clipPath><clipPath id="b64a95282c"><path d="M 115 52 L 120 52 L 120 59 L 115 59 Z M 115 52 " clip-rule="nonzero"/></clipPath><clipPath id="09db9231a4"><path d="M 186.707031 130.617188 L 97 56.683594 L 131.820312 14.433594 L 221.527344 88.367188 Z M 186.707031 130.617188 " clip-rule="nonzero"/></clipPath><clipPath id="06a9e39eab"><path d="M 131.628906 14.277344 L 221.339844 88.210938 L 186.515625 130.460938 L 96.808594 56.523438 Z M 131.628906 14.277344 " clip-rule="nonzero"/></clipPath><clipPath id="a321c09769"><path d="M 115 44 L 120 44 L 120 52 L 115 52 Z M 115 44 " clip-rule="nonzero"/></clipPath><clipPath id="ecb223e8c5"><path d="M 186.707031 130.617188 L 97 56.683594 L 131.820312 14.433594 L 221.527344 88.367188 Z M 186.707031 130.617188 " clip-rule="nonzero"/></clipPath><clipPath id="9bd0cb3f71"><path d="M 131.628906 14.277344 L 221.339844 88.210938 L 186.515625 130.460938 L 96.808594 56.523438 Z M 131.628906 14.277344 " clip-rule="nonzero"/></clipPath><clipPath id="7b6937d70f"><path d="M 126 50 L 129 50 L 129 53 L 126 53 Z M 126 50 " clip-rule="nonzero"/></clipPath><clipPath id="6df3e4c067"><path d="M 186.707031 130.617188 L 97 56.683594 L 131.820312 14.433594 L 221.527344 88.367188 Z M 186.707031 130.617188 " clip-rule="nonzero"/></clipPath><clipPath id="4173ce4eb4"><path d="M 131.628906 14.277344 L 221.339844 88.210938 L 186.515625 130.460938 L 96.808594 56.523438 Z M 131.628906 14.277344 " clip-rule="nonzero"/></clipPath><clipPath id="8219e32616"><path d="M 132 46 L 136 46 L 136 58 L 132 58 Z M 132 46 " clip-rule="nonzero"/></clipPath><clipPath id="74f9b5858f"><path d="M 186.707031 130.617188 L 97 56.683594 L 131.820312 14.433594 L 221.527344 88.367188 Z M 186.707031 130.617188 " clip-rule="nonzero"/></clipPath><clipPath id="c19d74729a"><path d="M 131.628906 14.277344 L 221.339844 88.210938 L 186.515625 130.460938 L 96.808594 56.523438 Z M 131.628906 14.277344 " clip-rule="nonzero"/></clipPath><clipPath id="c0aa5e30b8"><path d="M 144 46 L 147 46 L 147 58 L 144 58 Z M 144 46 " clip-rule="nonzero"/></clipPath><clipPath id="dbd6b69262"><path d="M 186.707031 130.617188 L 97 56.683594 L 131.820312 14.433594 L 221.527344 88.367188 Z M 186.707031 130.617188 " clip-rule="nonzero"/></clipPath><clipPath id="fc9aac02ca"><path d="M 131.628906 14.277344 L 221.339844 88.210938 L 186.515625 130.460938 L 96.808594 56.523438 Z M 131.628906 14.277344 " clip-rule="nonzero"/></clipPath><clipPath id="5cfdb4917a"><path d="M 137 45 L 142 45 L 142 59 L 137 59 Z M 137 45 " clip-rule="nonzero"/></clipPath><clipPath id="aae6e1ecd9"><path d="M 186.707031 130.617188 L 97 56.683594 L 131.820312 14.433594 L 221.527344 88.367188 Z M 186.707031 130.617188 " clip-rule="nonzero"/></clipPath><clipPath id="f9a426bbdd"><path d="M 131.628906 14.277344 L 221.339844 88.210938 L 186.515625 130.460938 L 96.808594 56.523438 Z M 131.628906 14.277344 " clip-rule="nonzero"/></clipPath><clipPath id="6b17c7a068"><path d="M 157 49 L 212 49 L 212 113 L 157 113 Z M 157 49 " clip-rule="nonzero"/></clipPath><clipPath id="dd30b6e43f"><path d="M 186.707031 130.617188 L 97 56.683594 L 131.820312 14.433594 L 221.527344 88.367188 Z M 186.707031 130.617188 " clip-rule="nonzero"/></clipPath><clipPath id="658ca1e3f1"><path d="M 131.628906 14.277344 L 221.339844 88.210938 L 186.515625 130.460938 L 96.808594 56.523438 Z M 131.628906 14.277344 " clip-rule="nonzero"/></clipPath></defs><g clip-path="url(#ad504e9d02)"><g clip-path="url(#2a34d8df84)"><g clip-path="url(#b5cedc621a)"><path fill="#fbcb1c" d="M 253.71875 200.488281 C 259.703125 191.359375 276.996094 178.921875 286.347656 184.539062 C 295.714844 190.15625 292.808594 211.246094 287.613281 220.839844 C 275.796875 242.648438 250.566406 244.144531 250.566406 244.144531 C 250.566406 244.144531 240.3125 220.9375 253.71875 200.488281 " fill-opacity="1" fill-rule="nonzero"/></g></g></g><g clip-path="url(#7e94f977de)"><g clip-path="url(#ca02f8d836)"><g clip-path="url(#6e14236fe0)"><path fill="#100f0d" d="M 295.964844 183.605469 L 296.675781 185.304688 L 296.839844 185.234375 C 297.183594 185.09375 298.058594 184.75 299.367188 184.285156 C 304.597656 182.417969 316.765625 178.691406 329.199219 178.820312 C 335.417969 178.882812 341.675781 179.90625 347.195312 182.507812 C 352.714844 185.121094 357.515625 189.269531 360.992188 195.824219 C 362.019531 197.765625 362.792969 199.488281 363.328125 200.988281 C 364.367188 203.890625 364.46875 205.921875 364.121094 207.109375 C 363.953125 207.714844 363.699219 208.128906 363.339844 208.492188 C 362.976562 208.851562 362.484375 209.164062 361.796875 209.40625 C 360.609375 209.835938 358.851562 210.011719 356.699219 209.863281 C 352.933594 209.613281 347.996094 208.40625 342.589844 206.578125 C 326.347656 201.089844 305.757812 190.066406 296.003906 183.679688 L 293.863281 186.683594 C 293.867188 186.683594 294.523438 187.1875 295.675781 188.089844 C 299.71875 191.253906 309.890625 199.285156 319.328125 207.367188 C 324.050781 211.40625 328.589844 215.464844 332.066406 218.910156 C 333.808594 220.628906 335.28125 222.203125 336.367188 223.511719 C 336.90625 224.164062 337.347656 224.757812 337.675781 225.25 C 338.003906 225.75 338.207031 226.15625 338.285156 226.375 L 338.320312 226.492188 L 338.328125 226.53125 L 338.800781 226.46875 L 338.335938 226.398438 L 338.328125 226.53125 L 338.800781 226.46875 L 338.335938 226.398438 L 339.332031 226.546875 L 338.574219 225.886719 C 338.429688 226.050781 338.34375 226.277344 338.335938 226.398438 L 339.332031 226.546875 L 338.574219 225.886719 L 339.203125 226.433594 L 338.917969 225.636719 C 338.871094 225.652344 338.714844 225.726562 338.574219 225.886719 L 339.203125 226.433594 L 338.917969 225.636719 L 339.007812 225.882812 L 338.933594 225.628906 L 338.917969 225.636719 L 339.007812 225.882812 L 338.933594 225.628906 L 338.875 225.640625 C 338.046875 225.726562 336.875 225.671875 335.484375 225.425781 C 330.59375 224.582031 323.132812 221.449219 316.117188 215.976562 C 309.085938 210.503906 302.453125 202.726562 298.847656 192.574219 C 297.984375 190.152344 297.296875 187.597656 296.804688 184.894531 L 294.992188 185.21875 L 296.574219 186.167969 L 297.542969 184.554688 L 295.964844 183.605469 L 296.675781 185.304688 L 295.964844 183.605469 L 294.378906 182.65625 L 293.054688 184.871094 L 293.175781 185.550781 C 293.699219 188.449219 294.445312 191.203125 295.371094 193.808594 C 299.824219 206.320312 308.472656 215.394531 317.074219 221.234375 C 321.382812 224.152344 325.683594 226.273438 329.511719 227.617188 C 331.421875 228.289062 333.21875 228.773438 334.851562 229.0625 C 336.480469 229.34375 337.945312 229.441406 339.25 229.308594 C 339.546875 229.28125 339.847656 229.222656 340.15625 229.113281 C 340.519531 228.984375 340.898438 228.769531 341.226562 228.449219 C 341.722656 227.96875 341.984375 227.261719 342.007812 226.679688 C 342.042969 226.09375 341.921875 225.601562 341.761719 225.136719 C 341.492188 224.394531 341.085938 223.699219 340.566406 222.945312 C 339.597656 221.535156 338.207031 219.933594 336.488281 218.140625 C 330.480469 211.878906 320.425781 203.332031 311.832031 196.289062 C 303.238281 189.257812 296.128906 183.769531 296.121094 183.761719 L 294.992188 185.21875 L 293.980469 186.765625 C 301.664062 191.785156 315.457031 199.390625 328.992188 205.234375 C 335.757812 208.164062 342.453125 210.644531 348.324219 212.132812 C 351.257812 212.878906 353.988281 213.375 356.449219 213.542969 C 358.914062 213.707031 361.125 213.558594 363.035156 212.882812 C 364.125 212.496094 365.128906 211.914062 365.941406 211.105469 C 367.175781 209.894531 367.871094 208.179688 367.972656 206.277344 C 368.082031 204.371094 367.679688 202.230469 366.796875 199.753906 C 366.191406 198.042969 365.34375 196.164062 364.253906 194.097656 C 360.421875 186.847656 354.921875 182.066406 348.765625 179.171875 C 339.527344 174.820312 328.898438 174.574219 319.585938 175.695312 C 310.269531 176.824219 302.226562 179.355469 298.132812 180.8125 C 296.316406 181.457031 295.277344 181.890625 295.246094 181.902344 L 294.691406 182.136719 L 294.378906 182.65625 L 295.964844 183.605469 " fill-opacity="1" fill-rule="nonzero"/></g></g></g><g clip-path="url(#56b4dd3c04)"><g clip-path="url(#678181f83d)"><g clip-path="url(#ece2e455dc)"><path fill="#100f0d" d="M 291.21875 180.757812 L 293.054688 180.574219 C 293.042969 180.476562 292.121094 171.246094 288.238281 160.316406 C 285.589844 152.890625 281.574219 144.660156 275.4375 137.988281 C 269.3125 131.328125 260.960938 126.25 249.996094 125.421875 C 244.578125 125.019531 240.65625 125.285156 237.785156 126.296875 C 236.730469 126.671875 235.808594 127.15625 235.039062 127.792969 C 233.882812 128.734375 233.125 130.054688 232.910156 131.457031 C 232.683594 132.859375 232.921875 134.28125 233.425781 135.703125 C 234.097656 137.585938 235.25 139.515625 236.761719 141.550781 C 239.40625 145.105469 243.171875 148.960938 247.558594 152.910156 C 260.722656 164.75 279.449219 177.382812 289.546875 182.9375 L 290.4375 181.316406 L 291.167969 179.625 C 291.15625 179.621094 278.449219 174.121094 264.855469 168.914062 C 258.058594 166.308594 251.042969 163.777344 245.246094 162.03125 C 242.34375 161.164062 239.753906 160.488281 237.601562 160.097656 C 236.519531 159.902344 235.554688 159.78125 234.679688 159.742188 C 233.800781 159.71875 233.023438 159.753906 232.222656 160.03125 C 231.910156 160.144531 231.582031 160.300781 231.273438 160.546875 C 230.804688 160.902344 230.402344 161.519531 230.292969 162.15625 C 230.175781 162.792969 230.285156 163.363281 230.457031 163.851562 L 230.527344 164.03125 L 230.53125 164.039062 C 231.078125 165.375 231.964844 166.757812 233.144531 168.21875 C 237.277344 173.273438 245.117188 179.234375 255.25 183.019531 C 265.363281 186.792969 277.804688 188.316406 290.816406 184.128906 L 291.476562 183.914062 L 293.117188 181.179688 L 293.054688 180.574219 L 291.21875 180.757812 L 289.632812 179.808594 L 288.667969 181.425781 L 290.25 182.371094 L 289.683594 180.617188 C 275.871094 185.0625 262.753906 182.59375 252.59375 177.929688 C 247.519531 175.589844 243.203125 172.707031 239.972656 169.910156 C 238.363281 168.515625 237.027344 167.144531 236.003906 165.890625 C 234.984375 164.636719 234.289062 163.492188 233.945312 162.644531 L 233.949219 162.652344 L 233.925781 162.585938 L 233.777344 162.632812 L 233.925781 162.609375 L 233.925781 162.585938 L 233.777344 162.632812 L 233.925781 162.609375 L 233.019531 162.734375 L 233.75 163.242188 C 233.921875 163.007812 233.953125 162.679688 233.925781 162.609375 L 233.019531 162.734375 L 233.75 163.242188 L 233.019531 162.734375 L 233.523438 163.46875 L 233.75 163.242188 L 233.019531 162.734375 L 233.523438 163.46875 L 233.246094 163.058594 L 233.464844 163.5 L 233.523438 163.46875 L 233.246094 163.058594 L 233.464844 163.5 L 233.382812 163.339844 L 233.453125 163.503906 L 233.464844 163.5 L 233.382812 163.339844 L 233.453125 163.503906 L 233.460938 163.503906 C 233.511719 163.480469 233.925781 163.402344 234.542969 163.429688 C 235.710938 163.472656 237.554688 163.792969 239.777344 164.34375 C 247.601562 166.28125 260.15625 170.960938 270.664062 175.144531 C 275.921875 177.234375 280.6875 179.203125 284.132812 180.648438 C 285.851562 181.371094 287.25 181.960938 288.210938 182.375 C 289.171875 182.78125 289.703125 183.011719 289.703125 183.011719 L 291.320312 179.703125 C 283.890625 175.625 271.25 167.324219 259.992188 158.496094 C 254.359375 154.074219 249.066406 149.519531 244.933594 145.3125 C 242.871094 143.214844 241.09375 141.199219 239.722656 139.347656 C 238.347656 137.507812 237.382812 135.824219 236.902344 134.464844 C 236.65625 133.785156 236.535156 133.183594 236.511719 132.703125 C 236.492188 131.964844 236.636719 131.519531 236.957031 131.078125 C 237.285156 130.644531 237.902344 130.164062 239.019531 129.765625 C 241.035156 129.039062 244.578125 128.699219 249.714844 129.097656 C 259.675781 129.875 267.054688 134.359375 272.726562 140.488281 C 278.386719 146.621094 282.230469 154.421875 284.761719 161.554688 C 286.628906 166.792969 287.789062 171.667969 288.476562 175.214844 C 288.824219 176.988281 289.050781 178.433594 289.1875 179.421875 C 289.261719 179.921875 289.308594 180.304688 289.339844 180.5625 L 289.371094 180.851562 L 289.382812 180.933594 L 291.21875 180.757812 L 289.632812 179.808594 L 291.21875 180.757812 " fill-opacity="1" fill-rule="nonzero"/></g></g></g><g clip-path="url(#114bb6289f)"><g clip-path="url(#3e441a3ce6)"><g clip-path="url(#e41601622a)"><path fill="#100f0d" d="M 259.117188 201.226562 L 260.910156 202.402344 C 262.664062 199.710938 265.65625 196.519531 269.164062 193.71875 C 272.660156 190.914062 276.683594 188.484375 280.4375 187.148438 C 282.488281 186.421875 284.445312 186.019531 286.175781 186.011719 C 287.90625 185.996094 289.378906 186.355469 290.640625 187.105469 C 291.492188 187.621094 292.222656 188.300781 292.863281 189.167969 C 293.5 190.027344 294.039062 191.078125 294.46875 192.28125 C 295.847656 196.128906 296.011719 201.539062 295.269531 206.808594 C 294.546875 212.066406 292.9375 217.21875 291.121094 220.554688 C 288.085938 226.152344 284.136719 230.324219 279.960938 233.460938 C 275.777344 236.605469 271.367188 238.699219 267.464844 240.085938 C 264.152344 241.265625 261.210938 241.933594 259.113281 242.300781 C 258.0625 242.488281 257.226562 242.59375 256.660156 242.660156 C 256.375 242.691406 256.15625 242.710938 256.019531 242.722656 L 255.867188 242.738281 L 255.835938 242.734375 L 255.832031 242.738281 L 255.960938 244.878906 L 257.921875 244.007812 L 257.910156 244 C 257.871094 243.90625 257.644531 243.363281 257.316406 242.449219 C 256.351562 239.734375 254.554688 233.734375 254.371094 226.425781 C 254.1875 219.101562 255.582031 210.523438 260.90625 202.40625 L 257.324219 200.050781 C 251.40625 209.066406 249.878906 218.597656 250.089844 226.53125 C 250.292969 234.476562 252.210938 240.878906 253.28125 243.886719 C 253.691406 245.046875 253.980469 245.699219 254 245.742188 L 254.601562 247.105469 L 256.082031 247.015625 C 256.222656 247.007812 261.726562 246.671875 268.902344 244.125 C 273.121094 242.625 277.925781 240.347656 282.53125 236.890625 C 287.132812 233.433594 291.535156 228.785156 294.890625 222.589844 C 297.03125 218.617188 298.710938 213.125 299.511719 207.394531 C 300.300781 201.667969 300.222656 195.726562 298.503906 190.847656 C 297.960938 189.316406 297.246094 187.886719 296.3125 186.625 C 295.382812 185.359375 294.222656 184.257812 292.84375 183.433594 C 290.804688 182.207031 288.484375 181.703125 286.136719 181.722656 C 283.789062 181.746094 281.386719 182.269531 279 183.113281 C 274.628906 184.671875 270.289062 187.332031 266.484375 190.375 C 262.683594 193.425781 259.4375 196.835938 257.320312 200.050781 L 259.117188 201.226562 " fill-opacity="1" fill-rule="nonzero"/></g></g></g><g clip-path="url(#3b160c3851)"><g clip-path="url(#88da17cb27)"><g clip-path="url(#30b9024154)"><path fill="#100f0d" d="M 292.085938 165.667969 L 293.402344 166.457031 C 294.714844 164.234375 297.59375 161.921875 300.46875 160.917969 C 301.582031 160.523438 302.683594 160.3125 303.671875 160.328125 C 304.664062 160.339844 305.535156 160.5625 306.285156 161.003906 C 307.3125 161.625 308.097656 162.6875 308.609375 164.117188 C 309.183594 165.71875 309.355469 167.75 309.144531 169.710938 C 308.9375 171.675781 308.339844 173.578125 307.523438 174.929688 C 306.492188 176.636719 304.964844 177.832031 303.226562 178.449219 C 300.984375 179.25 298.429688 179.074219 296.226562 177.757812 C 294.515625 176.730469 293.328125 175.195312 292.703125 173.457031 C 291.910156 171.210938 292.082031 168.65625 293.402344 166.457031 L 292.085938 165.667969 L 290.777344 164.878906 C 288.96875 167.890625 288.726562 171.417969 289.816406 174.484375 C 290.664062 176.863281 292.316406 178.980469 294.644531 180.378906 C 297.660156 182.191406 301.1875 182.429688 304.253906 181.339844 C 306.628906 180.492188 308.75 178.84375 310.148438 176.511719 C 311.253906 174.660156 311.9375 172.382812 312.191406 170.039062 C 312.441406 167.6875 312.261719 165.253906 311.492188 163.09375 C 310.820312 161.1875 309.648438 159.457031 307.859375 158.375 C 306.578125 157.609375 305.140625 157.277344 303.710938 157.257812 C 302.273438 157.242188 300.832031 157.539062 299.441406 158.035156 C 295.871094 159.320312 292.589844 161.894531 290.777344 164.878906 L 292.085938 165.667969 " fill-opacity="1" fill-rule="nonzero"/></g></g></g><g clip-path="url(#24a32ba0f2)"><g clip-path="url(#94a43dd595)"><g clip-path="url(#770442de95)"><path fill="#100f0d" d="M 292.925781 141.609375 L 292.96875 141.53125 L 292.925781 141.609375 L 292.96875 141.53125 L 292.925781 141.609375 C 293.003906 141.648438 294.332031 142.425781 295.929688 144.03125 C 297.53125 145.640625 299.398438 148.078125 300.613281 151.492188 C 301.347656 153.558594 301.84375 155.984375 301.898438 158.824219 L 304.960938 158.769531 C 304.902344 155.601562 304.339844 152.835938 303.496094 150.464844 C 302.058594 146.421875 299.8125 143.550781 297.925781 141.695312 C 296.035156 139.835938 294.5 138.972656 294.40625 138.925781 L 292.925781 141.609375 " fill-opacity="1" fill-rule="nonzero"/></g></g></g><g clip-path="url(#9582d5d6d3)"><g clip-path="url(#0676826d13)"><g clip-path="url(#c87853cda4)"><path fill="#100f0d" d="M 310.261719 163.847656 C 311.273438 163.335938 312.257812 162.914062 313.210938 162.574219 C 318.03125 160.859375 322.148438 161.160156 325.097656 161.878906 C 326.566406 162.238281 327.734375 162.699219 328.527344 163.070312 C 328.921875 163.253906 329.222656 163.410156 329.414062 163.519531 L 329.628906 163.644531 L 329.675781 163.671875 L 331.351562 161.105469 C 331.242188 161.039062 329.214844 159.726562 325.820312 158.898438 C 322.429688 158.070312 317.640625 157.742188 312.183594 159.6875 C 311.101562 160.070312 309.996094 160.546875 308.871094 161.117188 L 310.261719 163.847656 " fill-opacity="1" fill-rule="nonzero"/></g></g></g><g clip-path="url(#560859d5f3)"><g clip-path="url(#8a3382061b)"><g clip-path="url(#b3a63d5b88)"><path fill="#100f0d" d="M 291.265625 180.675781 C 292.277344 179.003906 294.171875 178.300781 295.515625 179.101562 C 296.851562 179.910156 297.128906 181.917969 296.125 183.59375 C 295.121094 185.257812 293.226562 185.960938 291.882812 185.152344 C 290.539062 184.347656 290.261719 182.339844 291.265625 180.675781 " fill-opacity="1" fill-rule="nonzero"/></g></g></g><g clip-path="url(#6453edae69)"><g clip-path="url(#307c920e1c)"><g clip-path="url(#e5d8b07458)"><path fill="#100f0d" d="M 267.769531 191.492188 C 267.863281 191.699219 269.464844 195.117188 273.917969 199.019531 C 278.363281 202.921875 285.667969 207.28125 296.972656 209.390625 L 297.761719 205.175781 C 287.164062 203.191406 280.644531 199.210938 276.742188 195.796875 C 274.792969 194.089844 273.5 192.511719 272.707031 191.394531 C 272.3125 190.832031 272.035156 190.386719 271.871094 190.089844 C 271.789062 189.941406 271.730469 189.832031 271.699219 189.769531 L 271.664062 189.703125 L 271.660156 189.699219 L 270.601562 190.195312 L 271.664062 189.710938 L 271.660156 189.699219 L 270.601562 190.195312 L 271.664062 189.710938 L 267.769531 191.492188 " fill-opacity="1" fill-rule="nonzero"/></g></g></g><g clip-path="url(#80be5e1586)"><g clip-path="url(#1a96c9b294)"><g clip-path="url(#b7fa79fb34)"><path fill="#100f0d" d="M 249.929688 221.207031 C 250.027344 221.414062 251.628906 224.832031 256.082031 228.730469 C 260.53125 232.636719 267.828125 236.992188 279.136719 239.101562 L 279.921875 234.886719 C 269.335938 232.90625 262.808594 228.925781 258.90625 225.511719 C 256.957031 223.800781 255.664062 222.226562 254.867188 221.105469 C 254.476562 220.546875 254.195312 220.097656 254.035156 219.804688 C 253.953125 219.660156 253.894531 219.546875 253.859375 219.484375 L 253.828125 219.417969 L 253.824219 219.414062 L 252.765625 219.910156 L 253.828125 219.425781 L 253.824219 219.414062 L 252.765625 219.910156 L 253.828125 219.425781 L 249.929688 221.207031 " fill-opacity="1" fill-rule="nonzero"/></g></g></g><g clip-path="url(#a906e370b6)"><g clip-path="url(#d9b6024ef6)"><g clip-path="url(#fcde3a935d)"><path fill="#100f0d" d="M 255.0625 204.378906 C 255.203125 204.691406 257.214844 208.953125 262.75 213.804688 C 268.28125 218.660156 277.339844 224.054688 291.304688 226.660156 L 292.488281 220.339844 C 279.59375 217.925781 271.703125 213.09375 266.988281 208.972656 C 264.632812 206.910156 263.082031 205.015625 262.125 203.675781 C 261.65625 203.003906 261.332031 202.472656 261.132812 202.128906 C 261.035156 201.957031 260.972656 201.832031 260.933594 201.757812 L 260.898438 201.691406 L 260.898438 201.6875 L 259.070312 202.542969 L 260.90625 201.707031 L 260.898438 201.6875 L 259.070312 202.542969 L 260.90625 201.707031 L 255.0625 204.378906 " fill-opacity="1" fill-rule="nonzero"/></g></g></g><g clip-path="url(#5d352964d6)"><g clip-path="url(#7ddcbdff59)"><g clip-path="url(#d60332b3f2)"><path fill="#100f0d" d="M 238.457031 262.476562 C 238.914062 266.503906 238.765625 270.503906 238.101562 274.402344 C 237.953125 275.246094 238.523438 276.046875 239.367188 276.191406 C 240.214844 276.335938 241.015625 275.769531 241.160156 274.925781 C 241.871094 270.75 242.027344 266.457031 241.539062 262.125 C 241.441406 261.273438 240.675781 260.664062 239.824219 260.757812 C 238.972656 260.859375 238.359375 261.625 238.457031 262.476562 Z M 234.566406 285.847656 C 232.929688 289.480469 230.84375 292.949219 228.402344 296.1875 C 227.886719 296.875 228.023438 297.847656 228.703125 298.363281 C 229.390625 298.878906 230.363281 298.746094 230.878906 298.0625 C 233.453125 294.644531 235.652344 290.980469 237.394531 287.121094 C 237.742188 286.34375 237.398438 285.421875 236.617188 285.070312 C 235.835938 284.71875 234.921875 285.066406 234.566406 285.847656 Z M 220.179688 305.039062 C 217.152344 307.703125 213.855469 310.078125 210.367188 312.09375 C 209.628906 312.519531 209.375 313.46875 209.800781 314.214844 C 210.226562 314.953125 211.179688 315.207031 211.917969 314.777344 C 215.585938 312.664062 219.050781 310.167969 222.234375 307.367188 C 222.875 306.804688 222.9375 305.816406 222.375 305.179688 C 221.808594 304.53125 220.824219 304.472656 220.179688 305.039062 Z M 199.355469 317.019531 C 195.507812 318.265625 191.550781 319.078125 187.574219 319.386719 C 186.71875 319.457031 186.078125 320.203125 186.144531 321.054688 C 186.214844 321.910156 186.960938 322.546875 187.816406 322.480469 C 192.050781 322.148438 196.246094 321.285156 200.308594 319.972656 C 201.125 319.707031 201.574219 318.828125 201.308594 318.015625 C 201.042969 317.199219 200.171875 316.753906 199.355469 317.019531 Z M 175.683594 318.730469 C 171.855469 317.867188 168.3125 316.140625 165.101562 313.78125 C 164.410156 313.273438 163.441406 313.421875 162.933594 314.113281 C 162.421875 314.800781 162.574219 315.773438 163.261719 316.28125 C 166.765625 318.855469 170.703125 320.789062 175 321.757812 C 175.839844 321.941406 176.671875 321.421875 176.855469 320.582031 C 177.042969 319.75 176.519531 318.917969 175.683594 318.730469 Z M 156.746094 305.308594 C 154.351562 302.066406 152.367188 298.488281 150.855469 294.84375 C 150.527344 294.050781 149.621094 293.675781 148.828125 294.007812 C 148.039062 294.328125 147.660156 295.238281 147.988281 296.03125 C 149.589844 299.902344 151.695312 303.691406 154.25 307.152344 C 154.761719 307.839844 155.726562 307.984375 156.421875 307.480469 C 157.109375 306.96875 157.253906 305.996094 156.746094 305.308594 Z M 147.722656 283.296875 C 147.171875 278.875 147.515625 274.855469 148.746094 271.839844 C 149.066406 271.046875 148.679688 270.140625 147.882812 269.820312 C 147.089844 269.5 146.1875 269.878906 145.867188 270.671875 C 144.371094 274.378906 144.054688 278.878906 144.640625 283.679688 C 144.746094 284.527344 145.523438 285.132812 146.375 285.03125 C 147.222656 284.925781 147.824219 284.148438 147.722656 283.296875 Z M 156.773438 265.597656 C 158.488281 265.402344 160.519531 265.53125 162.882812 266.085938 C 164.84375 266.542969 166.542969 267.121094 168.003906 267.789062 C 168.78125 268.148438 169.707031 267.808594 170.058594 267.027344 C 170.421875 266.25 170.078125 265.332031 169.300781 264.972656 C 167.617188 264.199219 165.71875 263.5625 163.585938 263.0625 C 160.945312 262.449219 158.5625 262.273438 156.421875 262.515625 C 155.570312 262.617188 154.957031 263.386719 155.054688 264.238281 C 155.15625 265.089844 155.925781 265.699219 156.773438 265.597656 Z M 175.464844 275.578125 C 176.484375 278.738281 176.296875 282.609375 175.097656 286.898438 C 174.871094 287.722656 175.351562 288.578125 176.179688 288.8125 C 177.003906 289.039062 177.863281 288.554688 178.09375 287.730469 C 179.378906 283.078125 179.691406 278.605469 178.417969 274.628906 C 178.15625 273.8125 177.285156 273.367188 176.46875 273.628906 C 175.648438 273.886719 175.203125 274.761719 175.464844 275.578125 Z M 170.414062 297.992188 C 168.542969 301.433594 166.308594 304.929688 163.878906 308.335938 C 163.378906 309.03125 163.539062 310.003906 164.238281 310.5 C 164.9375 310.996094 165.902344 310.832031 166.40625 310.136719 C 168.890625 306.644531 171.195312 303.054688 173.140625 299.480469 C 173.550781 298.726562 173.269531 297.785156 172.519531 297.375 C 171.769531 296.96875 170.828125 297.242188 170.414062 297.992188 Z M 156.300781 318.015625 C 153.492188 321.3125 150.640625 324.375 147.957031 327.058594 C 147.351562 327.664062 147.347656 328.648438 147.953125 329.253906 C 148.558594 329.859375 149.542969 329.859375 150.148438 329.253906 C 152.894531 326.507812 155.796875 323.386719 158.660156 320.027344 C 159.21875 319.375 159.136719 318.394531 158.488281 317.835938 C 157.828125 317.28125 156.855469 317.363281 156.300781 318.015625 Z M 138.839844 335.191406 C 137.800781 335.972656 136.890625 336.585938 136.167969 336.996094 C 133.59375 338.457031 130.964844 339.800781 128.285156 341.023438 C 127.503906 341.378906 127.164062 342.296875 127.519531 343.082031 C 127.871094 343.859375 128.796875 344.203125 129.574219 343.84375 C 132.332031 342.585938 135.046875 341.199219 137.703125 339.695312 C 138.59375 339.183594 139.59375 338.507812 140.707031 337.667969 C 141.394531 337.152344 141.527344 336.179688 141.011719 335.492188 C 140.496094 334.8125 139.527344 334.675781 138.839844 335.191406 Z M 116.878906 345.402344 C 112.96875 346.640625 109.003906 347.617188 105.027344 348.34375 C 104.183594 348.496094 103.625 349.300781 103.777344 350.144531 C 103.929688 350.988281 104.738281 351.546875 105.582031 351.394531 C 109.6875 350.648438 113.777344 349.636719 117.8125 348.367188 C 118.628906 348.105469 119.082031 347.234375 118.828125 346.417969 C 118.566406 345.597656 117.695312 345.148438 116.878906 345.402344 Z M 92.910156 349.71875 C 88.808594 349.90625 84.734375 349.804688 80.738281 349.398438 C 79.886719 349.3125 79.121094 349.933594 79.035156 350.785156 C 78.957031 351.640625 79.574219 352.402344 80.425781 352.488281 C 84.582031 352.90625 88.800781 353.011719 93.050781 352.816406 C 93.90625 352.777344 94.566406 352.050781 94.53125 351.199219 C 94.492188 350.34375 93.765625 349.679688 92.910156 349.71875 Z M 68.785156 347.21875 C 64.859375 346.160156 61.058594 344.769531 57.425781 343.035156 C 56.652344 342.667969 55.722656 343 55.355469 343.769531 C 54.984375 344.542969 55.316406 345.464844 56.089844 345.835938 C 59.898438 347.652344 63.875 349.105469 67.980469 350.214844 C 68.808594 350.4375 69.660156 349.949219 69.882812 349.121094 C 70.109375 348.296875 69.617188 347.441406 68.785156 347.21875 Z M 47.082031 336.792969 C 43.902344 334.410156 40.933594 331.691406 38.210938 328.613281 C 37.644531 327.96875 36.667969 327.910156 36.023438 328.476562 C 35.382812 329.046875 35.324219 330.023438 35.890625 330.667969 C 38.746094 333.902344 41.878906 336.773438 45.222656 339.28125 C 45.90625 339.792969 46.878906 339.652344 47.394531 338.96875 C 47.90625 338.277344 47.769531 337.308594 47.082031 336.792969 Z M 31.074219 318.8125 C 28.824219 315.144531 27.015625 311.535156 25.609375 307.984375 C 25.296875 307.191406 24.394531 306.796875 23.597656 307.109375 C 22.800781 307.429688 22.414062 308.328125 22.726562 309.128906 C 24.199219 312.855469 26.097656 316.625 28.433594 320.4375 C 28.875 321.164062 29.832031 321.398438 30.5625 320.949219 C 31.296875 320.5 31.523438 319.542969 31.074219 318.8125 Z M 22.40625 296.386719 C 21.765625 292.332031 21.652344 288.34375 22.019531 284.410156 C 22.097656 283.554688 21.46875 282.796875 20.613281 282.71875 C 19.765625 282.640625 19.007812 283.265625 18.925781 284.121094 C 18.535156 288.304688 18.660156 292.554688 19.335938 296.863281 C 19.46875 297.714844 20.261719 298.289062 21.109375 298.160156 C 21.960938 298.027344 22.535156 297.234375 22.40625 296.386719 Z M 24.550781 272.660156 C 25.804688 268.953125 27.476562 265.28125 29.53125 261.644531 C 29.957031 260.894531 29.695312 259.949219 28.949219 259.527344 C 28.203125 259.109375 27.257812 259.371094 26.832031 260.117188 C 24.6875 263.90625 22.933594 267.753906 21.609375 271.671875 C 21.335938 272.480469 21.773438 273.359375 22.582031 273.640625 C 23.394531 273.914062 24.277344 273.472656 24.550781 272.660156 Z M 36.300781 251.515625 C 38.707031 248.394531 41.378906 245.308594 44.289062 242.238281 C 44.886719 241.621094 44.859375 240.636719 44.238281 240.046875 C 43.621094 239.457031 42.636719 239.484375 42.046875 240.101562 C 39.0625 243.234375 36.324219 246.410156 33.84375 249.625 C 33.324219 250.300781 33.445312 251.277344 34.128906 251.796875 C 34.804688 252.324219 35.78125 252.195312 36.300781 251.515625 Z M 53.125 233.691406 C 54.570312 232.390625 56.058594 231.09375 57.582031 229.804688 C 58.242188 229.253906 58.320312 228.273438 57.769531 227.621094 C 57.214844 226.964844 56.234375 226.882812 55.582031 227.433594 C 54.03125 228.742188 52.515625 230.0625 51.046875 231.386719 C 50.410156 231.957031 50.355469 232.9375 50.929688 233.574219 C 51.503906 234.214844 52.484375 234.265625 53.125 233.691406 " fill-opacity="1" fill-rule="nonzero"/></g></g></g><g clip-path="url(#9d64bdebb0)"><g clip-path="url(#fcf87d8615)"><g clip-path="url(#b6aa488ef1)"><path fill="#fbcb1c" d="M 138.867188 59.742188 C 135.351562 59.601562 129.054688 56.882812 129.058594 53.367188 C 129.058594 49.851562 135.367188 47.164062 138.878906 47.011719 C 146.859375 46.667969 151.449219 53.390625 151.449219 53.390625 C 151.449219 53.390625 146.734375 60.0625 138.867188 59.742188 " fill-opacity="1" fill-rule="nonzero"/></g></g></g><g clip-path="url(#5e98b645ac)"><g clip-path="url(#cbe1860b34)"><g clip-path="url(#6de2979b69)"><path fill="#100f0d" d="M 127.207031 50.863281 L 127.5625 50.386719 L 127.515625 50.351562 C 127.417969 50.28125 127.175781 50.097656 126.832031 49.8125 C 125.453125 48.675781 122.40625 45.929688 120.386719 42.472656 C 119.375 40.746094 118.621094 38.847656 118.425781 36.890625 C 118.234375 34.933594 118.585938 32.917969 119.820312 30.875 C 120.1875 30.269531 120.539062 29.769531 120.863281 29.375 C 121.492188 28.605469 122.039062 28.242188 122.421875 28.140625 C 122.617188 28.089844 122.773438 28.089844 122.933594 28.128906 C 123.09375 28.167969 123.261719 28.253906 123.441406 28.402344 C 123.757812 28.660156 124.097656 29.117188 124.410156 29.734375 C 124.96875 30.820312 125.449219 32.382812 125.839844 34.179688 C 127.011719 39.574219 127.371094 47.089844 127.222656 50.84375 L 128.40625 50.9375 C 128.40625 50.933594 128.4375 50.671875 128.496094 50.203125 C 128.699219 48.5625 129.234375 44.421875 129.90625 40.476562 C 130.242188 38.503906 130.613281 36.578125 130.988281 35.046875 C 131.175781 34.28125 131.367188 33.613281 131.546875 33.09375 C 131.640625 32.839844 131.730469 32.617188 131.8125 32.445312 C 131.894531 32.273438 131.976562 32.148438 132.023438 32.09375 L 132.050781 32.0625 L 132.058594 32.054688 L 131.960938 31.933594 L 132.019531 32.074219 L 132.058594 32.054688 L 131.960938 31.933594 L 132.019531 32.074219 L 131.894531 31.773438 L 131.839844 32.09375 C 131.910156 32.105469 131.984375 32.09375 132.019531 32.074219 L 131.894531 31.773438 L 131.839844 32.09375 L 131.886719 31.828125 L 131.714844 32.039062 C 131.726562 32.050781 131.773438 32.082031 131.839844 32.09375 L 131.886719 31.828125 L 131.714844 32.039062 L 131.765625 31.972656 L 131.707031 32.035156 L 131.714844 32.039062 L 131.765625 31.972656 L 131.707031 32.035156 L 131.722656 32.050781 C 131.882812 32.265625 132.0625 32.597656 132.222656 33.023438 C 132.800781 34.515625 133.167969 37.09375 132.816406 39.9375 C 132.46875 42.789062 131.417969 45.90625 129.210938 48.582031 C 128.683594 49.222656 128.089844 49.835938 127.425781 50.417969 L 127.816406 50.867188 L 127.816406 50.273438 L 127.210938 50.273438 L 127.207031 50.863281 L 127.5625 50.386719 L 127.207031 50.863281 L 127.207031 51.460938 L 128.039062 51.460938 L 128.207031 51.3125 C 128.921875 50.6875 129.558594 50.027344 130.125 49.339844 C 132.847656 46.039062 133.921875 42.148438 134.113281 38.804688 C 134.207031 37.128906 134.082031 35.589844 133.816406 34.3125 C 133.6875 33.671875 133.523438 33.09375 133.332031 32.597656 C 133.140625 32.097656 132.925781 31.679688 132.671875 31.339844 C 132.617188 31.261719 132.550781 31.1875 132.46875 31.121094 C 132.375 31.042969 132.253906 30.972656 132.109375 30.9375 C 131.894531 30.878906 131.65625 30.921875 131.492188 31.011719 C 131.324219 31.101562 131.207031 31.214844 131.105469 31.335938 C 130.945312 31.535156 130.820312 31.761719 130.695312 32.027344 C 130.46875 32.53125 130.253906 33.179688 130.042969 33.949219 C 129.308594 36.648438 128.609375 40.839844 128.085938 44.382812 C 127.566406 47.917969 127.226562 50.792969 127.226562 50.796875 L 127.816406 50.867188 L 128.410156 50.890625 C 128.527344 47.9375 128.34375 42.867188 127.71875 38.160156 C 127.410156 35.804688 126.984375 33.542969 126.425781 31.675781 C 126.144531 30.742188 125.832031 29.90625 125.46875 29.195312 C 125.109375 28.488281 124.699219 27.902344 124.199219 27.484375 C 123.910156 27.25 123.585938 27.066406 123.226562 26.976562 C 122.6875 26.835938 122.097656 26.929688 121.554688 27.214844 C 121.011719 27.5 120.484375 27.964844 119.949219 28.621094 C 119.574219 29.070312 119.195312 29.613281 118.804688 30.257812 C 117.4375 32.515625 117.027344 34.828125 117.246094 37.007812 C 117.570312 40.28125 119.261719 43.257812 121.113281 45.648438 C 122.96875 48.035156 124.996094 49.835938 126.078125 50.726562 C 126.558594 51.121094 126.847656 51.339844 126.855469 51.34375 L 127.011719 51.460938 L 127.207031 51.460938 L 127.207031 50.863281 " fill-opacity="1" fill-rule="nonzero"/></g></g></g><g clip-path="url(#3c88d3da89)"><g clip-path="url(#756e770ddf)"><g clip-path="url(#c675a34974)"><path fill="#100f0d" d="M 127.207031 52.648438 L 126.851562 52.171875 C 126.828125 52.1875 124.429688 53.972656 122.050781 56.851562 C 120.4375 58.816406 118.828125 61.285156 118 64.085938 C 117.175781 66.882812 117.152344 70.03125 118.738281 73.195312 C 119.523438 74.761719 120.246094 75.800781 121.003906 76.425781 C 121.28125 76.65625 121.566406 76.828125 121.871094 76.9375 C 122.320312 77.101562 122.8125 77.089844 123.234375 76.917969 C 123.660156 76.75 124.011719 76.449219 124.324219 76.074219 C 124.730469 75.578125 125.074219 74.9375 125.386719 74.183594 C 125.929688 72.863281 126.371094 71.1875 126.738281 69.320312 C 127.832031 63.722656 128.222656 56.457031 128.085938 52.75 L 127.492188 52.769531 L 126.902344 52.847656 C 126.902344 52.851562 127.488281 57.273438 128.296875 61.890625 C 128.703125 64.203125 129.164062 66.558594 129.640625 68.449219 C 129.882812 69.394531 130.125 70.222656 130.371094 70.882812 C 130.496094 71.214844 130.625 71.5 130.757812 71.75 C 130.898438 71.996094 131.035156 72.203125 131.246094 72.378906 C 131.328125 72.449219 131.425781 72.511719 131.542969 72.554688 C 131.71875 72.628906 131.957031 72.636719 132.152344 72.5625 C 132.347656 72.488281 132.484375 72.363281 132.59375 72.234375 L 132.628906 72.1875 L 132.632812 72.183594 C 132.910156 71.8125 133.144531 71.335938 133.355469 70.769531 C 134.066406 68.789062 134.417969 65.636719 133.785156 62.210938 C 133.15625 58.792969 131.515625 55.101562 128.207031 52.199219 L 128.035156 52.054688 L 127.007812 52.054688 L 126.851562 52.171875 L 127.207031 52.648438 L 127.207031 53.242188 L 127.8125 53.242188 L 127.8125 52.648438 L 127.421875 53.09375 C 130.9375 56.175781 132.425781 60.207031 132.816406 63.789062 C 133.011719 65.578125 132.929688 67.246094 132.691406 68.601562 C 132.574219 69.277344 132.414062 69.875 132.238281 70.367188 C 132.058594 70.855469 131.859375 71.234375 131.679688 71.472656 L 131.683594 71.46875 L 131.667969 71.484375 L 131.707031 71.519531 L 131.675781 71.480469 L 131.667969 71.484375 L 131.707031 71.519531 L 131.675781 71.480469 L 131.859375 71.710938 L 131.878906 71.425781 C 131.785156 71.417969 131.691406 71.464844 131.675781 71.480469 L 131.859375 71.710938 L 131.878906 71.425781 L 131.859375 71.710938 L 131.980469 71.449219 L 131.878906 71.425781 L 131.859375 71.710938 L 131.980469 71.449219 L 131.910156 71.59375 L 131.996094 71.460938 L 131.980469 71.449219 L 131.910156 71.59375 L 131.996094 71.460938 L 131.96875 71.511719 L 132 71.464844 L 131.996094 71.460938 L 131.96875 71.511719 L 132 71.464844 C 131.984375 71.453125 131.894531 71.351562 131.800781 71.175781 C 131.617188 70.847656 131.402344 70.28125 131.1875 69.578125 C 130.425781 67.09375 129.640625 62.851562 129.058594 59.257812 C 128.765625 57.457031 128.519531 55.816406 128.351562 54.625 C 128.265625 54.027344 128.195312 53.542969 128.152344 53.210938 C 128.105469 52.878906 128.082031 52.691406 128.082031 52.691406 L 126.898438 52.792969 C 127 55.523438 126.800781 60.386719 126.222656 64.960938 C 125.933594 67.246094 125.550781 69.464844 125.074219 71.304688 C 124.835938 72.222656 124.570312 73.046875 124.289062 73.730469 C 124.007812 74.414062 123.703125 74.960938 123.40625 75.316406 C 123.257812 75.5 123.113281 75.628906 122.984375 75.71875 C 122.78125 75.84375 122.636719 75.878906 122.460938 75.863281 C 122.285156 75.84375 122.050781 75.753906 121.757812 75.511719 C 121.222656 75.074219 120.542969 74.152344 119.800781 72.664062 C 118.367188 69.785156 118.386719 67.003906 119.140625 64.421875 C 119.898438 61.84375 121.417969 59.488281 122.96875 57.609375 C 124.109375 56.226562 125.261719 55.101562 126.128906 54.324219 C 126.5625 53.933594 126.921875 53.632812 127.175781 53.429688 C 127.300781 53.328125 127.398438 53.25 127.464844 53.199219 L 127.539062 53.140625 L 127.558594 53.125 L 127.207031 52.648438 L 127.207031 53.242188 L 127.207031 52.648438 " fill-opacity="1" fill-rule="nonzero"/></g></g></g><g clip-path="url(#5f18004c1c)"><g clip-path="url(#5e2ee96254)"><g clip-path="url(#0682872b0f)"><path fill="#100f0d" d="M 138.175781 58.128906 L 138.203125 57.441406 C 137.171875 57.402344 135.792969 57.101562 134.4375 56.597656 C 133.085938 56.09375 131.75 55.386719 130.757812 54.570312 C 130.21875 54.125 129.78125 53.648438 129.492188 53.171875 C 129.203125 52.695312 129.058594 52.230469 129.058594 51.757812 C 129.058594 51.4375 129.125 51.121094 129.257812 50.800781 C 129.390625 50.484375 129.59375 50.160156 129.855469 49.84375 C 130.6875 48.824219 132.15625 47.882812 133.734375 47.214844 C 135.308594 46.546875 137 46.136719 138.21875 46.085938 C 140.269531 46 142.074219 46.402344 143.632812 47.035156 C 145.195312 47.671875 146.503906 48.542969 147.53125 49.390625 C 148.40625 50.113281 149.078125 50.8125 149.527344 51.332031 C 149.75 51.59375 149.921875 51.804688 150.03125 51.949219 C 150.085938 52.023438 150.128906 52.082031 150.15625 52.117188 L 150.183594 52.15625 L 150.1875 52.167969 L 150.191406 52.167969 L 150.761719 51.777344 L 150.195312 51.378906 L 150.195312 51.382812 C 150.175781 51.410156 150.0625 51.5625 149.863281 51.804688 C 149.273438 52.519531 147.914062 54.011719 145.925781 55.269531 C 143.933594 56.535156 141.332031 57.566406 138.207031 57.441406 L 138.148438 58.820312 C 141.617188 58.960938 144.503906 57.808594 146.664062 56.4375 C 148.824219 55.066406 150.277344 53.476562 150.929688 52.683594 C 151.183594 52.375 151.316406 52.1875 151.324219 52.175781 L 151.601562 51.785156 L 151.332031 51.390625 C 151.304688 51.351562 150.300781 49.886719 148.410156 48.328125 C 147.296875 47.410156 145.875 46.457031 144.15625 45.757812 C 142.4375 45.058594 140.425781 44.613281 138.160156 44.710938 C 136.707031 44.777344 134.910156 45.21875 133.195312 45.945312 C 131.480469 46.675781 129.851562 47.679688 128.789062 48.964844 C 128.457031 49.367188 128.179688 49.800781 127.984375 50.269531 C 127.789062 50.734375 127.675781 51.238281 127.675781 51.757812 C 127.675781 52.519531 127.921875 53.246094 128.316406 53.890625 C 128.710938 54.539062 129.25 55.113281 129.878906 55.632812 C 131.035156 56.582031 132.488281 57.34375 133.957031 57.890625 C 135.429688 58.4375 136.910156 58.769531 138.148438 58.820312 L 138.175781 58.128906 " fill-opacity="1" fill-rule="nonzero"/></g></g></g><g clip-path="url(#5507fc82ba)"><g clip-path="url(#badab5c01e)"><g clip-path="url(#3b23c2c26e)"><path fill="#100f0d" d="M 122.894531 54.90625 L 122.894531 54.410156 C 122.0625 54.417969 120.945312 54.003906 120.195312 53.375 C 119.902344 53.132812 119.660156 52.863281 119.5 52.585938 C 119.339844 52.3125 119.257812 52.035156 119.253906 51.753906 C 119.257812 51.367188 119.421875 50.972656 119.730469 50.597656 C 120.078125 50.171875 120.609375 49.789062 121.1875 49.523438 C 121.765625 49.253906 122.390625 49.105469 122.898438 49.105469 C 123.539062 49.109375 124.125 49.332031 124.582031 49.710938 C 125.175781 50.199219 125.550781 50.933594 125.546875 51.761719 C 125.546875 52.402344 125.320312 52.984375 124.945312 53.445312 C 124.457031 54.035156 123.722656 54.410156 122.894531 54.410156 L 122.894531 54.90625 L 122.890625 55.398438 C 124.023438 55.398438 125.039062 54.882812 125.707031 54.074219 C 126.222656 53.445312 126.535156 52.636719 126.535156 51.761719 C 126.539062 50.628906 126.019531 49.617188 125.210938 48.949219 C 124.582031 48.433594 123.777344 48.121094 122.902344 48.121094 C 122.207031 48.121094 121.464844 48.308594 120.773438 48.625 C 120.082031 48.945312 119.441406 49.398438 118.96875 49.96875 C 118.554688 50.46875 118.269531 51.078125 118.269531 51.753906 C 118.269531 52.234375 118.414062 52.6875 118.648438 53.085938 C 118.878906 53.484375 119.199219 53.832031 119.566406 54.136719 C 120.515625 54.910156 121.769531 55.390625 122.890625 55.398438 L 122.894531 54.90625 " fill-opacity="1" fill-rule="nonzero"/></g></g></g><g clip-path="url(#b64a95282c)"><g clip-path="url(#09db9231a4)"><g clip-path="url(#06a9e39eab)"><path fill="#100f0d" d="M 116.105469 58.65625 L 116.078125 58.65625 L 116.105469 58.65625 L 116.078125 58.65625 L 116.105469 58.65625 C 116.105469 58.625 116.101562 58.132812 116.277344 57.425781 C 116.457031 56.714844 116.824219 55.796875 117.566406 54.894531 C 118.015625 54.351562 118.601562 53.8125 119.378906 53.328125 L 118.855469 52.488281 C 117.992188 53.03125 117.320312 53.644531 116.804688 54.269531 C 115.925781 55.335938 115.503906 56.429688 115.304688 57.257812 C 115.101562 58.089844 115.117188 58.65625 115.121094 58.691406 L 116.105469 58.65625 " fill-opacity="1" fill-rule="nonzero"/></g></g></g><g clip-path="url(#a321c09769)"><g clip-path="url(#ecb223e8c5)"><g clip-path="url(#9bd0cb3f71)"><path fill="#100f0d" d="M 119.382812 50.183594 C 119.074219 49.988281 118.796875 49.789062 118.542969 49.578125 C 117.273438 48.53125 116.671875 47.34375 116.382812 46.410156 C 116.238281 45.945312 116.175781 45.546875 116.144531 45.265625 C 116.128906 45.125 116.125 45.015625 116.121094 44.945312 L 116.121094 44.847656 L 115.136719 44.8125 C 115.132812 44.851562 115.105469 45.628906 115.441406 46.703125 C 115.773438 47.777344 116.476562 49.15625 117.914062 50.34375 C 118.199219 50.578125 118.515625 50.804688 118.859375 51.019531 L 119.382812 50.183594 " fill-opacity="1" fill-rule="nonzero"/></g></g></g><g clip-path="url(#7b6937d70f)"><g clip-path="url(#6df3e4c067)"><g clip-path="url(#4173ce4eb4)"><path fill="#100f0d" d="M 127.175781 52.648438 C 126.546875 52.644531 126.039062 52.238281 126.039062 51.734375 C 126.039062 51.230469 126.550781 50.820312 127.179688 50.820312 C 127.804688 50.824219 128.3125 51.230469 128.3125 51.738281 C 128.3125 52.242188 127.804688 52.648438 127.175781 52.648438 " fill-opacity="1" fill-rule="nonzero"/></g></g></g><g clip-path="url(#8219e32616)"><g clip-path="url(#74f9b5858f)"><g clip-path="url(#c19d74729a)"><path fill="#100f0d" d="M 134.054688 57.351562 C 134.097656 57.289062 134.777344 56.28125 135.117188 54.40625 C 135.460938 52.53125 135.457031 49.792969 134.167969 46.316406 L 132.871094 46.796875 C 134.078125 50.054688 134.054688 52.515625 133.757812 54.160156 C 133.609375 54.980469 133.386719 55.597656 133.210938 56.003906 C 133.121094 56.203125 133.042969 56.355469 132.988281 56.449219 C 132.960938 56.496094 132.941406 56.53125 132.929688 56.550781 L 132.914062 56.570312 L 133.226562 56.78125 L 132.917969 56.570312 L 132.914062 56.570312 L 133.226562 56.78125 L 132.917969 56.570312 L 134.054688 57.351562 " fill-opacity="1" fill-rule="nonzero"/></g></g></g><g clip-path="url(#c0aa5e30b8)"><g clip-path="url(#dbd6b69262)"><g clip-path="url(#fc9aac02ca)"><path fill="#100f0d" d="M 145.21875 57.359375 C 145.257812 57.300781 145.9375 56.292969 146.277344 54.417969 C 146.621094 52.539062 146.617188 49.804688 145.328125 46.328125 L 144.035156 46.808594 C 145.238281 50.0625 145.21875 52.527344 144.921875 54.167969 C 144.773438 54.992188 144.550781 55.609375 144.371094 56.015625 C 144.285156 56.214844 144.203125 56.367188 144.152344 56.460938 C 144.125 56.507812 144.101562 56.539062 144.089844 56.5625 L 144.078125 56.582031 L 144.390625 56.792969 L 144.082031 56.578125 L 144.078125 56.582031 L 144.390625 56.792969 L 144.082031 56.578125 L 145.21875 57.359375 " fill-opacity="1" fill-rule="nonzero"/></g></g></g><g clip-path="url(#5cfdb4917a)"><g clip-path="url(#aae6e1ecd9)"><g clip-path="url(#f9a426bbdd)"><path fill="#100f0d" d="M 139.71875 58.730469 C 139.78125 58.636719 140.625 57.378906 141.050781 55.042969 C 141.476562 52.710938 141.46875 49.316406 139.878906 45.027344 L 137.933594 45.746094 C 139.402344 49.707031 139.371094 52.6875 139.015625 54.671875 C 138.832031 55.664062 138.566406 56.40625 138.355469 56.894531 C 138.246094 57.132812 138.152344 57.3125 138.09375 57.425781 C 138.0625 57.480469 138.035156 57.515625 138.023438 57.539062 L 138.011719 57.5625 L 138.007812 57.5625 L 138.546875 57.925781 L 138.011719 57.554688 L 138.007812 57.5625 L 138.546875 57.925781 L 138.011719 57.554688 L 139.71875 58.730469 " fill-opacity="1" fill-rule="nonzero"/></g></g></g><g clip-path="url(#6b17c7a068)"><g clip-path="url(#dd30b6e43f)"><g clip-path="url(#658ca1e3f1)"><path fill="#100f0d" d="M 158.519531 53.703125 C 159.558594 52.910156 160.6875 52.289062 161.875 51.824219 C 162.132812 51.726562 162.257812 51.4375 162.160156 51.179688 C 162.058594 50.921875 161.769531 50.792969 161.511719 50.894531 C 160.242188 51.386719 159.03125 52.054688 157.914062 52.90625 C 157.695312 53.074219 157.652344 53.386719 157.820312 53.609375 C 157.988281 53.828125 158.300781 53.871094 158.519531 53.703125 Z M 165.621094 50.90625 C 166.898438 50.761719 168.199219 50.761719 169.5 50.898438 C 169.773438 50.929688 170.019531 50.730469 170.050781 50.457031 C 170.078125 50.183594 169.882812 49.933594 169.605469 49.90625 C 168.238281 49.757812 166.859375 49.757812 165.507812 49.914062 C 165.234375 49.949219 165.035156 50.195312 165.066406 50.46875 C 165.101562 50.746094 165.347656 50.941406 165.621094 50.90625 Z M 173.304688 51.707031 C 174.542969 52.101562 175.746094 52.621094 176.878906 53.25 C 177.121094 53.386719 177.421875 53.296875 177.558594 53.058594 C 177.691406 52.816406 177.605469 52.511719 177.363281 52.378906 C 176.171875 51.714844 174.910156 51.171875 173.609375 50.753906 C 173.347656 50.671875 173.066406 50.816406 172.980469 51.078125 C 172.894531 51.339844 173.042969 51.625 173.304688 51.707031 Z M 180.0625 55.480469 C 181.042969 56.335938 181.921875 57.296875 182.667969 58.34375 C 182.828125 58.566406 183.140625 58.621094 183.363281 58.460938 C 183.589844 58.300781 183.640625 57.988281 183.480469 57.765625 C 182.6875 56.648438 181.757812 55.632812 180.722656 54.726562 C 180.511719 54.546875 180.195312 54.566406 180.015625 54.773438 C 179.832031 54.984375 179.855469 55.296875 180.0625 55.480469 Z M 184.453125 61.738281 C 184.847656 62.9375 184.957031 64.203125 184.835938 65.480469 C 184.8125 65.753906 185.015625 66 185.289062 66.023438 C 185.5625 66.050781 185.808594 65.847656 185.832031 65.574219 C 185.964844 64.179688 185.847656 62.773438 185.402344 61.425781 C 185.316406 61.160156 185.035156 61.019531 184.773438 61.105469 C 184.511719 61.191406 184.367188 61.476562 184.453125 61.738281 Z M 183.878906 69.191406 C 183.378906 70.390625 182.71875 71.53125 181.960938 72.550781 C 181.796875 72.773438 181.84375 73.085938 182.066406 73.25 C 182.285156 73.414062 182.601562 73.367188 182.765625 73.148438 C 183.570312 72.0625 184.269531 70.855469 184.800781 69.574219 C 184.90625 69.320312 184.789062 69.03125 184.53125 68.921875 C 184.277344 68.816406 183.984375 68.9375 183.878906 69.191406 Z M 179.289062 75.328125 C 178.160156 76.210938 176.992188 76.78125 175.957031 76.941406 C 175.683594 76.984375 175.496094 77.242188 175.539062 77.511719 C 175.582031 77.785156 175.835938 77.972656 176.109375 77.929688 C 177.378906 77.730469 178.675781 77.070312 179.90625 76.117188 C 180.125 75.945312 180.160156 75.632812 179.992188 75.414062 C 179.824219 75.195312 179.507812 75.15625 179.289062 75.328125 Z M 172.902344 75.753906 C 172.5625 75.3125 172.265625 74.730469 172.023438 73.988281 C 171.828125 73.371094 171.707031 72.804688 171.648438 72.289062 C 171.621094 72.015625 171.371094 71.816406 171.097656 71.847656 C 170.824219 71.875 170.625 72.125 170.65625 72.398438 C 170.71875 72.992188 170.859375 73.621094 171.074219 74.292969 C 171.339844 75.125 171.6875 75.8125 172.109375 76.363281 C 172.277344 76.582031 172.589844 76.625 172.8125 76.457031 C 173.027344 76.285156 173.070312 75.972656 172.902344 75.753906 Z M 172.566406 68.9375 C 173.269531 68.136719 174.371094 67.546875 175.753906 67.167969 C 176.019531 67.09375 176.175781 66.816406 176.105469 66.550781 C 176.03125 66.285156 175.753906 66.128906 175.488281 66.203125 C 173.992188 66.617188 172.703125 67.269531 171.816406 68.28125 C 171.632812 68.488281 171.652344 68.800781 171.863281 68.984375 C 172.070312 69.167969 172.382812 69.144531 172.566406 68.9375 Z M 179.597656 66.625 C 180.855469 66.570312 182.191406 66.613281 183.535156 66.71875 C 183.8125 66.742188 184.050781 66.535156 184.074219 66.261719 C 184.09375 65.984375 183.890625 65.746094 183.613281 65.722656 C 182.238281 65.613281 180.867188 65.570312 179.554688 65.625 C 179.277344 65.636719 179.066406 65.871094 179.074219 66.144531 C 179.089844 66.421875 179.320312 66.636719 179.597656 66.625 Z M 187.464844 67.210938 C 188.839844 67.441406 190.15625 67.722656 191.34375 68.019531 C 191.613281 68.085938 191.882812 67.925781 191.953125 67.65625 C 192.019531 67.390625 191.855469 67.117188 191.585938 67.050781 C 190.375 66.746094 189.03125 66.460938 187.628906 66.226562 C 187.355469 66.179688 187.101562 66.367188 187.054688 66.636719 C 187.007812 66.910156 187.191406 67.167969 187.464844 67.210938 Z M 195.101562 69.191406 C 195.488281 69.351562 195.808594 69.5 196.042969 69.632812 C 196.871094 70.101562 197.675781 70.605469 198.457031 71.144531 C 198.6875 71.300781 198.996094 71.242188 199.15625 71.015625 C 199.3125 70.789062 199.253906 70.476562 199.023438 70.320312 C 198.21875 69.765625 197.386719 69.246094 196.53125 68.761719 C 196.242188 68.601562 195.890625 68.433594 195.476562 68.265625 C 195.21875 68.164062 194.929688 68.289062 194.824219 68.542969 C 194.722656 68.796875 194.84375 69.089844 195.101562 69.191406 Z M 201.558594 73.570312 C 202.546875 74.445312 203.472656 75.378906 204.332031 76.359375 C 204.511719 76.566406 204.828125 76.589844 205.035156 76.40625 C 205.242188 76.222656 205.265625 75.910156 205.082031 75.703125 C 204.195312 74.691406 203.238281 73.726562 202.21875 72.824219 C 202.011719 72.640625 201.699219 72.660156 201.515625 72.867188 C 201.332031 73.074219 201.351562 73.386719 201.558594 73.570312 Z M 206.714844 79.480469 C 207.449219 80.582031 208.09375 81.726562 208.640625 82.894531 C 208.757812 83.144531 209.058594 83.253906 209.308594 83.136719 C 209.558594 83.019531 209.664062 82.722656 209.546875 82.472656 C 208.976562 81.253906 208.304688 80.070312 207.550781 78.929688 C 207.398438 78.699219 207.085938 78.636719 206.855469 78.789062 C 206.625 78.941406 206.5625 79.25 206.714844 79.480469 Z M 210.019531 86.558594 C 210.375 87.820312 210.621094 89.101562 210.742188 90.390625 C 210.769531 90.664062 211.015625 90.867188 211.289062 90.84375 C 211.5625 90.816406 211.761719 90.574219 211.738281 90.296875 C 211.609375 88.945312 211.351562 87.605469 210.980469 86.285156 C 210.902344 86.019531 210.628906 85.867188 210.363281 85.941406 C 210.097656 86.015625 209.941406 86.292969 210.019531 86.558594 Z M 210.730469 94.28125 C 210.597656 95.554688 210.335938 96.828125 209.9375 98.085938 C 209.851562 98.351562 210 98.628906 210.261719 98.714844 C 210.523438 98.796875 210.804688 98.652344 210.890625 98.390625 C 211.308594 97.0625 211.585938 95.722656 211.726562 94.386719 C 211.753906 94.109375 211.554688 93.867188 211.277344 93.835938 C 211.003906 93.808594 210.757812 94.007812 210.730469 94.28125 Z M 208.410156 101.683594 C 207.769531 102.910156 207.070312 104.007812 206.324219 104.984375 C 206.15625 105.203125 206.195312 105.515625 206.414062 105.683594 C 206.632812 105.851562 206.949219 105.808594 207.117188 105.589844 C 207.902344 104.566406 208.628906 103.417969 209.296875 102.144531 C 209.425781 101.898438 209.332031 101.597656 209.085938 101.46875 C 208.839844 101.339844 208.539062 101.4375 208.410156 101.683594 Z M 203.648438 107.789062 C 202.632812 108.636719 201.550781 109.328125 200.402344 109.878906 C 200.152344 109.996094 200.046875 110.296875 200.167969 110.546875 C 200.289062 110.792969 200.585938 110.898438 200.835938 110.78125 C 202.054688 110.195312 203.210938 109.457031 204.289062 108.558594 C 204.5 108.378906 204.527344 108.066406 204.351562 107.851562 C 204.175781 107.640625 203.859375 107.613281 203.648438 107.789062 Z M 196.738281 111.121094 C 195.503906 111.390625 194.214844 111.535156 192.867188 111.570312 C 192.589844 111.574219 192.375 111.804688 192.378906 112.082031 C 192.386719 112.355469 192.617188 112.574219 192.894531 112.566406 C 194.296875 112.535156 195.648438 112.382812 196.949219 112.097656 C 197.21875 112.039062 197.390625 111.773438 197.332031 111.503906 C 197.273438 111.234375 197.007812 111.0625 196.738281 111.121094 Z M 188.949219 111.375 C 187.691406 111.226562 186.394531 111 185.0625 110.703125 C 184.792969 110.640625 184.527344 110.8125 184.46875 111.082031 C 184.40625 111.347656 184.578125 111.617188 184.84375 111.675781 C 186.203125 111.984375 187.535156 112.214844 188.832031 112.367188 C 189.105469 112.398438 189.355469 112.203125 189.386719 111.929688 C 189.421875 111.65625 189.222656 111.40625 188.949219 111.375 Z M 181.238281 109.675781 C 180.640625 109.492188 180.035156 109.296875 179.429688 109.085938 C 179.167969 108.996094 178.882812 109.136719 178.792969 109.398438 C 178.703125 109.660156 178.84375 109.945312 179.105469 110.035156 C 179.722656 110.246094 180.335938 110.445312 180.949219 110.632812 C 181.210938 110.714844 181.488281 110.566406 181.570312 110.300781 C 181.652344 110.039062 181.503906 109.757812 181.238281 109.675781 " fill-opacity="1" fill-rule="nonzero"/></g></g></g></svg>