<?xml version="1.0" encoding="UTF-8"?>
<svg id="Layer_1" data-name="Layer 1" xmlns="http://www.w3.org/2000/svg" viewBox="0 0 288.37 331.9">
  <defs>
    <style>
      .cls-1 {
        fill: #c60;
      }

      .cls-2 {
        fill: #333;
      }
    </style>
  </defs>
  <path class="cls-1" d="M263.23,51.77c-3.68-2.65-4.95-7.44-3.46-11.69l-.74-.53c-3.56,2.75-8.51,3.05-12.18.4-3.68-2.65-4.95-7.44-3.46-11.69l-.66-.48c-3.56,2.75-8.51,3.05-12.18.4-3.68-2.65-4.95-7.44-3.46-11.69l-.74-.53c-3.56,2.75-8.51,3.05-12.18.4-3.68-2.65-4.95-7.44-3.47-11.69l-6.5-4.69c-9.76,13.54-28.13,16.98-41.03,7.68L0,233.93c12.9,9.3,15.43,27.82,5.67,41.36l6.54,4.71c3.56-2.75,8.51-3.05,12.18-.4,3.68,2.65,4.95,7.44,3.46,11.69l.74.53c3.56-2.75,8.51-3.05,12.19-.4,3.68,2.65,4.95,7.44,3.46,11.69l.66.48c3.56-2.75,8.51-3.05,12.18-.4,3.68,2.65,4.95,7.44,3.47,11.69l.74.53c3.56-2.75,8.51-3.05,12.18-.4,3.68,2.65,4.95,7.44,3.47,11.69l7.25,5.23c9.76-13.54,28.13-16.98,41.03-7.68l163.15-226.25c-12.9-9.3-15.43-27.81-5.67-41.36l-7.28-5.25c-3.56,2.75-8.51,3.05-12.18.4Z"/>
  <path class="cls-2" d="M158.06,31.34L20.84,221.62c-4.78,6.63-3.28,15.92,3.36,20.71l85.4,61.59c6.63,4.78,15.92,3.28,20.71-3.36l137.21-190.27c4.78-6.63,3.28-15.93-3.36-20.71l-85.4-61.59c-6.63-4.78-15.92-3.28-20.71,3.36ZM142.9,62.05l100.27,72.31-97.71,135.5-100.27-72.31L142.9,62.05ZM112.92,299.31l-85.4-61.59c-4.1-2.96-5.03-8.7-2.07-12.8l16.43-22.79,100.27,72.31-16.43,22.79c-2.96,4.1-8.7,5.03-12.8,2.07ZM260.85,94.17c4.1,2.96,5.03,8.7,2.07,12.79l-16.43,22.79-100.27-72.31,16.43-22.79c2.96-4.1,8.7-5.03,12.79-2.07l85.4,61.59Z"/>
  <g>
    <path class="cls-2" d="M170.38,60.45c-.33.46-.56.83-.68,1.1-.12.27-.16.53-.14.77.02.24.13.49.32.76.19.26.45.55.79.86.34.31.81.7,1.42,1.16l-.63.87-8.83-6.37.63-.87c.91.6,1.58,1,2.01,1.2.43.21.79.31,1.09.32.3,0,.58-.08.85-.26.27-.18.61-.55,1.01-1.11l6.99-9.69c.23-.32.34-.59.34-.82,0-.23-.12-.42-.33-.57-.26-.18-.71-.31-1.37-.39-.66-.08-1.5-.13-2.53-.17l.14-1.3,8,.7.66.47c-.6.73-1.39,1.77-2.36,3.13l-7.36,10.2Z"/>
    <path class="cls-2" d="M183.15,71.49c.39.28.72.48,1,.61.27.12.52.18.75.17.22,0,.44-.07.65-.19s.52-.32.92-.6l1.02.73-2.72,3.34-9.83-7.09.41-.57c.95-.59,2.02-1.11,3.24-1.57,1.21-.46,2.78-.89,4.71-1.31,1.66-.35,2.88-.65,3.67-.88.86-.25,1.55-.51,2.07-.77.52-.26.96-.54,1.33-.84.36-.3.68-.64.95-1.01.43-.6.72-1.19.85-1.79.14-.6.11-1.17-.1-1.71-.2-.55-.61-1.04-1.2-1.47-1.49-1.07-3.09-.97-4.8.31l-1.45-1.04,1.65-2.29c1.29.24,2.43.56,3.42.97.99.4,1.81.85,2.48,1.33,1.48,1.07,2.37,2.2,2.66,3.4.29,1.2-.01,2.41-.9,3.64-.3.42-.63.78-.97,1.07-.34.29-.72.55-1.15.77-.43.22-.94.42-1.53.6-.59.18-1.22.34-1.88.49-.66.15-1.79.37-3.38.68-2.67.51-4.79,1.11-6.36,1.79l4.5,3.25Z"/>
    <path class="cls-2" d="M198.15,65.57l1.64-2.27c1.24.23,2.34.52,3.3.89.96.37,1.81.82,2.56,1.36.9.65,1.59,1.36,2.06,2.12.48.77.7,1.54.69,2.32-.02.78-.29,1.53-.81,2.26-.49.68-1.05,1.17-1.69,1.49-.64.32-1.34.49-2.11.52-.77.03-1.67-.05-2.72-.25l-.08.11c.42.44.78.93,1.08,1.46.3.54.5,1.1.61,1.68.11.59.1,1.19-.02,1.81-.13.62-.4,1.23-.83,1.82-.67.92-1.46,1.6-2.38,2.03-.92.43-1.94.55-3.07.37-1.13-.18-2.28-.7-3.47-1.56-.69-.49-1.37-1.1-2.05-1.83-.68-.73-1.26-1.46-1.74-2.19l1.83-2.53,1.43,1.03c-.32,1.03-.38,1.9-.2,2.6.19.7.68,1.34,1.46,1.91,1.04.75,2.02,1.03,2.96.84.94-.18,1.81-.83,2.6-1.94.84-1.16,1.13-2.3.87-3.42-.26-1.12-1.07-2.17-2.42-3.14l-1.08-.78.76-1.05c1.12.71,2.18,1.16,3.17,1.34.99.18,1.86.13,2.62-.17.75-.29,1.38-.78,1.87-1.46.64-.88.89-1.73.77-2.55-.13-.82-.64-1.55-1.54-2.2-.75-.54-1.5-.78-2.27-.71-.76.07-1.56.44-2.38,1.11l-1.43-1.03Z"/>
    <path class="cls-2" d="M207.07,90.76c.59.23,1.02.33,1.3.29s.55-.18.81-.43c.26-.25.6-.67,1.03-1.26l1.41-1.96-6.64-4.79.65-.9,14.6-5.51,1.71,1.23-7.42,10.29.25.18c.46.33.82.54,1.06.61.25.08.5.08.75,0,.26-.08.58-.27.97-.58l.91.65-1.92,2.36-2.87-2.07-1.41,1.96c-.38.53-.65.94-.79,1.21-.14.27-.22.51-.24.71-.02.2.02.41.11.63.09.21.29.5.59.86l-.42.59-4.85-3.5.42-.59ZM207.78,82.88l4.67,3.37,2.15-2.98c.54-.75,1.16-1.58,1.85-2.49.69-.91,1.22-1.59,1.6-2.04l-.12-.09-10.02,4.05-.12.17Z"/>
    <path class="cls-2" d="M216.3,97.31l1.83-2.53,1.45,1.04c-.35.98-.42,1.84-.21,2.57.21.73.69,1.37,1.46,1.92,1.06.76,2.09,1.02,3.09.78,1-.25,1.96-1,2.87-2.27.61-.84.97-1.65,1.08-2.41.11-.76.01-1.44-.29-2.04-.31-.6-.78-1.13-1.43-1.59-.54-.39-1.03-.69-1.47-.91-.44-.21-.93-.41-1.48-.59l-.55-1.25,5.67-7.86,6.58,4.75c.27.2.48.31.63.36.15.04.3.04.43,0,.14-.04.35-.15.63-.34l.93.67-2.18,2.64-6.87-4.95-3.78,5.25c.54.12,1.09.32,1.63.58.55.26,1.07.57,1.55.92.95.68,1.65,1.48,2.1,2.4.45.92.62,1.87.51,2.87-.12,1-.51,1.97-1.19,2.91-.77,1.07-1.65,1.82-2.65,2.27-1,.44-2.06.56-3.19.35-1.13-.21-2.28-.73-3.43-1.57-1.38-.99-2.62-2.32-3.71-3.97Z"/>
    <path class="cls-2" d="M249.89,98.45l-.42.59c-1.23-.88-2.5-1.41-3.83-1.56-1.33-.16-2.67.05-4.03.62-1.36.57-2.67,1.46-3.94,2.68l.08.13c1.01,0,1.93.13,2.74.37.81.24,1.59.64,2.35,1.19.9.65,1.53,1.4,1.87,2.25.35.85.43,1.75.23,2.69-.2.94-.64,1.89-1.33,2.85-.75,1.04-1.6,1.81-2.58,2.31-.97.51-2.03.69-3.19.54-1.16-.15-2.35-.66-3.57-1.54-1.74-1.26-2.67-2.75-2.78-4.47-.11-1.72.6-3.64,2.12-5.75,1.02-1.42,2.2-2.58,3.54-3.5,1.34-.91,2.75-1.53,4.23-1.86,1.48-.33,2.96-.37,4.42-.12,1.47.25,2.82.78,4.06,1.57l.02,1.01ZM241.11,103.12c-.39-.28-.8-.51-1.22-.68-.43-.17-.86-.29-1.3-.35-.44-.06-.9-.08-1.39-.04-.16.02-.3.06-.41.12-.19.09-.38.24-.56.45-.18.21-.47.57-.85,1.1-1.1,1.52-1.68,2.86-1.74,4.03-.06,1.16.42,2.12,1.46,2.87.6.43,1.17.69,1.73.78.56.09,1.09.04,1.6-.14.51-.18,1-.48,1.46-.89.46-.41.9-.91,1.31-1.48.85-1.18,1.27-2.27,1.26-3.28s-.46-1.83-1.34-2.47Z"/>
  </g>
  <g>
    <path class="cls-2" d="M45.45,233.7c-.33.46-.56.83-.68,1.1-.12.27-.16.53-.14.77.02.24.13.49.32.76.19.26.45.55.79.86.34.31.81.7,1.42,1.16l-.63.87-8.83-6.37.63-.87c.91.6,1.58,1,2.01,1.2.43.21.79.31,1.09.32.3,0,.58-.08.85-.26.27-.18.61-.55,1.01-1.11l6.99-9.69c.23-.32.34-.59.34-.82,0-.23-.12-.42-.33-.57-.26-.18-.71-.31-1.37-.39-.66-.08-1.5-.13-2.53-.17l.14-1.3,8,.7.66.47c-.6.73-1.39,1.77-2.36,3.13l-7.36,10.2Z"/>
    <path class="cls-2" d="M58.21,244.74c.39.28.72.48,1,.61.27.12.52.18.75.17.22,0,.44-.07.66-.19.21-.12.52-.32.92-.6l1.02.73-2.72,3.34-9.83-7.09.41-.57c.95-.59,2.02-1.11,3.24-1.57,1.21-.46,2.78-.89,4.71-1.31,1.66-.35,2.88-.65,3.67-.88.86-.25,1.55-.51,2.07-.77.52-.26.96-.54,1.33-.84s.68-.64.95-1.01c.43-.6.72-1.19.85-1.79.14-.6.11-1.17-.1-1.71-.2-.55-.61-1.04-1.2-1.47-1.49-1.07-3.09-.97-4.8.31l-1.45-1.04,1.65-2.29c1.29.24,2.43.56,3.42.97.99.4,1.81.85,2.48,1.33,1.48,1.07,2.37,2.2,2.66,3.4.29,1.2-.01,2.41-.9,3.64-.3.42-.63.78-.97,1.07-.34.29-.72.55-1.15.77-.43.22-.94.42-1.53.6-.59.18-1.22.34-1.88.49-.66.15-1.79.37-3.38.68-2.67.51-4.79,1.11-6.36,1.79l4.5,3.25Z"/>
    <path class="cls-2" d="M73.22,238.81l1.64-2.27c1.24.23,2.34.52,3.3.89.96.36,1.81.82,2.56,1.36.9.65,1.59,1.36,2.06,2.12.48.77.7,1.54.69,2.32-.02.78-.29,1.53-.81,2.26-.49.68-1.05,1.17-1.69,1.49-.64.32-1.34.49-2.11.52-.77.03-1.67-.05-2.72-.25l-.08.11c.42.44.78.93,1.08,1.46.3.54.5,1.1.61,1.68.11.59.1,1.19-.02,1.81-.13.62-.4,1.23-.83,1.82-.67.92-1.46,1.6-2.38,2.03-.92.43-1.94.55-3.07.37-1.13-.18-2.28-.7-3.47-1.56-.69-.49-1.37-1.1-2.05-1.83-.68-.73-1.26-1.46-1.74-2.19l1.83-2.53,1.43,1.03c-.32,1.03-.38,1.9-.2,2.6.19.7.68,1.34,1.47,1.91,1.04.75,2.02,1.03,2.96.84.94-.18,1.81-.83,2.6-1.94.84-1.16,1.13-2.3.87-3.42-.26-1.12-1.07-2.17-2.42-3.14l-1.08-.78.76-1.05c1.12.71,2.18,1.16,3.17,1.34.99.18,1.86.13,2.62-.17.75-.29,1.38-.78,1.87-1.46.64-.88.89-1.73.77-2.55-.13-.82-.64-1.55-1.54-2.2-.75-.54-1.5-.78-2.27-.71-.76.07-1.56.44-2.38,1.11l-1.43-1.03Z"/>
    <path class="cls-2" d="M82.14,264.01c.59.23,1.02.33,1.3.29.28-.03.55-.18.81-.43s.6-.67,1.03-1.26l1.41-1.96-6.64-4.79.65-.9,14.6-5.51,1.71,1.23-7.42,10.29.25.18c.46.33.82.54,1.06.61.25.08.5.08.75,0,.26-.08.58-.27.97-.58l.91.65-1.92,2.36-2.87-2.07-1.41,1.96c-.38.53-.65.94-.79,1.21-.14.27-.22.51-.24.71-.02.2.02.41.11.63.09.21.29.5.59.86l-.42.59-4.85-3.5.42-.59ZM82.84,256.12l4.67,3.37,2.15-2.98c.54-.75,1.16-1.58,1.85-2.49.69-.91,1.22-1.59,1.6-2.04l-.12-.09-10.02,4.05-.12.17Z"/>
    <path class="cls-2" d="M91.37,270.55l1.83-2.53,1.45,1.04c-.35.98-.42,1.84-.21,2.57.21.73.69,1.37,1.46,1.92,1.06.76,2.09,1.02,3.09.78,1-.25,1.96-1,2.87-2.27.61-.84.97-1.65,1.08-2.41.11-.76.01-1.44-.29-2.04-.31-.6-.78-1.13-1.43-1.59-.54-.39-1.03-.69-1.47-.91-.44-.21-.93-.41-1.48-.59l-.55-1.25,5.67-7.86,6.58,4.75c.27.2.48.31.63.36.15.04.3.04.43,0,.14-.04.35-.15.63-.34l.93.67-2.18,2.64-6.87-4.95-3.78,5.25c.54.12,1.09.32,1.63.58.55.26,1.07.57,1.55.92.95.68,1.65,1.48,2.1,2.4.45.92.62,1.87.51,2.87-.12,1-.51,1.97-1.19,2.91-.77,1.07-1.65,1.82-2.65,2.27-1,.44-2.06.56-3.19.35-1.13-.21-2.28-.73-3.43-1.57-1.38-.99-2.62-2.32-3.71-3.97Z"/>
    <path class="cls-2" d="M124.96,271.69l-.42.59c-1.23-.88-2.5-1.41-3.83-1.56-1.33-.16-2.67.05-4.03.62-1.36.57-2.67,1.46-3.94,2.68l.08.13c1.01,0,1.93.13,2.74.37.81.25,1.59.64,2.35,1.19.9.65,1.53,1.4,1.87,2.25.35.85.43,1.75.23,2.69-.2.94-.64,1.89-1.33,2.85-.75,1.04-1.6,1.81-2.57,2.31-.97.51-2.03.68-3.19.54-1.16-.15-2.35-.66-3.57-1.54-1.74-1.26-2.67-2.75-2.78-4.47-.11-1.72.6-3.64,2.12-5.75,1.02-1.42,2.2-2.58,3.54-3.5,1.34-.91,2.75-1.53,4.23-1.86,1.48-.33,2.96-.37,4.42-.12,1.47.25,2.82.78,4.06,1.57l.02,1.01ZM116.18,276.37c-.39-.28-.8-.51-1.22-.68-.43-.17-.86-.29-1.3-.35-.44-.06-.9-.08-1.39-.04-.16.02-.3.06-.41.12-.19.09-.38.24-.56.45-.18.21-.47.57-.85,1.1-1.1,1.52-1.68,2.86-1.74,4.03-.06,1.16.42,2.12,1.46,2.87.6.43,1.17.69,1.73.77.56.09,1.09.04,1.6-.14.51-.18,1-.48,1.46-.89.46-.41.9-.91,1.31-1.48.85-1.18,1.27-2.27,1.26-3.28-.01-1.01-.46-1.83-1.34-2.47Z"/>
  </g>
  <g>
    <path class="cls-2" d="M72.72,187.34l4.89-6.79,34.84,13.41-5.36,7.43-6.56-3.15-4.05,5.61,5.04,5.26-5.04,6.99-23.77-28.76ZM83.07,189.85l8.87,9.25,2.68-3.71-11.54-5.54Z"/>
    <path class="cls-2" d="M85.95,168.99l6.16-8.54c1.85-2.56,3.98-4.25,6.41-5.08,2.42-.83,5.01-.8,7.75.09s5.46,2.29,8.15,4.23c4.52,3.26,7.41,6.89,8.67,10.9,1.26,4,.47,7.97-2.36,11.9l-5.49,7.62-29.28-21.12ZM96.56,166.27l17.86,12.88.35-.48c2.55-3.54.63-7.62-5.78-12.24-2.48-1.79-4.75-2.84-6.81-3.17-2.06-.33-3.72.38-4.97,2.11l-.65.9Z"/>
    <path class="cls-2" d="M103.56,144.57l5.39-7.47,14.16,3.99-8.26-12.18,5.4-7.49,29.28,21.12-4.81,6.67-10.96-7.9c-2.77-2-5.5-4.14-8.2-6.42l-.36.5c1.2,1.31,2.73,3.3,4.58,5.95l6.38,9.16-10.69-3.18c-3.12-.93-5.48-1.75-7.09-2.47l-.38.52c2.82,1.67,5.71,3.58,8.7,5.73l10.96,7.9-4.81,6.67-29.28-21.12Z"/>
    <path class="cls-2" d="M125.07,114.75l4.96-6.88,29.28,21.12-4.96,6.88-29.28-21.12Z"/>
    <path class="cls-2" d="M134.09,102.24l13.34-18.49,5.94,4.28-4.28,5.94,23.34,16.83-4.92,6.82-23.34-16.83-4.13,5.73-5.94-4.28Z"/>
  </g>
  <g>
    <path class="cls-2" d="M132.14,195.78c2.55-3.54,5.9-5.37,10.05-5.48,4.15-.12,8.54,1.5,13.17,4.84,4.65,3.35,7.61,7.05,8.89,11.1,1.28,4.05.74,7.71-1.62,10.99-2.45,3.4-5.78,5-9.99,4.79-4.21-.21-8.46-1.86-12.74-4.94-2.97-2.14-5.3-4.51-7-7.12-1.7-2.61-2.57-5.17-2.62-7.7-.04-2.52.58-4.68,1.87-6.47ZM138.84,199.49c-.99,1.37-.95,2.99.1,4.86,1.06,1.87,2.96,3.79,5.7,5.77,2.78,2.01,5.23,3.23,7.32,3.67,2.1.44,3.6.04,4.49-1.21.89-1.23.78-2.81-.32-4.73-1.1-1.92-3.02-3.87-5.75-5.84-2.83-2.04-5.27-3.23-7.33-3.58-2.06-.35-3.47,0-4.22,1.05Z"/>
    <path class="cls-2" d="M145.34,178.48l5.01-6.95,11.68,3.35c3.47.99,6.41,1.95,8.81,2.87l.26-.36-5.07-3.4-11.48-8.28,4.72-6.55,29.28,21.12-5,6.93-11.68-3.35c-3.47-.99-6.42-1.96-8.83-2.89l-.27.38,5.07,3.4,11.5,8.29-4.72,6.55-29.28-21.12Z"/>
    <path class="cls-2" d="M164.58,151.81l12.03-16.69,5.9,4.25-7.11,9.87,5.39,3.89,6.63-9.19,5.71,4.12-6.63,9.19,6.3,4.54,7.11-9.87,5.98,4.31-12.03,16.69-29.28-21.12Z"/>
  </g>
</svg>