<?xml version="1.0" encoding="UTF-8"?>
<svg id="Layer_1" data-name="Layer 1" xmlns="http://www.w3.org/2000/svg" viewBox="0 0 43.91 32.27">
  <defs>
    <style>
      .cls-1 {
        fill: #d0d1d2;
      }

      .cls-2 {
        fill: #76777c;
      }

      .cls-3 {
        fill: #fff;
      }

      .cls-4 {
        fill: #98989c;
      }

      .cls-5 {
        fill: #67686c;
      }

      .cls-6 {
        fill: #86878b;
      }

      .cls-7 {
        fill: #252224;
      }

      .cls-8 {
        fill: #515154;
      }

      .cls-9 {
        fill: #b4b5b7;
      }
    </style>
  </defs>
  <path class="cls-7" d="M24.23,17.36c-.13,0-.73-.03-.78.03.15.71-.47,2,.72,1.72.35.46-.03,3.12.13,3.35.07.1.74-.02.81.03.12.08-.08.82.13.91.13.06.74-.07.81.03.05.07-.01,1.47,0,1.72,0,.14-.02.78,0,.81.03.04.65.06.78.1.2.55-.01,1.15,0,1.69-1.25.28-.59-.69-.81-.85-.07-.05-.74.06-.81-.03-.1-.15.12-2.26,0-2.54-.09-.21-.78-.03-.88-.1s.02-.69-.03-.81c-.1-.22-.75.03-.85-.2-.14-.33.13-3.17-.03-3.29l-.94.03v5.2c-.18.03-.96.11-1.04-.07-.22-.5.18-4.88,0-5.14l-.94-.03c-.17.12.11,2.96-.03,3.29-.09.21-.67.03-.81.1-.21.09-.03.78-.1.88-.08.11-.75-.08-.85.13-.12.28.1,2.39,0,2.54-.07.1-.74-.02-.81.03-.1.07.02.74-.03.81-.07.1-.62-.02-.75.03-.32.12-.1,1.45-.16,1.79l-5.14.03c-.26-1.43.69-.77,1.66-.91.08-.04.16-.8.16-.91h.78c.3,0,.61,0,.91,0s.55-.03.85-.07c.27-.03.55.06.81-.07.13-.17-.04-.6-.03-.72.02-.28.05-.56.07-.85.14,0,.8.03.85-.03,0-.29-.01-.59,0-.88s-.05-1.54,0-1.66c.09-.21.67-.03.81-.1.23-.1-.03-.81.2-.91.12-.05.68.07.75-.03s0-2.18,0-2.5v-.85s.04,0,.07,0c.16,0,.78.06.85-.1-.07-.32.1-1.35,0-1.56s-.7-.01-.85-.13c-.07-.06-.09-.74-.07-.78.08-.11.75.08.85-.13.08-.19-.07-1.46,0-1.56s.75.03.88-.03c.21-.09.01-.83.13-.91.04-.03.94-.03.98,0,.12.08-.08.82.13.91.13.06.81-.07.88.03s-.08,1.37,0,1.56c.13.29,1.07-.33.78.94Z"/>
  <path class="cls-4" d="M34.71,24.32c-.15.03-.79-.05-.85.03-.06.09.05,1.48,0,1.72-.14,0-.78-.06-.85.03.06.55-.05,1.11-.07,1.66-.24-.05-1.57.06-1.66,0-.11-.08.08-.75-.13-.85-.75-.33-.87.28-.88.85h-.78c.03-.81.1-.92-.78-.85,0-.28-.14-.65-.03-.98-1.6.5-.68-.86-.94-1.59-.05-.14-.78-.04-.85-.13-.05-.07-.02-1.65.1-1.72.04-.02.64.05.75,0,0,.14-.03.84,0,.88.07.1.78-.03.85.07s-.11.78.1.88c.09.04.64-.01.81,0-.02.85-.14.91.78.85,0,.11.06.82.1.85.08.06.85-.05.88.1.12.59-.47.93.81.81.02-.22.08-1.65.03-1.72-.07-.1-.78.03-.85-.07v-.78c1.61-.4.09,1.1,1.66.81.13-.09-.06-1.46.03-1.66.1-.23.81.03.91-.2.03-.08.03-.76-.1-.81s-.59.07-.75-.03c-.12-.08-.01-1.55-.07-1.63-.07-.1-.74.02-.81-.03-.07-.05-.03-.65-.03-.78.21-.13.67,0,.81-.07.21-.09,0-.67.16-.85.11.05.68-.05.75,0,.1.07-.02.74.03.81.07.1.65-.02.75.03.14.08.06.8.13.85.09.07.72-.11.81.1.05.11.05,2.3,0,2.41-.09.21-.77.02-.85.13-.03.04,0,.73,0,.88Z"/>
  <path class="cls-7" d="M33.86,26.08c.24,0,.57-.05.78.07-.02.14.03.71,0,.75-.07.1-.71-.03-.78.07-.1.14-.07,3.29,0,3.45.1.22.75-.03.85.2.05.12-.07.68.03.75.03.02.75.02.78,0,.19-.13-.37-1.14.91-.85v1.69c-.43-.13-2.23.15-2.47.07-.2-.07-.04-.68-.1-.81-.09-.21-.7-.02-.78-.13-.07-.1.11-.78-.1-.88-.13-.06-.74.07-.81-.03-.07-.09.11-.72-.1-.81-.5-.22-4.82.18-5.07,0-.13-.56-.08-1.13-.1-1.69.16-.22.56-.12.85-.13s.61,0,.91,0h1.63c0,.11.08.88.16.91.23.05,1.54-.06,1.63,0,.2.14-.4,1.22.91.91.14-.1-.04-1.58-.03-1.82.01-.54.12-1.11.07-1.66.07-.1.71-.03.85-.03Z"/>
  <path class="cls-4" d="M25.08,18.99c.1,0,.04.12.1.13.14.01.76-.04.81.03.04.05-.02,1.07,0,1.27-.06-.47-.4-.51-.85-.36v1.56c.07.13,1.66.19,1.76-.03.15.28.59.07.85.07,0,.28-.01.57,0,.85-.11.05-.71-.02-.75,0-.12.07-.15,1.65-.1,1.72.06.09.79-.01.85.13.27.73-.66,2.09.94,1.59-.11.33.03.7.03.98,0,.26-.13.57-.07.85-.3,0-.61,0-.91,0-.05-.24.06-1.57,0-1.66s-.68.02-.85-.1c-.03-.15.05-.79-.03-.85-.06-.04-.67.03-.81,0-.01-.25.05-1.65,0-1.72-.07-.1-.69.02-.81-.03-.21-.09-.01-.83-.13-.91-.07-.05-.74.06-.81-.03-.16-.23.22-2.89-.13-3.35,0-.05.08-.13.13-.13.09,0,.55.12.75.13.05,0,.03-.13.03-.13Z"/>
  <path class="cls-7" d="M11.74,17.49c-.02.15.04.64-.03.72-.25.23-1.04-.36-.81.78-.02,0,.01.22-.33.13-.91-.15-.35.7-.55.85-.07.05-.74-.06-.81.03-.05.07.06.74-.03.81s-.72-.11-.81.1c-.05.11-.05,2.3,0,2.41.19.44.83-.62.91,1.01.02.45-.12,1.21-.13,1.69-1.39.31-.51-.99-.78-1.59-.09-.21-.77-.02-.85-.13-.12-.17.04-3.71-.07-4.23,1.39.05.61-.32.85-.85.09-.21.83-.01.91-.13.05-.07-.06-.74.03-.81s.78.11.88-.1c.06-.13-.07-.74.03-.81.07-.05,1.49-.06,1.59.13Z"/>
  <path class="cls-7" d="M34.77,26.01c.03-.44-.08-1.17-.07-1.69,0-.14-.03-.84,0-.88.08-.11.75.08.85-.13.05-.11.05-2.3,0-2.41-.09-.21-.72-.03-.81-.1-.07-.05,0-.77-.13-.85-.1-.05-.68.07-.75-.03-.05-.07.06-.74-.03-.81-.07-.05-.64.05-.75,0,0,0-.06-.06-.07-.07-.22-.5.52-.92-.85-.78-.02-.09-.05-.06-.07-.07.18-.26,0-.62,0-.85.23,0,1.59-.05,1.66,0,.1.07-.02.69.03.81.09.21.72.03.81.1.11.08-.08.75.13.85.15.07.72-.11.81.1.07.15-.11.72.1.81.12.05.68-.07.75.03.12.17.12,4.06,0,4.23-.07.1-.78-.03-.85.07-.29.4.63,2.06-.78,1.66Z"/>
  <path class="cls-9" d="M27.75,21.66c0-.26.05-1.48,0-1.59-.09-.21-.72-.03-.81-.1s.02-.74-.03-.81c-.11-.15-1.38.31-.81-.94.32.07,1.35-.1,1.56,0s.03.78.1.88.78-.03.85.07c.08.11-.09,1.43,0,1.63.09.21.78.03.88.1s-.03.78.07.85c.07.05.74-.06.81.03.05.06.03,1.49,0,1.56-.08.18-.64.06-.81.1.12-1.45-.52-.68-.85-.91-.37-.26.73-.85-.94-.85Z"/>
  <path class="cls-4" d="M13.56,17.43c-.06.89-.04.81.81.78l.03-.85c.3,0,.61,0,.91,0,.15,1.38-.31.62-.81.85-.21.09-.03.78-.1.88s-.78-.03-.85.07c-.05.07.06.74-.03.81-.09.06-1.48-.05-1.72,0,0-.14-.02-.78,0-.81.15-.2,1.13.4.85-.85-1.08-.16-.72,0-.94.81-.3.13-.77-.13-.81-.13-.23-1.15.57-.55.81-.78.08-.07.02-.57.03-.72,0,0,.06.03.07-.13.58-.07,1.19.07,1.76.07Z"/>
  <path class="cls-5" d="M13.56,26.92c-.07.27.07.59.07.85,0,.12-.08.87-.16.91-.97.14-1.92-.52-1.66.91l-.07.07c-1.32.12-.78-.98-.78-1.89.77-.14,2.17.5,1.69-.85.02,0,.04,0,.07,0,.28,0,.57.01.85,0Z"/>
  <path class="cls-4" d="M29.5,17.36c.03.15-.05.79.03.85.14.1,1.41-.08,1.66-.07.05,0,.07.06.2.07l-.13.81c.09.21.77.02.85.13.02.03,0,.67,0,.81-.24-.05-1.57.06-1.66,0s-.08-.81-.13-.85c-.07-.05-.74.06-.81-.03-.24-.33.56-1.04-.91-.91v-.81c.3,0,.61,0,.91,0Z"/>
  <path class="cls-4" d="M25.99,20.42c.08.78.25.33.91.49-.04.16.05.57,0,.68-.1.22-1.69.16-1.76.03v-1.56c.44-.15.78-.11.85.36Z"/>
  <path class="cls-6" d="M32.1,18.21s.04-.02.07.07c.04.15-.06.78.03.85l.81-.07s.06.06.07.07c-.16.17.05.75-.16.85-.14.06-.6-.07-.81.07,0-.02,0-.04,0-.07,0-.14.02-.78,0-.81-.08-.11-.75.08-.85-.13l.13-.81c.1,0,.69-.02.72,0Z"/>
  <path class="cls-5" d="M34.71,24.32c-.02.52.1,1.25.07,1.69,0,.1-.13.12-.13.13-.21-.12-.54-.06-.78-.07.05-.24-.06-1.64,0-1.72.06-.08.7,0,.85-.03Z"/>
  <path class="cls-1" d="M24.23,17.36s.04,0,.07,0v1.63c-.05,0-.13.08-.13.13-1.18.28-.57-1.01-.72-1.72.05-.07.65-.03.78-.03Z"/>
  <path class="cls-5" d="M27.75,27.77c-.29,0-.69-.09-.85.13,0-.06-.06-.07-.07-.13-.01-.54.2-1.14,0-1.69l.07-.07c.16.11.79.02.85.1.06.09-.05,1.42,0,1.66Z"/>
  <path class="cls-5" d="M10.05,26.01c-.27,0-.58-.01-.85.07,0,0-.07.02-.07-.07.01-.48.15-1.24.13-1.69,1.28-.28.63.86.78,1.69Z"/>
  <path class="cls-7" d="M9.21,26.92c-.03.51-.12,1.02-.07,1.53l-.81.03-.03-1.53c.04-.06.77-.03.91-.03Z"/>
  <polygon class="cls-7" points="34.74 26.92 35.55 26.96 35.52 28.49 34.71 28.45 34.74 26.92"/>
  <path class="cls-1" d="M30.28,25.17c-.92.07-.8,0-.78-.85.15.01.79-.05.85.03.08.11-.07.7-.07.81Z"/>
  <rect class="cls-7" x="34.72" y="29.61" width=".81" height=".81" transform="translate(3.73 63.92) rotate(-87.71)"/>
  <path class="cls-9" d="M32.14,22.57c.88-.06.9-.04.78.85-.85.07-.91,0-.78-.85Z"/>
  <path class="cls-9" d="M30.38,23.41c.88-.06.9-.04.78.85-.85.07-.91,0-.78-.85Z"/>
  <path class="cls-9" d="M19.61,18.21h-.78c0-.27-.05-.58-.07-.85,0-.02,0-.04,0-.07.16.15.77,0,.85.1.02.03,0,.68,0,.81Z"/>
  <path class="cls-2" d="M19.61,18.21c.02.3-.06.63.07.91-.02,0-.04,0-.07,0-.25,0-.5-.08-.78-.07,0-.28,0-.56,0-.85h.78Z"/>
  <path class="cls-5" d="M25.08,18.21c0,.26,0,.52,0,.78,0,0,.02.13-.03.13-.19-.01-.66-.14-.75-.13v-.78h.78Z"/>
  <path class="cls-7" d="M25.24,7.08c.78-.11.91.1.72.85l-.75-.03.03-.81Z"/>
  <path class="cls-9" d="M25.08,18.21h-.78v-.85c.13,0,.73-.03.78.03.02.03,0,.68,0,.81Z"/>
  <path class="cls-7" d="M17.95,7.08s.72,0,.75.03c.04.81.1.93-.78.78.03-.15-.05-.76.03-.81Z"/>
  <path class="cls-4" d="M19.61,19.96c0,.33.07,2.4,0,2.5s-.63-.02-.75.03c-.23.1.03.81-.2.91-.15.07-.72-.11-.81.1-.05.12,0,1.38,0,1.66-1.11-.09-.8.04-.85.91-.17,0-.56-.06-.72,0-.18-.16-.18-1.61-.13-1.72.1-.22.75.03.85-.2s-.07-1.3,0-1.63l-.85-.03c.02-.27-.01-.54,0-.81l.85-.03c-.02.83-.14.91.81.85-.26-1.2.83-.66.94-.88.28-.55-.64-1.96.85-1.66Z"/>
  <path class="cls-4" d="M16.3,26.08s-.1-.03-.13.03c0,.27,0,.54,0,.81s0,.52,0,.78c-.3.03-.55.06-.85.07.07-.26-.07-.63-.07-.85,0-.87.03-1.8.07-2.67,0-.14-.02-.78,0-.81.08-.11.75.08.85-.13.04-.09-.01-.64,0-.81l.85.03c-.07.33.1,1.4,0,1.63s-.75-.03-.85.2c-.05.12-.05,1.56.13,1.72Z"/>
  <path class="cls-4" d="M19.61,19.12v.85c-1.48-.3-.57,1.11-.85,1.66-.11.22-1.21-.32-.94.88-.95.06-.83-.01-.81-.85,0-.13-.03-.74.03-.78.1-.07.78.11.88-.1.09-.2-.08-1.52,0-1.63.3,0,.62-.08.91-.1s.53.07.78.07Z"/>
  <path class="cls-4" d="M15.26,26.92c-.89-.06-.9-.04-.85.85h-.78c0-.25-.13-.57-.07-.85.14,0,.8.03.85-.03v-.85c-.04-.06-.71-.03-.85-.03-.28-1.34.68-.65.85-.88.25-.36-.6-.91.91-.88-.03.87-.06,1.8-.07,2.67Z"/>
  <path class="cls-6" d="M17.86,25.17c-.01.29,0,.59,0,.88-.05.07-.71.03-.85.03.04-.87-.26-1,.85-.91Z"/>
  <path class="cls-5" d="M15.26,26.92c0,.21.13.59.07.85-.3,0-.61,0-.91,0-.05-.88-.05-.9.85-.85Z"/>
  <path class="cls-6" d="M26.9,26.01l-.07.07c-.13-.04-.75-.06-.78-.1-.02-.03,0-.68,0-.81.14.03.76-.04.81,0,.08.06,0,.7.03.85Z"/>
  <path class="cls-5" d="M17.01,26.08c-.01.29-.05.56-.07.85h-.78c0-.27,0-.54,0-.81.03-.06.09-.02.13-.03.16-.06.54,0,.72,0Z"/>
  <path class="cls-8" d="M16.95,26.92c0,.12.16.55.03.72-.26.13-.55.03-.81.07,0-.26,0-.52,0-.78h.78Z"/>
  <path class="cls-6" d="M14.41,17.36l-.03.85c-.85.03-.87.11-.81-.78.26,0,.57-.06.85-.07Z"/>
  <path class="cls-6" d="M31.19,17.43v.72c-.25-.01-1.52.17-1.66.07-.08-.06,0-.7-.03-.85.56,0,1.14.06,1.69.07Z"/>
  <path class="cls-9" d="M32.1,17.36c0,.23.18.58,0,.85-.03-.02-.61,0-.72,0-.12,0-.14-.06-.2-.07v-.72c.28,0,.61-.07.91-.07Z"/>
  <path class="cls-5" d="M32.95,27.77c0,.24.17,1.72.03,1.82-1.31.31-.71-.77-.91-.91-.09-.06-1.39.05-1.63,0-.08-.04-.16-.8-.16-.91.01-.57.13-1.18.88-.85.21.09.02.77.13.85.09.06,1.42-.05,1.66,0Z"/>
  <path class="cls-5" d="M29.5,27.77h-.85c-.07-.27.06-.59.07-.85.88-.08.81.04.78.85Z"/>
  <path class="cls-6" d="M11.81,19.96s0,.04,0,.07c-.16-.12-.75-.02-.81-.07-.18-.13.24-.74-.42-.85.34.09.3-.13.33-.13.04,0,.52.26.81.13.23-.82-.14-.97.94-.81.28,1.24-.7.64-.85.85-.02.03,0,.67,0,.81Z"/>
  <path class="cls-4" d="M33.01,19.05l-.81.07c-.09-.07,0-.7-.03-.85,1.36-.14.63.28.85.78Z"/>
  <path class="cls-7" d="M10.05,26.01c.17,0,.84-.07.91.1,0,.55,0,1.11,0,1.66,0,.9-.54,2.01.78,1.89.31,1.26-.76.55-.91.88-.05.12.05.6,0,.72-.1.22-.68-.02-.78.2-.05.12.07.68-.03.75-.1.07-2.24.04-2.57-.03.05-.24-.06-1.61,0-1.69.07-.1.7.02.81-.03.18-.09.04-.78.13-.85.03-.02.68-.01.72,0,.26.12-.26,1.37.94.81l.07-3.38c-.07-.16-.74-.1-.91-.1.01-.28,0-.57,0-.85.27-.08.58-.07.85-.07Z"/>
  <path class="cls-3" d="M8.52,30.44c.89-.28.76.83.59.91-.89.4-1.08-.76-.59-.91Z"/>
  <path class="cls-4" d="M13.56,26.01c.13,0,.8-.03.85.03v.85c-.05.07-.71.03-.85.03-.28.01-.57,0-.85,0,.03-.15-.04-.82,0-.88s.71-.03.85-.03Z"/>
  <path class="cls-9" d="M3.74,2.6c.01.17-.04.73,0,.81.11.25.84,0,.88.03.13.1.02.87.13.91.23.09,1.58-.08,1.69,0,.09.06-.04.71.1.81.15.12.75-.08.85.13.28.63-.6.85.91.75,0,.14-.03.86.03.91,1.28.3.72-.71.91-.85.03-.02.78,0,.81.03.27,1.57-1.14.05-.85,1.63.03.04.64.05.72.03.29.16-.01.81.23.91.03.01.68.01.72,0,.24-.11-.06-.75.23-.91.13.04.63-.06.72.1.07.13-.11.72.1.81.1.05.47-.04.62,0,.3.08.18.48.2.72l-.91.16v.78c1.06.12.89.08.91-.81,1.14-.08.79.03.85.91.01.16-.04.67,0,.75.1.22.69-.01.85.16-.01.03-.02.72,0,.75.07.1.62-.02.75.03.31.12.1,1.38.16,1.72.05.07.59.02.72.03.16.01.12.06.13.07-.28,1.35.94.53,1.76.85v.78c-1.05-.06-2.41.07-3.51.07-.28,0-.56,0-.85,0-.56,0-4.1.1-4.29,0,.05-.29.69-.03.78-.16.02-.03,0-.62,0-.75s.03-.8-.03-.85c-.93-.06-.85-.04-.81.85-.02,0-.04,0-.07,0-.76-.02-.93.23-.85-.72.02,0,.18-.18.29-.2.26-.05.48.14.62-.1.3-1.18-1.03-.69-1.76-.68,0-.17.04-.73,0-.81-.09-.21-.83-.01-.91-.13-.3-1.32.74-.53.91-.98.41-1.06-.82-.66-.91-.78-.08-.11.09-1.43,0-1.63-.09-.21-.83-.01-.91-.13-.08-.11.08-1.37,0-1.56-.09-.21-.83-.01-.91-.13-.05-.07.06-.74-.03-.81-.1-.07-.85.12-.94-.1-.09-.2.08-1.52,0-1.63-.07-.1-.8.02-.88-.03-.03-.02-.1-.75-.1-.85,0-.18.14-.57.07-.81l.13-.1c.26,0,.52,0,.78,0Z"/>
  <path class="cls-7" d="M7.38,1.69c-.11,0-.7.15-.81.07-.1-.07.08-.78-.2-.91H1.04c-.15.07-.1.81-.1.98,0,.13-.02.72,0,.75.07.1.8-.02.88.03.22.16-.44,1.22.94.91,0,.1.06.82.1.85.08.05.81-.07.88.03.08.11-.09,1.43,0,1.63.1.21.84.02.94.1s-.02.74.03.81c.08.12.82-.08.91.13.08.19-.08,1.45,0,1.56.08.12.82-.08.91.13.09.2-.08,1.52,0,1.63.09.12,1.32-.28.91.78-.17.44-1.21-.35-.91.98.08.12.82-.08.91.13.04.08,0,.64,0,.81.01.23,0,.48,0,.72-.27.29-.59-.04-.91.1v.85l.88.03c.07-.05.03-.71.03-.85.27,0,.54,0,.81,0,.05,0,.03.13.03.13-.09.95.09.69.85.72.16.17-.04.82.13.91.19.1,3.74,0,4.29,0-.08,1.08.05.71.85.78,1.43.13,2.92.09,4.36,0,.01.28-.01.57,0,.85,0,.02,0,.04,0,.07-1.15,0-2.3,0-3.45,0-.3,0-.61,0-.91,0-.28,0-.58.07-.85.07-.57,0-1.18-.13-1.76-.07,0-.26.03-.53-.03-.78-.22-.16-3.86.19-4.29,0-.21-.09-.03-.72-.1-.88-.09-.21-.77-.02-.85-.13-.07-.09.11-.72-.1-.81-.12-.05-.68.07-.75-.03-.08-.12.08-2.42,0-2.54-.07-.1-.84.04-.91-.07v-.85c.07-.1.84.04.91-.07.05-.06.03-1.49,0-1.56-.06-.15-.83-.13-.91-.07-.16.13.02,1.58-.1,1.66-.18-.04-.8.09-.88-.1-.03-.07-.05-1.5,0-1.56.07-.1.75.07.91-.13.07-.09.11-1.47.07-1.56-.1-.21-.84-.02-.94-.1-.11-.08.08-.75-.13-.85-.17-.07-.81.02-.85,0-.12-.08.05-1.46-.03-1.66-.09-.21-.78-.03-.88-.1s.04-.64-.1-.81c-.18-.22-.69,0-.85-.13-.13-.11,0-.75-.1-.81-.08-.05-.81.07-.88-.03C-.06,3.27.08.47.07.06.83.2,6.18-.12,6.44.06c.06.04.04.69.13.78.28.3,1.03-.43.81.85Z"/>
  <path class="cls-7" d="M32.1,17.36c-.3,0-.63.07-.91.07-.55,0-1.13-.06-1.69-.07-.3,0-.61,0-.91,0-1.14,0-2.28,0-3.42,0-.2-.32-.05-.62-.03-.91,1.44.09,2.92.13,4.36,0,.79-.07.92.3.85-.78.56,0,4.07.09,4.26,0,.3-.13-.34-1.21,1.01-.94-.03-.2.04-.51,0-.68.02-.26.6-.08.85-.13,0,.14-.03.8.03.85.1.07.81.11.88-.16.23-.95-.3-.65-.91-.81,0-.16-.07-.71.1-.78.62-.28.75.6.75-.85,0-.13.02-.78,0-.81-.08-.11-.75.08-.85-.13-.01-.03-.01-.68,0-.72.1-.23.81.03.91-.2.09-.2-.08-1.52,0-1.63.07-.1.84.04.91-.07.07-.11-.08-1.37,0-1.56.09-.21.78-.03.88-.1.11-.08-.08-.75.13-.85.15-.07.78.11.88-.1.08-.19-.07-1.46,0-1.56.05-.07.79,0,.88-.1.13-.16-.13-.75.16-.85.69.3.92-.23.78-.85.02,0,.04,0,.07,0,.17,0,.84.06.91-.1-.07-.4.09-1.1,0-1.46-.01-.06.03-.16-.03-.2-.86.19-5.05-.25-5.53,0-.18.09-.04.78-.13.85-.03.02-.59,0-.72,0-.05,0-.03-.13-.03-.13-.11-1.14.22-.54.68-.72.3-.12.08-.76.2-.85.26-.19,5.66.14,6.44,0-.02.41.13,3.21.03,3.35-.07.1-.75-.03-.88.03-.21.09-.01.83-.13.91-.07.05-.78-.05-.85,0-.1.07.03.78-.07.85s-.78-.11-.88.1c-.09.2.09,1.57-.03,1.66-.07.05-.72-.05-.85,0-.21.09-.02.77-.13.85-.1.07-.85-.12-.94.1-.04.1,0,1.57.07,1.63.14.11.84-.04.91.07.06.08-.04,1.39,0,1.63l-.94.03-.03-1.66h-.91c.07.33-.1,1.4,0,1.63.09.19,1.36-.16.91.85-.09.21-.83.01-.91.13-.1.15.12,2.2,0,2.47-.1.23-.81-.03-.91.2-.06.13.07.74-.03.81-.07.05-.74-.06-.81.03-.05.08.07.81-.03.88-.17.12-3.71-.09-4.23,0-.16.07-.1.62-.1.78Z"/>
  <path class="cls-9" d="M34.71,3.51c0,.14.02.78,0,.81-.08.11-.75-.08-.85.13-.04.09.02.58,0,.75,0,.04,0,.09,0,.13l-.75-.13-.1.91s-.04,0-.07,0c-.17.02-.77-.07-.85.1s.07.63.07.75c0,0-.05-.03-.07.13-1.2-.46-.73.15-.78.72,0,.06-.06.07-.07.13-.08-.21-.85-.1-.88-.07-.2.23.1.8.1.85,0,0-.13-.02-.13.03,0,.25,0,.5,0,.75-.21,0-.6.11-.85.1-.04.06.01.74,0,.88-.03.33-.09.57-.13.85h-.72c-.09-.83.09-.93-.88-.85-.14,1.01,0,.83.81.85.04.19-.05.56,0,.72-.04.17-.63.16-.91.2-.69.09-1.03-.25-.78.85-.02,0-.04,0-.07,0-.87.06-.9-.27-.85.85-.31,0-.61,0-.91-.07.02-.54-.01-1.09,0-1.63,0,0,.06-.06.07-.07.96.08.87-.01.91-.91,1.14.25.79-.07.78-.78,0-.02,0-.04,0-.07.15-.03.82.04.88,0,.07-.05.03-.71.03-.85.14,0,.8.03.85-.03,0-.27-.01-.54,0-.81,0-.02,0-.04,0-.07,1.34.45.75-.64.94-.78.03-.02.75.02.81-.1.08-.14-.07-.69-.07-.81.01-.28.06-.55.07-.85,0-.02,0-.04,0-.07,1.07.23.91.02.91-.85.16,0,.86.04.91-.03.07-.25-.06-.61-.07-.81.86-.04.99.28.91-.85.28,0,.58-.06.85-.07.21,0,.59.13.85.07Z"/>
  <path class="cls-5" d="M17.92,15.61c.27.02.57.1.85.1,0,.25-.01.5,0,.75-1.44.09-2.92.13-4.36,0v-.78c1.1,0,2.46-.12,3.51-.07Z"/>
  <path class="cls-5" d="M29.5,15.67v.78c-1.44.13-2.92.09-4.36,0,.01-.26-.07-.51,0-.75.27,0,.58-.09.85-.1,1.08-.04,2.39.07,3.51.07Z"/>
  <path class="cls-7" d="M17.92,10.27c-.16.21-.62.14-.91.13-.02-.15.03-.77,0-.81-.07-.1-.63.02-.75-.03-.21-.09-.03-.72-.1-.81-.08-.11-.75.08-.85-.13-.26-.59.57-.81-.85-.81,0-.28.01-.57,0-.85-.01-.3-.19-.59.07-.85.16.01.71-.07.78.1.06.28-.09,1.4,0,1.56.09.18.75.05.81.1.1.07-.02.63.03.75.09.21.77.02.85.13.07.09-.11.72.1.81.12.05.71-.05.78,0,.09.06,0,.58.03.72Z"/>
  <path class="cls-7" d="M19.61,14.76c-.03-.14.04-.76,0-.81-.05-.07-.65-.03-.78-.03-.03-.3-.2-1.57.07-1.69.09-.04.58,0,.72.03.07.11-.08,1.37,0,1.56.12.28,1.2-.3.81.94-.27,0-.54,0-.81,0Z"/>
  <path class="cls-7" d="M25.08,12.22c-.01.54.02,1.09,0,1.63,0,.02,0,.04,0,.07-.85-.06-.9-.01-.85.85-.25,0-.5,0-.75,0-.24-1.3.34-.65.72-.85.23-.12,0-1.53.1-1.66.07-.1.66.02.78-.03Z"/>
  <path class="cls-4" d="M30.28,6.95c0,.13.15.68.07.81-.07.11-.78.07-.81.1-.2.14.4,1.23-.94.78,0-.24.05-.57-.07-.78,0,0,.03-.12.13-.13.09,0,.7.15.81.07.07-.28.02-.57.03-.85h.78Z"/>
  <path class="cls-7" d="M11.81,3.38c-.22.2-.55.13-.85.13-.32,0-.6-.04-.91-.07v-.85c.55.01,1.11,0,1.66,0,.03.02.09.67.1.78Z"/>
  <path class="cls-7" d="M33.73,2.6c.24.17.09.55.13.85-.26,0-.56.07-.85.07-.24,0-.84.09-.85-.13.01-.14-.04-.73.03-.78.51,0,1.02,0,1.53,0Z"/>
  <path class="cls-7" d="M35.62,1.82v.78s-.04,0-.07,0c-.29,0-.54.07-.85.07-.32,0-.74-.13-.78-.13.02-.14-.05-.72.03-.78.13-.09,1.41.07,1.66.07Z"/>
  <path class="cls-3" d="M17.08,13.85c.26,0,.57.06.85.07.01.3,0,.61,0,.91-.82-.32-2.04.51-1.76-.85.2,0,.7-.13.91-.13Z"/>
  <path class="cls-7" d="M18.77,12.09l-.81.07c-.06-.04-.03-.77-.03-.91,0-.29-.08-.69.13-.85.16.05.63-.09.72.1.09.21-.07,1.26,0,1.59Z"/>
  <path class="cls-7" d="M19.78,9.56c.08-.04.69-.03.75.1.05.1.03,1.6-.1,1.66-.06.03-.72,0-.75-.03.05-.25-.11-1.63.1-1.72Z"/>
  <path class="cls-7" d="M25.92,10.47c0,.13.14.61.13.78-.04.9.05.99-.91.91.28-.62-.61-2.06.78-1.69Z"/>
  <path class="cls-7" d="M9.99,2.6c-.25,0-.58.07-.78.07-.83-.03-1.01.06-.91-.85.25,0,1.52-.16,1.66-.07.08.06,0,.7.03.85Z"/>
  <path class="cls-7" d="M29.37,6.11c.2.15.14.57.13.85s.03.57-.03.85c-.11.08-.73-.07-.81-.07v-1.59c.05-.07.59-.03.72-.03Z"/>
  <path class="cls-7" d="M22.64,11.31l.75.03c-.14.74.48,2.07-.78,1.69l.03-1.72Z"/>
  <polygon class="cls-7" points="20.62 11.31 21.37 11.35 21.34 13 20.59 12.97 20.62 11.31"/>
  <path class="cls-7" d="M24.13,9.56l.1,1.72s-.63.06-.68.03c-.13-.06-.15-1.59-.1-1.66.07-.1.56.05.68-.1Z"/>
  <path class="cls-6" d="M31.26,5.2c0,.87.16,1.08-.91.85,0-.24.05-.57-.07-.78,0,0,.13-.12.13-.13.26.25.58.07.85.07Z"/>
  <path class="cls-6" d="M13.56,5.26c.01.28,0,.57,0,.85-.27-.01-.54,0-.81,0,0-.29-.09-.64-.1-.91.29.01.64.04.91-.07,0,.04,0,.09,0,.13Z"/>
  <path class="cls-4" d="M33.01,3.51c.08,1.13-.06.81-.91.85,0-.28-.02-.57,0-.85,0-.16.06-.12.07-.13,0,.22.61.13.85.13Z"/>
  <path class="cls-6" d="M31.26,4.35c.28-.02.57.01.85,0,0,.2.13.56.07.81-.05.07-.75.03-.91.03,0-.22.08-.79-.13-.78,0,0-.03-.05.13-.07Z"/>
  <path class="cls-6" d="M26.9,9.56c.28-.01.57.01.85,0,0,.14.03.8-.03.85-.06.04-.73-.03-.88,0-.02-.28.06-.59-.07-.85.04,0,.09,0,.13,0Z"/>
  <path class="cls-4" d="M26.83,10.47c0,.71.36,1.03-.78.78,0-.17-.13-.65-.13-.78,0-.06.06-.07.07-.13l.85.13Z"/>
  <path class="cls-4" d="M18.05,10.4c-.21.16-.13.56-.13.85-.97.12-.81,0-.91-.85.29,0,.75.08.91-.13.04.16-.02.09.13.13Z"/>
  <path class="cls-7" d="M13.56,5.13c-.27.1-.63.08-.91.07,0-.29-.06-.63.13-.85.16.01.71-.07.78.1.01.23-.02.46,0,.68Z"/>
  <path class="cls-7" d="M26.77,9.56c.12.26.05.57.07.85,0,.02,0,.04,0,.07l-.85-.13c0-.16-.07-.71.1-.78.23-.01.46.02.68,0Z"/>
  <path class="cls-4" d="M14.41,6.11s.09,0,.13,0c-.26.25-.08.55-.07.85h-.85c0-.22-.06-.58-.07-.85.28.01.57-.01.85,0Z"/>
  <path class="cls-1" d="M30.48,9.56c-.22.16-.12.55-.13.85l-.85.07c.01-.14-.04-.82,0-.88.25,0,.63-.09.85-.1,0,0-.03.06.13.07Z"/>
  <path class="cls-6" d="M9.99,2.6s.04,0,.07,0v.85c-.14,0-.6.1-.78,0-.04-.02-.04,0-.07-.07-.05-.12.04-.55,0-.72.2,0,.53-.07.78-.07Z"/>
  <path class="cls-2" d="M34.71,2.66v.72s0,.09,0,.13c-.26.07-.63-.07-.85-.07-.04-.29.11-.67-.13-.85.13,0,.14-.07.2-.07.04,0,.46.13.78.13Z"/>
  <path class="cls-6" d="M11.87,3.51c0,.13-.07.54-.07.78l-.81.07-.03-.85c.29,0,.62.07.85-.13,0,.06.06.07.07.13Z"/>
  <path class="cls-6" d="M12.65,4.35s.09,0,.13,0c-.19.22-.14.56-.13.85-.27-.01-.54,0-.81,0-.07-.05-.03-.71-.03-.85h.85Z"/>
  <path class="cls-6" d="M28.59,8.71c-.01.27,0,.54,0,.81-.05.07-.71.03-.85.03.01-.28-.01-.57,0-.85,0-.04,0-.09,0-.13.23.22.55.11.85.13Z"/>
  <path class="cls-6" d="M29.5,6.11c.28,0,.56,0,.85,0,0,.29-.05.57-.07.85h-.78c0-.28.07-.7-.13-.85.04,0,.09,0,.13,0Z"/>
  <path class="cls-7" d="M14.41,6.11c-.28-.01-.57.01-.85,0,0-.28.01-.57,0-.85.15.03.79-.05.85.03.04.06-.03.67,0,.81Z"/>
  <path class="cls-4" d="M26.83,13.07c-.03.15.05.79-.03.85-.03.02-.68,0-.81,0-.06-1.12-.02-.78.85-.85Z"/>
  <path class="cls-7" d="M12.65,4.35h-.85s0-.04,0-.07c0-.24.07-.65.07-.78.92-.07.8,0,.78.85Z"/>
  <path class="cls-7" d="M27.75,8.71c-.01.28.01.57,0,.85-.28.01-.57-.01-.85,0,.03-.15-.05-.79.03-.85.06-.04.67.03.81,0Z"/>
  <path class="cls-7" d="M30.28,5.26c.12.21.06.54.07.78,0,.02,0,.04,0,.07-.28,0-.56,0-.85,0-.12-1.35.23-.63.78-.85Z"/>
  <path class="cls-7" d="M32.1,3.51c-.02.28,0,.57,0,.85-.28.01-.57-.02-.85,0-.06-.89-.04-.9.85-.85Z"/>
  <path class="cls-4" d="M25.08,13.91c0,.14.03.8-.03.85-.27,0-.54,0-.81,0-.06-.86,0-.91.85-.85Z"/>
  <path class="cls-7" d="M28.53,7.86c.12.21.06.54.07.78,0,.02,0,.04,0,.07-.3-.02-.62.09-.85-.13,0-.13-.03-.67.03-.72.24-.02.51.03.75,0Z"/>
  <path class="cls-3" d="M29.37,11.31c-.02.15.05.86-.03.91-.1.07-.67.04-.75-.2-.05-.15.04-.53,0-.72.02,0,.04,0,.07,0h.72Z"/>
  <path class="cls-4" d="M27.68,12.22c-.04.17.05.63,0,.75-.07.17-.62.08-.78.1-.25-1.09.09-.76.78-.85Z"/>
  <path class="cls-7" d="M31.13,4.42c.21,0,.13.56.13.78-.26,0-.59.18-.85-.07.05-.13-.06-.65.03-.72.04-.03.55.02.68,0Z"/>
  <path class="cls-7" d="M24.33,8.71s.72,0,.75.03c.04.81.1.93-.78.78.03-.15-.05-.76.03-.81Z"/>
  <path class="cls-7" d="M18.87,8.71s.72,0,.75.03c.04.81.1.93-.78.78.03-.15-.05-.76.03-.81Z"/>
  <path class="cls-4" d="M19.61,14.76c-.13,0-.74.03-.78-.03-.03-.04.01-.67,0-.81.13,0,.73-.03.78.03.04.06-.03.67,0,.81Z"/>
  <path class="cls-3" d="M37.37,4.35c0-.15.03-.68,0-.75-.11-.24-.75.06-.91-.23v-.65c.11.01.76-.15.88-.07.1.07-.02.56.03.68.12.32,1.45.1,1.79.16l.03-.81c-1.41.31-1.11-1.39-.1-.94.23.1-.06.79.26.91.45.17.92-.39.81.75-.09.21-.72.03-.88.1-.21.09-.02.77-.13.85-.07.05-1.54,0-1.79,0Z"/>
  <path class="cls-3" d="M32.95,6.95c.05,1.4.07.57.75.85.35.14.28,1.32-.65.91-.21-.14-.01-.76-.13-.85-.03-.02-.75-.02-.78,0-.1.07.02.63-.03.75-.09.21-.72.03-.81.1-.07.05-.02.59-.03.72,0,0-.06-.03-.07.13-.24,0-.48,0-.72,0-.16,0-.12-.07-.13-.07,0-.25,0-.5,0-.75,0-.05.13-.03.13-.03.94.06.72-.07.78-.78,0-.06.06-.07.07-.13.13-.03.69.04.75,0,.07-.05.02-.59.03-.72.01-.16.06-.12.07-.13h.78Z"/>
  <path class="cls-4" d="M37.31,12.16c0,1.44-.12.57-.75.85-.16.07-.09.62-.1.78,0,.04,0,.09,0,.13-.24.05-.82-.13-.85.13-.09-.37-.63,0-.91-.23-.02-.03-.01-.68,0-.72.12-.26,1.52.05,1.66-.03.34-.22-.39-1.19.94-.91Z"/>
  <path class="cls-1" d="M42.97,1.1c.09.36-.07,1.06,0,1.46-.07.16-.74.09-.91.1-.38-1.35.49-.73.75-.91.12-.09-.12-.62.16-.65Z"/>
  <path class="cls-1" d="M41.99,2.66c.14.62-.09,1.15-.78.85-.3-.13.04-.75-.26-.91.16-.04.09.03.13-.13.1.31.58.19.91.2Z"/>
  <path class="cls-3" d="M41.08,2.47c-.04.16.03.09-.13.13-.08.02-.75,0-.78-.03-.08-.92.03-.85.88-.81.04.03.05.64.03.72Z"/>
  <path class="cls-4" d="M36.46,2.73v.65s0,.09,0,.13c-.2.03-.55-.05-.72,0-.28-.19-.02-.61-.2-.91.02,0,.04,0,.07,0,.27,0,.55-.02.81,0,.05,0,.03.13.03.13Z"/>
  <path class="cls-1" d="M31.19,9.56c0-.16.06-.12.07-.13.08.31.74-.02.85.23.05.12-.04.55,0,.72-.92.15-.94.04-.91-.81Z"/>
  <path class="cls-9" d="M42.97,1.1c-.28.03-.04.56-.16.65-.25.18-1.13-.44-.75.91-.02,0-.04,0-.07,0-.33,0-.81.11-.91-.2.02-.08,0-.69-.03-.72-.85-.03-.96-.11-.88.81.03.04.7.06.78.03.3.16-.04.78.26.91-.29.1-.03.69-.16.85-.09.1-.83.02-.88.1-.07.11.08,1.37,0,1.56-.09.21-.72.03-.88.1-.21.09-.02.77-.13.85-.1.07-.78-.11-.88.1-.08.19.07,1.46,0,1.56s-.84-.04-.91.07c-.08.11.09,1.43,0,1.63-.1.23-.81-.03-.91.2-.01.03-.01.68,0,.72.09.21.77.02.85.13.02.03,0,.68,0,.81-1.33-.28-.6.69-.94.91-.13.09-1.54-.23-1.66.03-.01.03-.02.68,0,.72.28.22.82-.14.91.23.04.17-.03.49,0,.68-1.35-.27-.71.81-1.01.94-.19.09-3.7,0-4.26,0-.28,0-.56,0-.85,0-1.13,0-2.43-.11-3.51-.07-.33-1.51,1.01-.56,1.66-.85.21-.09.02-.77.13-.85.07-.05.74.06.81-.03s-.11-.78.1-.88c.13-.06.74.07.81-.03.06-.09-.06-1.54,0-1.63.07-.1.78.03.85-.07.03-.04,0-.73,0-.88.01-.29-.09-.68.13-.85.24,0,.48,0,.72,0-.03.85-.01.96.91.81-.04-.17.05-.6,0-.72-.11-.25-.76.08-.85-.23.01-.13-.04-.67.03-.72.09-.07.72.11.81-.1.05-.12-.07-.68.03-.75.03-.02.75-.02.78,0,.12.08-.08.71.13.85.93.41,1-.77.65-.91-.67-.27-.7.55-.75-.85,0-.04,0-.09,0-.13.17.27.56.06.75.13.3.12.07.65.2.85.02.03.75.02.78,0,.1-.07-.02-.63.03-.75.09-.21.67-.03.81-.1.21-.09.02-.77.13-.85.06-.04.72.04.78,0,.1-.07-.02-.63.03-.75.21-.49.94.68.91-1.01.25,0,1.72.05,1.79,0,.11-.08-.08-.75.13-.85.15-.07.78.11.88-.1.11-1.14-.37-.58-.81-.75-.32-.12-.03-.81-.26-.91-1.01-.45-1.32,1.25.1.94l-.03.81c-.34-.07-1.67.16-1.79-.16-.05-.12.06-.61-.03-.68-.12-.08-.77.08-.88.07,0,0,.02-.13-.03-.13-.27-.02-.55,0-.81,0v-.78c.25,0,.55-.05.81-.07.05,0,0-.13.1-.13,0,0-.02.13.03.13.13,0,.68.02.72,0,.09-.06-.05-.75.13-.85.48-.25,4.67.19,5.53,0,.06.03.02.14.03.2Z"/>
  <rect class="cls-4" x="33.88" y="13.93" width=".81" height=".81" transform="translate(18.59 48.02) rotate(-87.71)"/>
  <path class="cls-4" d="M32.95,6.11v.72s0,.09,0,.13h-.78c0-.12-.14-.58-.07-.75s.68-.08.85-.1Z"/>
  <path class="cls-2" d="M30.35,15.67c.08,1.08-.05.71-.85.78v-.78c.28,0,.56,0,.85,0Z"/>
  <path class="cls-3" d="M8.29,3.64c-.05.9.02.67.72.72.12,0,.14.06.2.07-.07.92,0,.8.85.78.03.27-.06.55.07.81.28.01.57.07.85.1-.11.57.02,1.15.72.85l.13.13c-.42.96.64.63.85.72,0,0-.01.08.07.07-.03.19.04.47,0,.65,0,.04-.18.14-.2.2-.14-.04-.51.05-.62,0-.21-.09-.03-.68-.1-.81-.08-.16-.58-.06-.72-.1-.16-.04-.09.03-.13-.13-.04-.13.06-.63-.1-.72-.03-.02-.75-.02-.78,0-.09.06,0,.58-.03.72-.04.16.03.09-.13.13-.08.02-.69,0-.72-.03-.3-1.57,1.12-.06.85-1.63-.03-.04-.78-.06-.81-.03-.19.13.37,1.14-.91.85-.07-.05-.03-.77-.03-.91.14,0,.78.02.81,0,.04-.03.06-.7.03-.75-.08-.15-.68-.08-.85-.1,0-.14.03-.8-.03-.85-.29-.01-.59.02-.88,0-.01-.14.04-.79-.03-.85l-.81.03.03.81c.27.01.55-.02.81,0,.01.15-.03.78.1.85.06.03.65-.01.81,0,.01.28-.01.57,0,.85-1.51.1-.63-.11-.91-.75-.09-.21-.7-.01-.85-.13-.13-.11,0-.75-.1-.81-.11-.08-1.46.09-1.69,0-.11-.04,0-.81-.13-.91-.04-.03-.77.22-.88-.03-.04-.09.01-.64,0-.81,1.64,0,.65.36.98.81.06.08,1.65.08,1.72.03.11-.08-.08-.75.13-.85.04-.02.75-.02.78,0,.1.07-.02.62.03.75.1.25.63.15.88.16.05,0,.03.13.03.13Z"/>
  <path class="cls-3" d="M16.17,12.29c-.07.21.06.56.07.72,0,.23-.06.79-.2.91-.13,0-.67.04-.72-.03-.06-.35.15-1.6-.16-1.72-.13-.05-.68.07-.75-.03-.02-.03-.01-.71,0-.75,0,0,.12-.13.13-.13.03-.01.65-.01.68,0,.22.15.03.78.1.88.05.07.67.02.81.03.05,0,.03.13.03.13Z"/>
  <path class="cls-1" d="M2.83,2.47c.01.11-.02.15.13.13l-.13.1c.07.24-.07.63-.07.81-1.39.31-.72-.76-.94-.91-.08-.05-.81.07-.88-.03-.02-.03,0-.62,0-.75,1.14-.23.88-.09,1.07.85l.81-.2Z"/>
  <path class="cls-3" d="M13.5,8.65s.06.1.07.13c.19.6-.42.88.85.78,0,.08.07.06.07.07-.01.26,0,.52,0,.78-.08-.01-.06.06-.07.07-.13.06-.66-.04-.85,0-.06-.88.3-.99-.85-.91,0-.04,0-.09,0-.13-.02-.24.11-.63-.2-.72.02-.05.19-.15.2-.2,0,.27.61.05.78.13Z"/>
  <path class="cls-4" d="M8.29,14.04s.02-.13-.03-.13c-.27,0-.54,0-.81,0,0-.04,0-.09,0-.13,0-.23.01-.48,0-.72.72,0,2.06-.49,1.76.68-.14.24-.35.05-.62.1-.11.02-.28.19-.29.2Z"/>
  <path class="cls-3" d="M10.96,7.67c.04.16-.03.09.13.13-.29.16.01.81-.23.91-.03.01-.68.01-.72,0-.24-.11.06-.75-.23-.91.16-.04.09.03.13-.13.16.2.75.2.91,0Z"/>
  <path class="cls-1" d="M16.95,13.07c.06,0,.07.06.13.07v.72c-.21,0-.71.14-.91.13,0,0,.03-.05-.13-.07.14-.12.2-.68.2-.91.24-.06.51.05.72.07Z"/>
  <path class="cls-1" d="M12.72,9.56c-.02.89.15.94-.91.81v-.78l.91-.16s0,.09,0,.13Z"/>
  <path class="cls-1" d="M14.41,10.47l.13.78s-.13.12-.13.13c-.15-.18-.75.06-.85-.16-.04-.08.01-.59,0-.75.19-.04.71.06.85,0Z"/>
  <path class="cls-3" d="M3.74,2.6c-.26,0-.52,0-.78,0-.15.02-.12-.02-.13-.13-.01-.1-.02-.68.03-.72h.85c.07.05.02.7.03.85Z"/>
  <path class="cls-4" d="M10.05,14.76h-.85c-.03-.89-.11-.9.81-.85.06.04.03.72.03.85Z"/>
  <path class="cls-9" d="M10.05,14.76c0,.12.02.72,0,.75-.09.13-.73-.13-.78.16-.17-.09.03-.74-.13-.91.02,0,.04,0,.07,0h.85Z"/>
  <path class="cls-2" d="M14.41,15.67v.78c-.79-.07-.92.3-.85-.78.28,0,.56,0,.85,0Z"/>
  <path class="cls-5" d="M7.45,13.91c0,.14.03.8-.03.85l-.88-.03v-.85c.32-.14.65.19.91-.1,0,.04,0,.09,0,.13Z"/>
  <path class="cls-5" d="M36.46,13.91s0-.09,0-.13c.62.17,1.14-.14.91.81-.06.27-.78.23-.88.16-.07-.05-.03-.71-.03-.85Z"/>
  <path class="cls-4" d="M35.62,3.64c-.04.13.06.63-.1.72-.13.07-.72-.11-.81.1-.22.49.51.88-.85.75.02-.17-.04-.66,0-.75.09-.21.77-.02.85-.13.02-.03,0-.68,0-.81,0-.04,0-.09,0-.13.2.31.71-.05.91.26Z"/>
  <path class="cls-4" d="M31.26,7.93c-.06.71.16.84-.78.78,0-.05-.3-.62-.1-.85.03-.04.8-.15.88.07Z"/>
  <path class="cls-4" d="M33.86,5.33c-.01.15.04.52,0,.62-.1.26-.61.14-.85.16l.1-.91.75.13Z"/>
  <path class="cls-4" d="M28.66,11.31s-.04,0-.07,0c-.82-.01-.96.17-.81-.85.97-.08.78.01.88.85Z"/>
  <path class="cls-4" d="M32.1,7.08c0,.13.04.67-.03.72-.06.04-.61-.03-.75,0,.06-.56-.42-1.18.78-.72Z"/>
  <path class="cls-9" d="M7.38,1.69c.28.01.64.12.91.13-.1.91.08.81.91.85.04.17-.05.6,0,.72-.16.22-.53.12-.81.13-.05,0,0,.13-.1.13,0,0,.02-.13-.03-.13-.24-.02-.78.09-.88-.16-.05-.13.07-.68-.03-.75-.03-.02-.74-.02-.78,0-.21.09-.02.77-.13.85-.07.05-1.67.05-1.72-.03-.32-.45.67-.81-.98-.81,0-.14.04-.8-.03-.85h-.85c-.05.04-.05.61-.03.72l-.81.2c-.19-.93.07-1.08-1.07-.85,0-.17-.06-.91.1-.98h5.33c.27.13.09.84.2.91.11.08.7-.07.81-.07Z"/>
  <polygon class="cls-3" points="4.75 1.75 5.53 1.75 5.63 2.56 4.75 2.6 4.75 1.75"/>
  <path class="cls-4" d="M9.27,3.44l-.26.91c-.7-.05-.77.18-.72-.72.1,0,.05-.13.1-.13.28,0,.66.09.81-.13.03.07.02.04.07.07Z"/>
  <path class="cls-6" d="M17.01,10.4c-1.56-.05-.52-.36-.85-.81-.08-.11-.75.08-.85-.13-.2-.45.48-.9-.78-.75,0-.06-.06-.07-.07-.13,0-.26,0-.52-.07-.78.02,0,.04,0,.07,0,1.42,0,.59.23.85.81.09.21.77.02.85.13.07.09-.11.72.1.81.12.05.68-.07.75.03.03.04-.02.66,0,.81Z"/>
  <path class="cls-4" d="M14.54,8.71c0,.19-.12.64-.13.85-1.27.1-.66-.18-.85-.78.3-.18.72.09.91-.2,0,.06.06.07.07.13Z"/>
  <path class="cls-9" d="M17.01,10.4c.1.85-.06.97.91.85,0,.14-.03.87.03.91l.81-.07s.15.06.13.13c-.27.12-.09,1.4-.07,1.69-.3-.01-.61,0-.91,0-.01-.28.04-.57-.03-.85-.11-.08-.72.07-.81.07-.06,0-.07-.06-.13-.07.31-1.38-.27-.73-.78-.78,0,0,.02-.13-.03-.13-.14-.01-.76.04-.81-.03-.07-.1.12-.73-.1-.88-.03-.01-.65-.01-.68,0l-.13-.78s-.01-.08.07-.07c.89.03.9.11.85-.81l-.85.03s-.07.02-.07-.07c0-.2.13-.66.13-.85,1.26-.15.58.3.78.75.09.21.77.02.85.13.32.46-.71.77.85.81Z"/>
  <path class="cls-4" d="M15.42,10.4c.06-.03.72,0,.75.03-.04.18.09.8-.1.88-.87.39-.9-.8-.65-.91Z"/>
  <path class="cls-4" d="M14.47,10.4c0-.26-.01-.52,0-.78l.85-.03c.06.93.04.85-.85.81Z"/>
  <path class="cls-4" d="M17.92,13.91c-.28,0-.58-.06-.85-.07v-.72c.1,0,.7-.15.81-.07.07.28.02.57.03.85Z"/>
  <path class="cls-4" d="M16.95,13.07c-.2-.02-.47-.12-.72-.07,0-.16-.13-.5-.07-.72.51.05,1.09-.6.78.78Z"/>
  <path class="cls-4" d="M14.47,6.95c.01.28,0,.57,0,.85-.02,0-.04,0-.07,0-.12,0-.71.05-.75.07-.22.1,0,.64-.16.78-.17-.08-.79.14-.78-.13.04-.18-.03-.46,0-.65.16-.15.73,0,.81-.07.03-.02.09-.74.1-.85h.85Z"/>
  <path class="cls-9" d="M10.05,3.44c.31.02.59.07.91.07l.03.85.81-.07s0,.04,0,.07c0,.14-.03.8.03.85.27,0,.54-.01.81,0,0,.27.1.62.1.91.27,0,.54-.01.81,0,0,.26.07.62.07.85,0,.11-.06.82-.1.85-.08.06-.66-.08-.81.07-.08.01-.06-.06-.07-.07l-.03-.85c-.24.04-.71-.1-.81.13l-.13-.13c.23-.1.09-.57.13-.81-.05-.07-.7-.02-.85-.03-.28-.03-.56-.08-.85-.1-.12-.26-.04-.54-.07-.81-.02-.17.07-.77-.1-.85s-.63.07-.75.07c-.05,0-.07-.06-.2-.07l.26-.91c.18.1.64,0,.78,0Z"/>
  <path class="cls-9" d="M35.55,2.6c.18.3-.09.72.2.91-.16.04-.09-.02-.13.13-.2-.31-.71.05-.91-.26v-.72c.3,0,.55-.07.85-.07Z"/>
  <path class="cls-9" d="M37.37,4.35c-.3,0-.61-.01-.91,0,.01-.28,0-.56,0-.85,0-.04,0-.09,0-.13.16.29.81-.01.91.23.03.07,0,.6,0,.75Z"/>
  <path class="cls-3" d="M35.75,3.51c.17-.05.52.03.72,0,0,.28.01.56,0,.85-.14,0-.8-.03-.85.03l.03.81.81-.03c0-.27-.01-.54,0-.81.3-.01.61,0,.91,0,.03,1.69-.7.52-.91,1.01-.05.12.07.68-.03.75-.06.04-.72-.04-.78,0-.11.08.08.75-.13.85-.15.07-.72-.11-.81.1-.05.12.07.68-.03.75-.03.02-.76.03-.78,0-.12-.19.11-.73-.2-.85-.19-.07-.58.14-.75-.13v-.72s.04,0,.07,0c.24-.02.75.09.85-.16.04-.09-.01-.46,0-.62,0-.04,0-.09,0-.13,1.35.13.63-.26.85-.75.09-.21.68-.03.81-.1.16-.08.06-.58.1-.72.04-.15-.03-.09.13-.13Z"/>
  <path class="cls-1" d="M34.8,5.26c.47-.21,1.02.18.81.68-.3.73-1.46-.4-.81-.68Z"/>
  <path class="cls-9" d="M36.46,4.35c-.01.27,0,.54,0,.81l-.81.03-.03-.81c.05-.07.71-.03.85-.03Z"/>
  <rect class="cls-1" x="33.88" y="6.12" width=".81" height=".81" transform="translate(26.39 40.53) rotate(-87.71)"/>
  <path class="cls-9" d="M8.29,5.2c-.16-.01-.75.03-.81,0-.13-.07-.08-.7-.1-.85.29.02.59-.01.88,0,.07.05.03.71.03.85Z"/>
  <path class="cls-9" d="M10.96,7.67c-.16.2-.75.2-.91,0,.04-.13-.06-.65.03-.72.03-.02.75-.02.78,0,.16.08.06.58.1.72Z"/>
  <path class="cls-9" d="M7.38,4.35c-.27-.02-.54.01-.81,0l-.03-.81.81-.03c.07.05.02.7.03.85Z"/>
  <path class="cls-4" d="M10.05,5.2c-.85.02-.91.14-.85-.78.12,0,.58-.14.75-.07s.08.68.1.85Z"/>
  <path class="cls-1" d="M8.29,6.04c-.01-.28.01-.57,0-.85.16.01.77-.05.85.1.02.05,0,.72-.03.75-.03.02-.67,0-.81,0Z"/>
  <path class="cls-4" d="M11.68,6.95c-.69.3-.82-.28-.72-.85.15.02.79-.04.85.03-.04.24.1.71-.13.81Z"/>
  <path class="cls-4" d="M12.65,7.8c-.2-.09-1.27.24-.85-.72.1-.23.57-.09.81-.13l.03.85Z"/>
  <path class="cls-9" d="M14.47,8.58c-.19.28-.61.02-.91.2,0-.03-.06-.13-.07-.13.17-.14-.05-.68.16-.78.03-.02.63-.06.75-.07.07.26.06.52.07.78Z"/>
  <path class="cls-3" d="M18.77,17.36c.01.27.06.57.07.85s0,.56,0,.85c-.29.02-.61.09-.91.1-.08.11.09,1.43,0,1.63-.09.21-.78.03-.88.1-.06.05-.03.65-.03.78l-.85.03c-.01.27.02.55,0,.81-.01.17.04.73,0,.81-.09.21-.77.02-.85.13-.02.03,0,.68,0,.81-1.51-.03-.66.52-.91.88-.16.23-1.13-.46-.85.88-.13,0-.8-.03-.85.03s.03.73,0,.88c-.02,0-.04,0-.07,0-.14,0-.8.03-.85-.03.05-.24-.06-1.61,0-1.69.16-.23,1.12.45.85-.85-1.35-.24-.64.31-.85.72-.06.11-.77.13-.81.1-.13-.09.06-1.46-.03-1.66-.1-.23-.81.03-.91-.2-.3-1.27.76-.63.91-.85.07-.11-.08-1.37,0-1.56.09-.21.77-.02.85-.13.02-.03,0-.62,0-.75,0-.02,0-.04,0-.07.24-.05,1.64.06,1.72,0,.1-.07-.02-.74.03-.81.07-.1.78.03.85-.07s-.11-.78.1-.88c.5-.22.96.53.81-.85,1.15,0,2.3,0,3.45,0Z"/>
  <path class="cls-9" d="M16.26,18.21c.22-.1,1.24.07,1.56,0,.5,1.31-.55.75-.78.91-.11.08.08.75-.13.85-.12.05-.68-.07-.75.03-.07.11.08,1.37,0,1.56-.09.21-.67.03-.81.1-.21.09-.03.72-.1.81-.08.11-.75-.08-.85.13-.21.46.48.96-.81.81-.02-.22-.08-1.59-.03-1.66.07-.1.63.02.75-.03.21-.09.02-.77.13-.85.1-.07.78.11.88-.1.09-.2-.08-1.52,0-1.63.07-.1.63.02.75-.03.23-.1-.03-.81.2-.91Z"/>
  <path class="cls-9" d="M12.75,23.41c.85-.07.91,0,.78.85-.88.06-.9.04-.78-.85Z"/>
  <path class="cls-9" d="M10.99,22.57l.81.03c.07.85,0,.91-.85.78l.03-.81Z"/>
  <path class="cls-4" d="M10.57,19.12c.66.11.24.72.42.85.06.04.65-.05.81.07,0,.13.02.72,0,.75-.08.11-.75-.08-.85.13-.08.19.07,1.46,0,1.56-.15.22-1.21-.42-.91.85.1.23.81-.03.91.2.09.2-.09,1.57.03,1.66.05.03.76.01.81-.1.21-.4-.5-.96.85-.72.28,1.29-.68.62-.85.85-.06.09.05,1.45,0,1.69.05.07.71.03.85.03.48,1.34-.92.71-1.69.85,0-.55,0-1.11,0-1.66-.07-.16-.74-.09-.91-.1-.15-.83.5-1.97-.78-1.69-.08-1.62-.72-.57-.91-1.01-.05-.11-.05-2.3,0-2.41.09-.21.72-.03.81-.1s-.02-.74.03-.81c.07-.1.74.02.81-.03.21-.15-.35-1,.55-.85Z"/>
  <path class="cls-4" d="M9.3,21.66c.85-.38.88.73.72.85-.03.02-.78,0-.81-.03.03-.17-.09-.73.1-.81Z"/>
</svg>