<?xml version="1.0" encoding="UTF-8"?>
<svg id="Layer_1" data-name="Layer 1" xmlns="http://www.w3.org/2000/svg" viewBox="0 0 50 50">
  <defs>
    <style>
      .cls-1 {
        fill: #fff;
      }
    </style>
  </defs>
  <path class="cls-1" d="M27.28,26.24c-.13,0-.73-.03-.78.03.15.71-.47,2,.72,1.72.35.46-.03,3.12.13,3.35.07.1.74-.02.81.03.12.08-.08.82.13.91.13.06.74-.07.81.03.05.07-.01,1.47,0,1.72,0,.14-.02.78,0,.81.03.04.65.06.78.1.2.55-.01,1.15,0,1.69-1.25.28-.59-.69-.81-.85-.07-.05-.74.06-.81-.03-.1-.15.12-2.26,0-2.54-.09-.21-.78-.03-.88-.1s.02-.69-.03-.81c-.1-.22-.75.03-.85-.2-.14-.33.13-3.17-.03-3.29l-.94.03v5.2c-.18.03-.96.11-1.04-.07-.22-.5.18-4.88,0-5.14l-.94-.03c-.17.12.11,2.96-.03,3.29-.09.21-.67.03-.81.1-.21.09-.03.78-.1.88-.08.11-.75-.08-.85.13-.12.28.1,2.39,0,2.54-.07.1-.74-.02-.81.03-.1.07.02.74-.03.81-.07.1-.62-.02-.75.03-.32.12-.1,1.45-.16,1.79l-5.14.03c-.26-1.43.69-.77,1.66-.91.08-.04.16-.8.16-.91h.78c.3,0,.61,0,.91,0s.55-.03.85-.07c.27-.03.55.06.81-.07.13-.17-.04-.6-.03-.72.02-.28.05-.56.07-.85.14,0,.8.03.85-.03,0-.29-.01-.59,0-.88s-.05-1.54,0-1.66c.09-.21.67-.03.81-.1.23-.1-.03-.81.2-.91.12-.05.68.07.75-.03s0-2.18,0-2.5v-.85s.04,0,.07,0c.16,0,.78.06.85-.1-.07-.32.1-1.35,0-1.56s-.7-.01-.85-.13c-.07-.06-.09-.74-.07-.78.08-.11.75.08.85-.13.08-.19-.07-1.46,0-1.56s.75.03.88-.03c.21-.09.01-.83.13-.91.04-.03.94-.03.98,0,.12.08-.08.82.13.91.13.06.81-.07.88.03s-.08,1.37,0,1.56c.13.29,1.07-.33.78.94Z"/>
  <path class="cls-1" d="M36.9,34.95c.24,0,.57-.05.78.07-.02.14.03.71,0,.75-.07.1-.71-.03-.78.07-.1.14-.07,3.29,0,3.45.1.22.75-.03.85.2.05.12-.07.68.03.75.03.02.75.02.78,0,.19-.13-.37-1.14.91-.85v1.69c-.43-.13-2.23.15-2.47.07-.2-.07-.04-.68-.1-.81-.09-.21-.7-.02-.78-.13-.07-.1.11-.78-.1-.88-.13-.06-.74.07-.81-.03-.07-.09.11-.72-.1-.81-.5-.22-4.82.18-5.07,0-.13-.56-.08-1.13-.1-1.69.16-.22.56-.12.85-.13s.61,0,.91,0h1.63c0,.11.08.88.16.91.23.05,1.54-.06,1.63,0,.2.14-.4,1.22.91.91.14-.1-.04-1.58-.03-1.82.01-.54.12-1.11.07-1.66.07-.1.71-.03.85-.03Z"/>
  <path class="cls-1" d="M14.79,26.37c-.02.15.04.64-.03.72-.25.23-1.04-.36-.81.78-.02,0,.01.22-.33.13-.91-.15-.35.7-.55.85-.07.05-.74-.06-.81.03-.05.07.06.74-.03.81s-.72-.11-.81.1c-.05.11-.05,2.3,0,2.41.19.44.83-.62.91,1.01.02.45-.12,1.21-.13,1.69-1.39.31-.51-.99-.78-1.59-.09-.21-.77-.02-.85-.13-.12-.17.04-3.71-.07-4.23,1.39.05.61-.32.85-.85.09-.21.83-.01.91-.13.05-.07-.06-.74.03-.81s.78.11.88-.1c.06-.13-.07-.74.03-.81.07-.05,1.49-.06,1.59.13Z"/>
  <path class="cls-1" d="M37.82,34.89c.03-.44-.08-1.17-.07-1.69,0-.14-.03-.84,0-.88.08-.11.75.08.85-.13.05-.11.05-2.3,0-2.41-.09-.21-.72-.03-.81-.1-.07-.05,0-.77-.13-.85-.1-.05-.68.07-.75-.03-.05-.07.06-.74-.03-.81-.07-.05-.64.05-.75,0,0,0-.06-.06-.07-.07-.22-.5.52-.92-.85-.78-.02-.09-.05-.06-.07-.07.18-.26,0-.62,0-.85.23,0,1.59-.05,1.66,0,.1.07-.02.69.03.81.09.21.72.03.81.1.11.08-.08.75.13.85.15.07.72-.11.81.1.07.15-.11.72.1.81.12.05.68-.07.75.03.12.17.12,4.06,0,4.23-.07.1-.78-.03-.85.07-.29.4.63,2.06-.78,1.66Z"/>
  <path class="cls-1" d="M12.25,35.8c-.03.51-.12,1.02-.07,1.53l-.81.03-.03-1.53c.04-.06.77-.03.91-.03Z"/>
  <polygon class="cls-1" points="37.78 35.8 38.6 35.83 38.56 37.36 37.75 37.33 37.78 35.8"/>
  <rect class="cls-1" x="37.77" y="38.48" width=".81" height=".81" transform="translate(-2.21 75.48) rotate(-87.71)"/>
  <path class="cls-1" d="M28.29,15.96c.78-.11.91.1.72.85l-.75-.03.03-.81Z"/>
  <path class="cls-1" d="M21,15.96s.72,0,.75.03c.04.81.1.93-.78.78.03-.15-.05-.76.03-.81Z"/>
  <path class="cls-1" d="M13.1,34.89c.17,0,.84-.07.91.1,0,.55,0,1.11,0,1.66,0,.9-.54,2.01.78,1.89.31,1.26-.76.55-.91.88-.05.12.05.6,0,.72-.1.22-.68-.02-.78.2-.05.12.07.68-.03.75-.1.07-2.24.04-2.57-.03.05-.24-.06-1.61,0-1.69.07-.1.7.02.81-.03.18-.09.04-.78.13-.85.03-.02.68-.01.72,0,.26.12-.26,1.37.94.81l.07-3.38c-.07-.16-.74-.1-.91-.1.01-.28,0-.57,0-.85.27-.08.58-.07.85-.07Z"/>
  <path class="cls-1" d="M10.43,10.56c-.11,0-.7.15-.81.07-.1-.07.08-.78-.2-.91h-5.33c-.15.07-.1.81-.1.98,0,.13-.02.72,0,.75.07.1.8-.02.88.03.22.16-.44,1.22.94.91,0,.1.06.82.1.85.08.05.81-.07.88.03.08.11-.09,1.43,0,1.63.1.21.84.02.94.1s-.02.74.03.81c.08.12.82-.08.91.13.08.19-.08,1.45,0,1.56.08.12.82-.08.91.13.09.2-.08,1.52,0,1.63.09.12,1.32-.28.91.78-.17.44-1.21-.35-.91.98.08.12.82-.08.91.13.04.08,0,.64,0,.81.01.23,0,.48,0,.72-.27.29-.59-.04-.91.1v.85l.88.03c.07-.05.03-.71.03-.85.27,0,.54,0,.81,0,.05,0,.03.13.03.13-.09.95.09.69.85.72.16.17-.04.82.13.91.19.1,3.74,0,4.29,0-.08,1.08.05.71.85.78,1.43.13,2.92.09,4.36,0,.01.28-.01.57,0,.85,0,.02,0,.04,0,.07-1.15,0-2.3,0-3.45,0-.3,0-.61,0-.91,0-.28,0-.58.07-.85.07-.57,0-1.18-.13-1.76-.07,0-.26.03-.53-.03-.78-.22-.16-3.86.19-4.29,0-.21-.09-.03-.72-.1-.88-.09-.21-.77-.02-.85-.13-.07-.09.11-.72-.1-.81-.12-.05-.68.07-.75-.03-.08-.12.08-2.42,0-2.54-.07-.1-.84.04-.91-.07v-.85c.07-.1.84.04.91-.07.05-.06.03-1.49,0-1.56-.06-.15-.83-.13-.91-.07-.16.13.02,1.58-.1,1.66-.18-.04-.8.09-.88-.1-.03-.07-.05-1.5,0-1.56.07-.1.75.07.91-.13.07-.09.11-1.47.07-1.56-.1-.21-.84-.02-.94-.1-.11-.08.08-.75-.13-.85-.17-.07-.81.02-.85,0-.12-.08.05-1.46-.03-1.66-.09-.21-.78-.03-.88-.1s.04-.64-.1-.81c-.18-.22-.69,0-.85-.13-.13-.11,0-.75-.1-.81-.08-.05-.81.07-.88-.03-.1-.14.05-2.94.03-3.35.77.14,6.11-.18,6.38,0,.06.04.04.69.13.78.28.3,1.03-.43.81.85Z"/>
  <path class="cls-1" d="M35.15,26.24c-.3,0-.63.07-.91.07-.55,0-1.13-.06-1.69-.07-.3,0-.61,0-.91,0-1.14,0-2.28,0-3.42,0-.2-.32-.05-.62-.03-.91,1.44.09,2.92.13,4.36,0,.79-.07.92.3.85-.78.56,0,4.07.09,4.26,0,.3-.13-.34-1.21,1.01-.94-.03-.2.04-.51,0-.68.02-.26.6-.08.85-.13,0,.14-.03.8.03.85.1.07.81.11.88-.16.23-.95-.3-.65-.91-.81,0-.16-.07-.71.1-.78.62-.28.75.6.75-.85,0-.13.02-.78,0-.81-.08-.11-.75.08-.85-.13-.01-.03-.01-.68,0-.72.1-.23.81.03.91-.2.09-.2-.08-1.52,0-1.63.07-.1.84.04.91-.07.07-.11-.08-1.37,0-1.56.09-.21.78-.03.88-.1.11-.08-.08-.75.13-.85.15-.07.78.11.88-.1.08-.19-.07-1.46,0-1.56.05-.07.79,0,.88-.1.13-.16-.13-.75.16-.85.69.3.92-.23.78-.85.02,0,.04,0,.07,0,.17,0,.84.06.91-.1-.07-.4.09-1.1,0-1.46-.01-.06.03-.16-.03-.2-.86.19-5.05-.25-5.53,0-.18.09-.04.78-.13.85-.03.02-.59,0-.72,0-.05,0-.03-.13-.03-.13-.11-1.14.22-.54.68-.72.3-.12.08-.76.2-.85.26-.19,5.66.14,6.44,0-.02.41.13,3.21.03,3.35-.07.1-.75-.03-.88.03-.21.09-.01.83-.13.91-.07.05-.78-.05-.85,0-.1.07.03.78-.07.85s-.78-.11-.88.1c-.09.2.09,1.57-.03,1.66-.07.05-.72-.05-.85,0-.21.09-.02.77-.13.85-.1.07-.85-.12-.94.1-.04.1,0,1.57.07,1.63.14.11.84-.04.91.07.06.08-.04,1.39,0,1.63l-.94.03-.03-1.66h-.91c.07.33-.1,1.4,0,1.63.09.19,1.36-.16.91.85-.09.21-.83.01-.91.13-.1.15.12,2.2,0,2.47-.1.23-.81-.03-.91.2-.06.13.07.74-.03.81-.07.05-.74-.06-.81.03-.05.08.07.81-.03.88-.17.12-3.71-.09-4.23,0-.16.07-.1.62-.1.78Z"/>
  <path class="cls-1" d="M20.97,19.15c-.16.21-.62.14-.91.13-.02-.15.03-.77,0-.81-.07-.1-.63.02-.75-.03-.21-.09-.03-.72-.1-.81-.08-.11-.75.08-.85-.13-.26-.59.57-.81-.85-.81,0-.28.01-.57,0-.85-.01-.3-.19-.59.07-.85.16.01.71-.07.78.1.06.28-.09,1.4,0,1.56.09.18.75.05.81.1.1.07-.02.63.03.75.09.21.77.02.85.13.07.09-.11.72.1.81.12.05.71-.05.78,0,.09.06,0,.58.03.72Z"/>
  <path class="cls-1" d="M22.66,23.63c-.03-.14.04-.76,0-.81-.05-.07-.65-.03-.78-.03-.03-.3-.2-1.57.07-1.69.09-.04.58,0,.72.03.07.11-.08,1.37,0,1.56.12.28,1.2-.3.81.94-.27,0-.54,0-.81,0Z"/>
  <path class="cls-1" d="M28.12,21.1c-.01.54.02,1.09,0,1.63,0,.02,0,.04,0,.07-.85-.06-.9-.01-.85.85-.25,0-.5,0-.75,0-.24-1.3.34-.65.72-.85.23-.12,0-1.53.1-1.66.07-.1.66.02.78-.03Z"/>
  <path class="cls-1" d="M14.85,12.25c-.22.2-.55.13-.85.13-.32,0-.6-.04-.91-.07v-.85c.55.01,1.11,0,1.66,0,.03.02.09.67.1.78Z"/>
  <path class="cls-1" d="M36.77,11.47c.24.17.09.55.13.85-.26,0-.56.07-.85.07-.24,0-.84.09-.85-.13.01-.14-.04-.73.03-.78.51,0,1.02,0,1.53,0Z"/>
  <path class="cls-1" d="M38.66,10.69v.78s-.04,0-.07,0c-.29,0-.54.07-.85.07-.32,0-.74-.13-.78-.13.02-.14-.05-.72.03-.78.13-.09,1.41.07,1.66.07Z"/>
  <path class="cls-1" d="M21.81,20.97l-.81.07c-.06-.04-.03-.77-.03-.91,0-.29-.08-.69.13-.85.16.05.63-.09.72.1.09.21-.07,1.26,0,1.59Z"/>
  <path class="cls-1" d="M22.82,18.43c.08-.04.69-.03.75.1.05.1.03,1.6-.1,1.66-.06.03-.72,0-.75-.03.05-.25-.11-1.63.1-1.72Z"/>
  <path class="cls-1" d="M28.97,19.34c0,.13.14.61.13.78-.04.9.05.99-.91.91.28-.62-.61-2.06.78-1.69Z"/>
  <path class="cls-1" d="M13.03,11.47c-.25,0-.58.07-.78.07-.83-.03-1.01.06-.91-.85.25,0,1.52-.16,1.66-.07.08.06,0,.7.03.85Z"/>
  <path class="cls-1" d="M32.42,14.98c.2.15.14.57.13.85s.03.57-.03.85c-.11.08-.73-.07-.81-.07v-1.59c.05-.07.59-.03.72-.03Z"/>
  <path class="cls-1" d="M25.68,20.19l.75.03c-.14.74.48,2.07-.78,1.69l.03-1.72Z"/>
  <polygon class="cls-1" points="23.67 20.19 24.41 20.22 24.38 21.88 23.63 21.85 23.67 20.19"/>
  <path class="cls-1" d="M27.18,18.43l.1,1.72s-.63.06-.68.03c-.13-.06-.15-1.59-.1-1.66.07-.1.56.05.68-.1Z"/>
  <path class="cls-1" d="M16.61,14.01c-.27.1-.63.08-.91.07,0-.29-.06-.63.13-.85.16.01.71-.07.78.1.01.23-.02.46,0,.68Z"/>
  <path class="cls-1" d="M29.81,18.43c.12.26.05.57.07.85,0,.02,0,.04,0,.07l-.85-.13c0-.16-.07-.71.1-.78.23-.01.46.02.68,0Z"/>
  <path class="cls-1" d="M17.45,14.98c-.28-.01-.57.01-.85,0,0-.28.01-.57,0-.85.15.03.79-.05.85.03.04.06-.03.67,0,.81Z"/>
  <path class="cls-1" d="M15.7,13.23h-.85s0-.04,0-.07c0-.24.07-.65.07-.78.92-.07.8,0,.78.85Z"/>
  <path class="cls-1" d="M30.79,17.58c-.01.28.01.57,0,.85-.28.01-.57-.01-.85,0,.03-.15-.05-.79.03-.85.06-.04.67.03.81,0Z"/>
  <path class="cls-1" d="M33.33,14.14c.12.21.06.54.07.78,0,.02,0,.04,0,.07-.28,0-.56,0-.85,0-.12-1.35.23-.63.78-.85Z"/>
  <path class="cls-1" d="M35.15,12.38c-.02.28,0,.57,0,.85-.28.01-.57-.02-.85,0-.06-.89-.04-.9.85-.85Z"/>
  <path class="cls-1" d="M31.57,16.74c.12.21.06.54.07.78,0,.02,0,.04,0,.07-.3-.02-.62.09-.85-.13,0-.13-.03-.67.03-.72.24-.02.51.03.75,0Z"/>
  <path class="cls-1" d="M34.17,13.29c.21,0,.13.56.13.78-.26,0-.59.18-.85-.07.05-.13-.06-.65.03-.72.04-.03.55.02.68,0Z"/>
  <path class="cls-1" d="M27.37,17.58s.72,0,.75.03c.04.81.1.93-.78.78.03-.15-.05-.76.03-.81Z"/>
  <path class="cls-1" d="M21.91,17.58s.72,0,.75.03c.04.81.1.93-.78.78.03-.15-.05-.76.03-.81Z"/>
</svg>