<svg aria-hidden="true" style="position: absolute; width: 0; height: 0; overflow: hidden;" version="1.1" xmlns="http://www.w3.org/2000/svg" xmlns:xlink="http://www.w3.org/1999/xlink">
<defs>
<symbol id="icon-apartment-svgrepo-com" viewBox="0 0 32 32">
<title>apartment-svgrepo-com</title>
<path d="M7.111 9.6h5.689v-2.133c0.001-0.377 0.151-0.739 0.417-1.005s0.628-0.416 1.005-0.417h9.956c0.377 0.001 0.739 0.15 1.006 0.417s0.416 0.629 0.417 1.005v17.067c-0.001 0.377-0.151 0.739-0.417 1.005s-0.629 0.417-1.006 0.417h-17.067c-0.377-0.001-0.738-0.151-1.005-0.417s-0.417-0.628-0.417-1.005v-13.511c0.001-0.377 0.151-0.739 0.417-1.005s0.628-0.416 1.005-0.417zM17.778 24.533h2.844v-3.556h-2.844v3.556zM14.222 24.533h2.133v-3.556c0.001-0.377 0.151-0.739 0.417-1.005s0.628-0.417 1.005-0.417h2.844c0.377 0.001 0.739 0.151 1.006 0.417s0.416 0.628 0.417 1.005v3.556h2.133l0.001-17.067h-9.956v17.067zM7.111 24.533h5.689v-13.511h-5.689v13.511zM16.356 16c0 0.141 0.042 0.278 0.12 0.395s0.189 0.208 0.319 0.262c0.13 0.054 0.273 0.068 0.411 0.041s0.265-0.095 0.364-0.195 0.167-0.226 0.195-0.364c0.027-0.138 0.014-0.281-0.041-0.411s-0.145-0.241-0.262-0.319c-0.117-0.078-0.255-0.12-0.395-0.12-0.188 0-0.37 0.075-0.503 0.208s-0.208 0.314-0.208 0.503zM16.356 13.156c0 0.141 0.042 0.278 0.12 0.395s0.189 0.208 0.319 0.262c0.13 0.054 0.273 0.068 0.411 0.041s0.265-0.095 0.364-0.195 0.167-0.226 0.195-0.364c0.027-0.138 0.014-0.281-0.041-0.411s-0.145-0.241-0.262-0.319c-0.117-0.078-0.255-0.12-0.395-0.12-0.188 0-0.37 0.075-0.503 0.208s-0.208 0.314-0.208 0.503zM16.356 10.311c0 0.141 0.042 0.278 0.12 0.395s0.189 0.208 0.319 0.262c0.13 0.054 0.273 0.068 0.411 0.041s0.265-0.095 0.364-0.195 0.167-0.226 0.195-0.364c0.027-0.138 0.014-0.281-0.041-0.411s-0.145-0.241-0.262-0.319c-0.117-0.078-0.255-0.12-0.395-0.12-0.188 0-0.37 0.075-0.503 0.208s-0.208 0.314-0.208 0.503zM20.622 16c0 0.141 0.042 0.278 0.12 0.395s0.189 0.208 0.319 0.262c0.13 0.054 0.273 0.068 0.411 0.041s0.265-0.095 0.364-0.195 0.167-0.226 0.195-0.364c0.027-0.138 0.014-0.281-0.041-0.411s-0.145-0.241-0.262-0.319c-0.117-0.078-0.255-0.12-0.395-0.12-0.188 0-0.37 0.075-0.503 0.208s-0.208 0.314-0.208 0.503zM20.622 13.156c0 0.141 0.042 0.278 0.12 0.395s0.189 0.208 0.319 0.262c0.13 0.054 0.273 0.068 0.411 0.041s0.265-0.095 0.364-0.195 0.167-0.226 0.195-0.364c0.027-0.138 0.014-0.281-0.041-0.411s-0.145-0.241-0.262-0.319c-0.117-0.078-0.255-0.12-0.395-0.12-0.188 0-0.37 0.075-0.503 0.208s-0.208 0.314-0.208 0.503zM20.622 10.311c0 0.141 0.042 0.278 0.12 0.395s0.189 0.208 0.319 0.262c0.13 0.054 0.273 0.068 0.411 0.041s0.265-0.095 0.364-0.195 0.167-0.226 0.195-0.364c0.027-0.138 0.014-0.281-0.041-0.411s-0.145-0.241-0.262-0.319c-0.117-0.078-0.255-0.12-0.395-0.12-0.188 0-0.37 0.075-0.503 0.208s-0.208 0.314-0.208 0.503z"></path>
</symbol>
<symbol id="icon-wifi-svgrepo-com" viewBox="0 0 32 32">
<title>wifi-svgrepo-com</title>
<path d="M14.498 21.438c0-0.792 0.642-1.434 1.434-1.434s1.434 0.642 1.434 1.434c0 0.792-0.642 1.433-1.434 1.433s-1.434-0.641-1.434-1.433zM18.798 21.438c0-1.583-1.283-2.866-2.866-2.866s-2.866 1.283-2.866 2.866c0 1.583 1.283 2.866 2.866 2.866s2.866-1.283 2.866-2.866z"></path>
<path d="M21.695 18.541c-1.061-2.108-3.243-3.552-5.764-3.552s-4.703 1.446-5.764 3.552l1.085 1.085c0.727-1.874 2.547-3.204 4.679-3.204s3.952 1.33 4.679 3.204l1.085-1.085z"></path>
<path d="M24.313 15.923c-1.795-2.722-4.878-4.517-8.382-4.517s-6.587 1.797-8.382 4.517l1.039 1.038c1.51-2.472 4.234-4.122 7.343-4.122s5.833 1.65 7.344 4.123l1.038-1.039z"></path>
<path d="M26.885 13.351c-2.479-3.353-6.463-5.528-10.954-5.528s-8.474 2.175-10.954 5.528l1.027 1.025c2.208-3.099 5.831-5.12 9.927-5.12s7.72 2.021 9.928 5.12l1.026-1.026z"></path>
</symbol>
<symbol id="icon-location-pin-svgrepo-com" viewBox="0 0 32 32">
<title>location-pin-svgrepo-com</title>
<path d="M16.114-0.011c-6.559 0-12.114 5.587-12.114 12.204 0 6.93 6.439 14.017 10.77 18.998 0.017 0.020 0.717 0.797 1.579 0.797h0.076c0.863 0 1.558-0.777 1.575-0.797 4.064-4.672 10-12.377 10-18.998 0-6.618-4.333-12.204-11.886-12.204zM16.515 29.849c-0.035 0.035-0.086 0.074-0.131 0.107-0.046-0.032-0.096-0.072-0.133-0.107l-0.523-0.602c-4.106-4.71-9.729-11.161-9.729-17.055 0-5.532 4.632-10.205 10.114-10.205 6.829 0 9.886 5.125 9.886 10.205 0 4.474-3.192 10.416-9.485 17.657zM16.035 6.044c-3.313 0-6 2.686-6 6s2.687 6 6 6 6-2.687 6-6-2.686-6-6-6zM16.035 16.044c-2.206 0-4.046-1.838-4.046-4.044s1.794-4 4-4c2.207 0 4 1.794 4 4 0.001 2.206-1.747 4.044-3.954 4.044z"></path>
</symbol>
<symbol id="icon-bed-svgrepo-com" viewBox="0 0 32 32">
<title>bed-svgrepo-com</title>
<path fill="#1c274c" style="fill: var(--color1, #1c274c)" d="M14.591 4.333h2.817c2.45-0 4.391-0 5.91 0.204 1.563 0.21 2.829 0.653 3.826 1.651s1.441 2.263 1.651 3.826c0.202 1.501 0.204 3.414 0.204 5.824 0.459 0.378 0.823 0.866 1.054 1.425 0.16 0.387 0.223 0.787 0.251 1.209 0.028 0.406 0.028 0.901 0.028 1.493v0.067c0 0.593 0 1.087-0.028 1.493-0.029 0.423-0.091 0.822-0.251 1.209-0.372 0.898-1.086 1.612-1.984 1.984-0.387 0.16-0.787 0.223-1.209 0.251-0.162 0.011-0.337 0.018-0.527 0.022v1.673c0 0.552-0.448 1-1 1s-1-0.448-1-1v-1.667h-16.667v1.667c0 0.552-0.448 1-1 1s-1-0.448-1-1v-1.673c-0.19-0.004-0.366-0.011-0.527-0.022-0.423-0.029-0.822-0.091-1.209-0.251-0.898-0.372-1.612-1.086-1.984-1.984-0.16-0.387-0.223-0.787-0.251-1.209-0.028-0.406-0.028-0.901-0.028-1.493v-0.067c0-0.593 0-1.087 0.028-1.494 0.029-0.423 0.091-0.822 0.251-1.209 0.232-0.559 0.596-1.047 1.054-1.425 0-2.41 0.002-4.323 0.204-5.824 0.21-1.563 0.653-2.829 1.651-3.826s2.263-1.441 3.826-1.651c1.519-0.204 3.46-0.204 5.91-0.204zM5.001 15.039c0.046-0.004 0.092-0.008 0.139-0.011 0.336-0.023 0.732-0.027 1.194-0.028v-1.069c-0-1.198-0-2.197 0.107-2.99 0.113-0.837 0.36-1.593 0.967-2.2s1.363-0.855 2.2-0.967c0.793-0.107 1.792-0.107 2.99-0.107h6.805c1.198-0 2.197-0 2.99 0.107 0.837 0.113 1.593 0.36 2.2 0.967s0.855 1.363 0.967 2.2c0.107 0.793 0.107 1.792 0.107 2.99v1.069c0.462 0.001 0.858 0.005 1.194 0.028 0.047 0.003 0.093 0.007 0.139 0.011-0.003-2.046-0.026-3.567-0.186-4.757-0.18-1.341-0.519-2.114-1.083-2.679s-1.337-0.902-2.679-1.083c-1.37-0.184-3.177-0.186-5.719-0.186h-2.667c-2.542 0-4.349 0.002-5.719 0.186-1.341 0.18-2.114 0.519-2.679 1.083s-0.902 1.337-1.083 2.679c-0.16 1.191-0.183 2.711-0.186 4.757zM23.667 15v-1c0-1.285-0.002-2.149-0.089-2.793-0.083-0.615-0.226-0.879-0.399-1.052s-0.437-0.317-1.052-0.399c-0.644-0.087-1.507-0.089-2.793-0.089h-2.333v5.333h6.667zM15 15v-5.333h-2.333c-1.285 0-2.149 0.002-2.793 0.089-0.615 0.083-0.879 0.226-1.052 0.399s-0.317 0.437-0.399 1.052c-0.087 0.644-0.089 1.507-0.089 2.793v1h6.667zM5.276 17.023c-0.321 0.022-0.477 0.061-0.58 0.104-0.408 0.169-0.733 0.494-0.902 0.902-0.043 0.103-0.082 0.259-0.104 0.58-0.022 0.33-0.023 0.756-0.023 1.391s0.001 1.061 0.023 1.391c0.022 0.321 0.061 0.477 0.104 0.58 0.169 0.408 0.494 0.733 0.902 0.902 0.103 0.043 0.259 0.082 0.58 0.104 0.33 0.023 0.756 0.023 1.391 0.023h18.667c0.635 0 1.061-0.001 1.391-0.023 0.321-0.022 0.477-0.061 0.58-0.104 0.408-0.169 0.733-0.494 0.902-0.902 0.043-0.103 0.082-0.259 0.104-0.58 0.023-0.33 0.023-0.756 0.023-1.391s-0.001-1.061-0.023-1.391c-0.022-0.321-0.061-0.477-0.104-0.58-0.169-0.408-0.494-0.733-0.902-0.902-0.103-0.043-0.259-0.082-0.58-0.104-0.33-0.023-0.756-0.023-1.391-0.023h-18.667c-0.635 0-1.061 0.001-1.391 0.023z"></path>
</symbol>
<symbol id="icon-bath-svgrepo-com" viewBox="0 0 32 32">
<title>bath-svgrepo-com</title>
<path fill="#1c274c" style="fill: var(--color1, #1c274c)" d="M7.18 3.667c-1.204 0-2.18 0.976-2.18 2.18v9.153h0.379c0.014 0 0.029 0 0.043 0 0.007 0 0.014 0 0.021 0h21.134c0.014 0 0.029 0 0.043 0h2.712c0.552 0 1 0.448 1 1s-0.448 1-1 1h-0.357c0.009 0.060 0.015 0.121 0.019 0.182 0.005 0.077 0.005 0.16 0.005 0.241v0.051c0 0.5 0 0.793-0.021 1.121-0.189 2.982-1.801 5.735-4.136 7.536 0.018 0.029 0.035 0.059 0.051 0.090l1.333 2.667c0.247 0.494 0.047 1.095-0.447 1.342s-1.095 0.047-1.342-0.447l-1.29-2.581c-1.069 0.541-2.232 0.897-3.441 1.020-0.326 0.033-0.525 0.041-0.864 0.053l-0.009 0c-0.987 0.037-1.953 0.060-2.835 0.060s-1.848-0.023-2.835-0.060l-0.009-0c-0.339-0.013-0.538-0.020-0.864-0.053-1.209-0.122-2.372-0.479-3.441-1.020l-1.29 2.581c-0.247 0.494-0.848 0.694-1.342 0.447s-0.694-0.848-0.447-1.342l1.333-2.667c0.016-0.031 0.033-0.061 0.051-0.090-2.335-1.8-3.947-4.554-4.136-7.536-0.021-0.327-0.021-0.621-0.021-1.121v-0.029c0-0.007 0-0.014 0-0.021 0-0.025 0-0.050 0-0.075-0-0.005-0-0.010-0-0.014v-0.333h-0.333c-0.552 0-1-0.448-1-1s0.448-1 1-1h0.333v-9.153c0-2.309 1.872-4.18 4.18-4.18 1.709 0 3.246 1.041 3.881 2.628l0.147 0.367c1.058-0.268 2.205-0.206 3.287 0.256 1.354 0.578 2.339 1.67 2.843 2.95 0.198 0.503-0.039 1.072-0.535 1.285l-7.948 3.421c-0.249 0.107-0.53 0.109-0.78 0.005s-0.447-0.305-0.546-0.557c-0.504-1.28-0.534-2.762 0.026-4.142 0.399-0.982 1.047-1.788 1.839-2.365l-0.191-0.478c-0.331-0.828-1.133-1.37-2.024-1.37zM5.444 17c-0.053 0-0.085 0-0.109 0-0.017 0-0.024 0.001-0.024 0.001s-0 0 0 0c-0.167 0.011-0.298 0.143-0.31 0.31-0 0.002-0 0.008-0 0.024-0 0.024-0 0.056-0 0.109 0 0.537 0 0.766 0.017 1.023 0.247 3.896 3.593 7.37 7.477 7.763 0.26 0.026 0.404 0.032 0.746 0.045 0.971 0.036 1.911 0.059 2.76 0.059s1.789-0.022 2.76-0.059c0.343-0.013 0.486-0.019 0.746-0.045 3.883-0.393 7.23-3.868 7.477-7.763 0.016-0.257 0.017-0.486 0.017-1.023 0-0.053 0-0.085-0-0.109-0-0.014-0-0.020-0-0.023s-0-0.002 0 0c-0.011-0.167-0.144-0.3-0.311-0.311 0.002 0 0.002 0 0 0s-0.010-0-0.023-0c-0.024-0-0.056-0-0.109-0h-21.113zM13.71 6.757c-0.876-0.374-1.824-0.322-2.634 0.072-0.718 0.35-1.328 0.97-1.667 1.804-0.218 0.537-0.297 1.096-0.254 1.635l5.841-2.515c-0.333-0.428-0.768-0.775-1.287-0.996z"></path>
</symbol>
<symbol id="icon-caret-down-outline" viewBox="0 0 32 32">
<title>caret-down-outline</title>
<path d="M6.125 11.879l8.736 10.195c0.277 0.321 0.684 0.524 1.139 0.524s0.862-0.202 1.137-0.522l0.002-0.002 8.736-10.195c0.834-0.973 0.142-2.476-1.139-2.476h-17.475c-1.281 0-1.973 1.503-1.136 2.476z"></path>
</symbol>
<symbol id="icon-chevron-back-outline" viewBox="0 0 32 32">
<title>chevron-back-outline</title>
<path stroke-linejoin="round" stroke-linecap="round" stroke-miterlimit="4" stroke-width="3" d="M20.5 7l-9 9 9 9"></path>
</symbol>
<symbol id="icon-chevron-down-outline" viewBox="0 0 32 32">
<title>chevron-down-outline</title>
<path stroke-linejoin="round" stroke-linecap="round" stroke-miterlimit="4" stroke-width="3" d="M7 11.5l9 9 9-9"></path>
</symbol>
<symbol id="icon-chevron-forward-outline" viewBox="0 0 32 32">
<title>chevron-forward-outline</title>
<path stroke-linejoin="round" stroke-linecap="round" stroke-miterlimit="4" stroke-width="3" d="M11.5 7l9 9-9 9"></path>
</symbol>
<symbol id="icon-education-cap-student-graduation-university-svgrepo-com" viewBox="0 0 32 32">
<title>education-cap-student-graduation-university-svgrepo-com</title>
<path stroke-linejoin="round" stroke-linecap="round" stroke-miterlimit="10" stroke-width="2" d="M16 4l-15 8 15 8 15-8z"></path>
<path stroke-linejoin="round" stroke-linecap="round" stroke-miterlimit="10" stroke-width="2" d="M7 15.2v6.8c0 2.2 4 5 9 5s9-2.8 9-5v-6.8"></path>
<path stroke-linejoin="round" stroke-linecap="round" stroke-miterlimit="10" stroke-width="2" d="M31 12v13"></path>
</symbol>
<symbol id="icon-gym-fitness-svgrepo-com" viewBox="0 0 32 32">
<title>gym-fitness-svgrepo-com</title>
<path d="M29.92 17.12h1.76c0.353 0 0.64-0.287 0.64-0.64s-0.287-0.64-0.64-0.64h-1.76c-0.353 0-0.64 0.287-0.64 0.64s0.287 0.64 0.64 0.64zM10.208 17.12h12.16c0.353 0 0.64-0.287 0.64-0.64s-0.287-0.64-0.64-0.64h-12.16c-0.353 0-0.64 0.287-0.64 0.64s0.287 0.64 0.64 0.64zM0.96 17.12h1.76c0.353 0 0.64-0.287 0.64-0.64s-0.287-0.64-0.64-0.64h-1.76c-0.353 0-0.64 0.287-0.64 0.64s0.287 0.64 0.64 0.64z"></path>
<path d="M24.64 24.64c-1.233 0-2.24-1.007-2.24-2.24v-11.84c0-1.233 1.007-2.24 2.24-2.24s2.24 1.007 2.24 2.24v11.84c0 1.233-1.007 2.24-2.24 2.24zM24.64 23.36c0.527 0 0.96-0.433 0.96-0.96v-11.84c0-0.527-0.433-0.96-0.96-0.96s-0.96 0.433-0.96 0.96v11.84c0 0.527 0.433 0.96 0.96 0.96z"></path>
<path d="M27.84 20.32c-1.233 0-2.24-1.007-2.24-2.24v-3.2c0-1.233 1.007-2.24 2.24-2.24s2.24 1.007 2.24 2.24v3.2c0 1.233-1.007 2.24-2.24 2.24zM27.84 19.040c0.527 0 0.96-0.433 0.96-0.96v-3.2c0-0.527-0.433-0.96-0.96-0.96s-0.96 0.433-0.96 0.96v3.2c0 0.527 0.433 0.96 0.96 0.96zM8 23.36c0.527 0 0.96-0.433 0.96-0.96v-11.84c0-0.527-0.433-0.96-0.96-0.96s-0.96 0.433-0.96 0.96v11.84c0 0.527 0.433 0.96 0.96 0.96zM8 24.64c-1.233 0-2.24-1.007-2.24-2.24v-11.84c0-1.233 1.007-2.24 2.24-2.24s2.24 1.007 2.24 2.24v11.84c0 1.233-1.007 2.24-2.24 2.24z"></path>
<path d="M4.8 19.040c0.527 0 0.96-0.433 0.96-0.96v-3.2c0-0.527-0.433-0.96-0.96-0.96s-0.96 0.433-0.96 0.96v3.2c0 0.527 0.433 0.96 0.96 0.96zM4.8 20.32c-1.233 0-2.24-1.007-2.24-2.24v-3.2c0-1.233 1.007-2.24 2.24-2.24s2.24 1.007 2.24 2.24v3.2c0 1.233-1.007 2.24-2.24 2.24z"></path>
</symbol>
<symbol id="icon-heart-svgrepo-com" viewBox="0 0 32 32">
<title>heart-svgrepo-com</title>
<path d="M16.52 27.827c-0.146 0.1-0.326 0.159-0.52 0.159s-0.374-0.060-0.523-0.161l0.003 0.002c-2.461-1.644-12.813-8.96-12.813-15.863 0-8.907 10.467-10.333 13.333-4.333 2.867-6 13.333-4.573 13.333 4.333 0 6.904-10.352 14.219-12.813 15.86z"></path>
</symbol>
<symbol id="icon-instagram-svgrepo-com" viewBox="0 0 32 32">
<title>instagram-svgrepo-com</title>
<path d="M21.587 2.667h-11.173c-4.853 0-7.747 2.893-7.747 7.747v11.16c0 4.867 2.893 7.76 7.747 7.76h11.16c4.853 0 7.747-2.893 7.747-7.747v-11.173c0.013-4.853-2.88-7.747-7.733-7.747zM16 21.173c-2.853 0-5.173-2.32-5.173-5.173s2.32-5.173 5.173-5.173c2.853 0 5.173 2.32 5.173 5.173s-2.32 5.173-5.173 5.173zM23.893 9.173c-0.067 0.16-0.16 0.307-0.28 0.44-0.133 0.12-0.28 0.213-0.44 0.28s-0.333 0.107-0.507 0.107c-0.36 0-0.693-0.133-0.947-0.387-0.12-0.133-0.213-0.28-0.28-0.44s-0.107-0.333-0.107-0.507c0-0.173 0.040-0.347 0.107-0.507 0.067-0.173 0.16-0.307 0.28-0.44 0.307-0.307 0.773-0.453 1.2-0.36 0.093 0.013 0.173 0.040 0.253 0.080 0.080 0.027 0.16 0.067 0.24 0.12 0.067 0.040 0.133 0.107 0.2 0.16 0.12 0.133 0.213 0.267 0.28 0.44 0.067 0.16 0.107 0.333 0.107 0.507s-0.040 0.347-0.107 0.507z"></path>
</symbol>
<symbol id="icon-swimming-pool-sign-svgrepo-com" viewBox="0 0 32 32">
<title>swimming-pool-sign-svgrepo-com</title>
<path d="M0.538 20.157c1.149 0 1.689 0.301 2.315 0.65 0.661 0.368 1.411 0.785 2.839 0.785s2.178-0.417 2.839-0.785c0.626-0.348 1.166-0.65 2.315-0.65s1.689 0.301 2.315 0.65c0.661 0.368 1.411 0.785 2.839 0.785s2.178-0.417 2.839-0.785c0.626-0.348 1.166-0.65 2.315-0.65s1.689 0.301 2.315 0.65c0.661 0.368 1.411 0.785 2.839 0.785s2.178-0.417 2.839-0.785c0.626-0.348 1.167-0.65 2.315-0.65 0.297 0 0.538-0.241 0.538-0.538s-0.241-0.538-0.538-0.538c-1.428 0-2.178 0.417-2.839 0.785-0.626 0.348-1.167 0.65-2.315 0.65-0.533 0-0.934-0.065-1.275-0.17 0-0.003 0.001-0.007 0.001-0.010v-13.441c0-1.062 0.864-1.925 1.925-1.925 0.738 0 1.421 0.431 1.739 1.098 0.128 0.268 0.449 0.382 0.717 0.254s0.382-0.449 0.254-0.717c-0.495-1.040-1.559-1.711-2.711-1.711-1.655 0-3.002 1.346-3.002 3.001v3.377h-6.033v-3.377c0-1.062 0.864-1.925 1.925-1.925 0.738-0 1.421 0.431 1.739 1.097 0.128 0.268 0.449 0.382 0.717 0.254s0.382-0.449 0.254-0.717c-0.496-1.039-1.56-1.71-2.71-1.71-1.655 0-3.001 1.346-3.001 3.001 0 0 0.003 13.551 0 13.552-0.245 0.043-0.52 0.068-0.848 0.068-1.149 0-1.689-0.301-2.315-0.65-0.661-0.368-1.411-0.785-2.839-0.785s-2.178 0.417-2.839 0.785c-0.626 0.348-1.166 0.65-2.315 0.65s-1.689-0.301-2.315-0.65c-0.661-0.368-1.411-0.785-2.839-0.785-0.297 0-0.538 0.241-0.538 0.538s0.241 0.538 0.538 0.538zM23.957 11.349v3.917h-6.033v-3.917h6.033zM17.924 16.342h6.033v3.505c-0.653-0.363-1.401-0.766-2.804-0.766-1.428 0-2.178 0.417-2.839 0.785-0.132 0.073-0.26 0.145-0.391 0.211v-3.735h-0z"></path>
<path d="M31.462 25.595c-1.428 0-2.178 0.417-2.839 0.785-0.626 0.348-1.167 0.65-2.315 0.65s-1.689-0.301-2.315-0.65c-0.661-0.368-1.41-0.785-2.839-0.785s-2.178 0.417-2.839 0.785c-0.626 0.348-1.166 0.65-2.315 0.65s-1.689-0.301-2.315-0.65c-0.661-0.368-1.411-0.785-2.839-0.785s-2.178 0.417-2.839 0.785c-0.626 0.348-1.166 0.65-2.315 0.65s-1.689-0.301-2.315-0.65c-0.661-0.368-1.411-0.785-2.839-0.785-0.297 0-0.538 0.241-0.538 0.538s0.241 0.538 0.538 0.538c1.149 0 1.689 0.301 2.315 0.65 0.661 0.368 1.411 0.785 2.839 0.785s2.178-0.417 2.839-0.785c0.626-0.348 1.166-0.65 2.315-0.65s1.689 0.301 2.315 0.65c0.661 0.368 1.411 0.785 2.839 0.785s2.178-0.417 2.839-0.785c0.626-0.348 1.166-0.65 2.315-0.65s1.689 0.301 2.315 0.65c0.661 0.368 1.411 0.785 2.839 0.785s2.178-0.417 2.839-0.785c0.626-0.348 1.167-0.65 2.315-0.65 0.297 0 0.538-0.241 0.538-0.538s-0.241-0.538-0.538-0.538z"></path>
</symbol>
<symbol id="icon-telegram-svgrepo-com" viewBox="0 0 32 32">
<title>telegram-svgrepo-com</title>
<path fill="#09244b" style="fill: var(--color2, #09244b)" d="M26.37 5.906c1.451-0.611 3.006 0.616 2.749 2.169l-3.025 18.342c-0.292 1.769-2.234 2.783-3.857 1.902-1.358-0.737-3.372-1.873-5.188-3.059-0.907-0.592-3.682-2.492-3.341-3.844 0.292-1.156 4.958-5.5 7.625-8.083 1.047-1.015 0.57-1.601-0.667-0.667-3.069 2.318-7.996 5.842-9.625 6.833-1.438 0.875-2.188 1.024-3.083 0.875-1.635-0.272-3.151-0.694-4.388-1.207-1.673-0.693-1.591-2.992-0.001-3.661l22.8-9.6z"></path>
</symbol>
<symbol id="icon-whatsapp-svgrepo-com" viewBox="0 0 32 32">
<title>whatsapp-svgrepo-com</title>
<path d="M26.576 5.363c-2.69-2.69-6.406-4.354-10.511-4.354-8.209 0-14.865 6.655-14.865 14.865 0 2.732 0.737 5.291 2.022 7.491l-0.038-0.070-2.109 7.702 7.879-2.067c2.051 1.139 4.498 1.809 7.102 1.809h0.006c8.209-0.003 14.862-6.659 14.862-14.868 0-4.103-1.662-7.817-4.349-10.507v0zM16.062 28.228h-0.005c0 0-0.001 0-0.001 0-2.319 0-4.489-0.64-6.342-1.753l0.056 0.031-0.451-0.267-4.675 1.227 1.247-4.559-0.294-0.467c-1.185-1.862-1.889-4.131-1.889-6.565 0-6.822 5.531-12.353 12.353-12.353s12.353 5.531 12.353 12.353c0 6.822-5.53 12.353-12.353 12.353v0zM22.838 18.977c-0.371-0.186-2.197-1.083-2.537-1.208-0.341-0.124-0.589-0.185-0.837 0.187-0.246 0.371-0.958 1.207-1.175 1.455-0.216 0.249-0.434 0.279-0.805 0.094-1.15-0.466-2.138-1.087-2.997-1.852l0.010 0.009c-0.799-0.74-1.484-1.587-2.037-2.521l-0.028-0.052c-0.216-0.371-0.023-0.572 0.162-0.757 0.167-0.166 0.372-0.434 0.557-0.65 0.146-0.179 0.271-0.384 0.366-0.604l0.006-0.017c0.043-0.087 0.068-0.188 0.068-0.296 0-0.131-0.037-0.253-0.101-0.357l0.002 0.003c-0.094-0.186-0.836-2.014-1.145-2.758-0.302-0.724-0.609-0.625-0.836-0.637-0.216-0.010-0.464-0.012-0.712-0.012-0.395 0.010-0.746 0.188-0.988 0.463l-0.001 0.002c-0.802 0.761-1.3 1.834-1.3 3.023 0 0.026 0 0.053 0.001 0.079v-0.004c0.131 1.467 0.681 2.784 1.527 3.857l-0.012-0.015c1.604 2.379 3.742 4.282 6.251 5.564l0.094 0.043c0.548 0.248 1.25 0.513 1.968 0.74l0.149 0.041c0.442 0.14 0.951 0.221 1.479 0.221 0.303 0 0.601-0.027 0.889-0.078l-0.031 0.004c1.069-0.223 1.956-0.868 2.497-1.749l0.009-0.017c0.165-0.366 0.261-0.793 0.261-1.242 0-0.185-0.016-0.366-0.047-0.542l0.003 0.019c-0.092-0.155-0.34-0.247-0.712-0.434z"></path>
</symbol>
<symbol id="icon-youtube-168-svgrepo-com" viewBox="0 0 32 32">
<title>youtube-168-svgrepo-com</title>
<path d="M12.781 20.137v-8.979c3.188 1.5 5.656 2.949 8.576 4.511-2.408 1.336-5.389 2.834-8.576 4.468zM30.546 6.693c-0.55-0.724-1.487-1.288-2.485-1.474-2.933-0.557-21.227-0.558-24.158 0-0.8 0.15-1.512 0.512-2.124 1.075-2.579 2.393-1.771 15.229-1.149 17.308 0.261 0.9 0.599 1.549 1.025 1.975 0.548 0.563 1.299 0.951 2.161 1.125 2.415 0.499 14.854 0.779 24.195 0.075 0.861-0.15 1.622-0.55 2.223-1.138 2.384-2.384 2.222-15.94 0.312-18.947z"></path>
</symbol>
<symbol id="icon-grid" viewBox="0 0 31 32">
<title>grid</title>
<path d="M28.5 11c0.276 0 0.5-0.224 0.5-0.5s-0.224-0.5-0.5-0.5h-7.5v-7.5c0-0.276-0.224-0.5-0.5-0.5s-0.5 0.224-0.5 0.5v7.5h-9v-7.5c0-0.276-0.224-0.5-0.5-0.5s-0.5 0.224-0.5 0.5v7.5h-7.5c-0.276 0-0.5 0.224-0.5 0.5s0.224 0.5 0.5 0.5h7.5v9h-7.5c-0.276 0-0.5 0.224-0.5 0.5s0.224 0.5 0.5 0.5h7.5v8.5c0 0.276 0.224 0.5 0.5 0.5s0.5-0.224 0.5-0.5v-8.5h9v8.5c0 0.276 0.224 0.5 0.5 0.5s0.5-0.224 0.5-0.5v-8.5h7.5c0.276 0 0.5-0.224 0.5-0.5s-0.224-0.5-0.5-0.5h-7.5v-9h7.5zM20 20h-9v-9h9v9zM31 30.5v-29c0-0.827-0.673-1.5-1.5-1.5h-28c-0.827 0-1.5 0.673-1.5 1.5v29c0 0.827 0.673 1.5 1.5 1.5h28c0.827 0 1.5-0.673 1.5-1.5zM1 30.5v-29c0-0.276 0.225-0.5 0.5-0.5h28c0.275 0 0.5 0.224 0.5 0.5v29c0 0.276-0.225 0.5-0.5 0.5h-28c-0.275 0-0.5-0.224-0.5-0.5z"></path>
</symbol>
<symbol id="icon-compass2" viewBox="0 0 32 32">
<title>compass2</title>
<path d="M0 16c0 8.822 7.178 16 16 16s16-7.178 16-16-7.178-16-16-16-16 7.178-16 16zM16 1c8.271 0 15 6.729 15 15s-6.729 15-15 15-15-6.729-15-15 6.729-15 15-15zM16 29c7.168 0 13-5.832 13-13s-5.832-13-13-13-13 5.832-13 13 5.832 13 13 13zM15 4.051v1.526c0 0.276 0.224 0.5 0.5 0.5s0.5-0.224 0.5-0.5v-1.577c6.279 0 11.438 4.85 11.949 11h-1.527c-0.276 0-0.5 0.224-0.5 0.5s0.224 0.5 0.5 0.5h1.578c0 6.617-5.383 12-12 12v-1.577c0-0.276-0.224-0.5-0.5-0.5s-0.5 0.224-0.5 0.5v1.526c-6.149-0.511-11-5.669-11-11.949h1.578c0.276 0 0.5-0.224 0.5-0.5s-0.224-0.5-0.5-0.5h-1.527c0.483-5.819 5.13-10.466 10.949-10.949zM9.386 23.041c0.102 0 0.204-0.031 0.292-0.094l5.614-4.036c0.228 0.056 0.463 0.093 0.708 0.093 1.654 0 3-1.346 3-3 0-0.237-0.035-0.465-0.087-0.687l4.106-5.712c0.143-0.199 0.121-0.473-0.052-0.646s-0.446-0.193-0.646-0.053l-5.778 4.153c-0.177-0.033-0.358-0.055-0.544-0.055-1.654 0-3 1.346-3 3 0 0.195 0.022 0.386 0.058 0.571l-4.077 5.674c-0.143 0.199-0.121 0.473 0.052 0.646 0.097 0.096 0.225 0.146 0.354 0.146zM14 16.005c0-1.103 0.897-2 2-2s2 0.897 2 2-0.897 2-2 2-2-0.898-2-2zM20.424 11.503l-1.987 2.765c-0.216-0.301-0.482-0.563-0.792-0.767l2.779-1.998zM13.505 17.667c0.199 0.298 0.454 0.553 0.743 0.763l-2.672 1.921 1.929-2.684z"></path>
</symbol>
<symbol id="icon-map1" viewBox="0 0 41 32">
<title>map1</title>
<path d="M9.239 31.927c0.009 0.006 0.021 0.003 0.030 0.009 0.073 0.037 0.149 0.064 0.231 0.064 0.044 0 0.088-0.006 0.132-0.018l10.868-2.966 10.868 2.966c0.044 0.012 0.088 0.018 0.132 0.018 0.082 0 0.158-0.027 0.23-0.065 0.010-0.005 0.021-0.003 0.030-0.009l9-5.5c0.191-0.117 0.281-0.348 0.22-0.563l-4.984-17.5c-0.041-0.147-0.148-0.267-0.29-0.326-0.142-0.057-0.301-0.048-0.436 0.026l-4.962 2.784c-0.24 0.135-0.326 0.44-0.191 0.681s0.439 0.327 0.682 0.191l4.409-2.475 4.707 16.526-8.015 4.899-1.904-15.231c-0.034-0.275-0.293-0.466-0.559-0.434-0.273 0.034-0.468 0.284-0.434 0.558l1.907 15.259-9.91-2.705v-2.73c0-0.276-0.224-0.5-0.5-0.5s-0.5 0.224-0.5 0.5v2.73l-9.911 2.705 1.907-15.259c0.034-0.274-0.16-0.524-0.434-0.558-0.272-0.032-0.524 0.159-0.559 0.434l-1.903 15.231-8.015-4.898 4.707-16.525 4.409 2.475c0.242 0.134 0.546 0.049 0.682-0.191 0.135-0.241 0.049-0.545-0.191-0.681l-4.963-2.785c-0.133-0.075-0.292-0.085-0.435-0.026s-0.249 0.178-0.29 0.326l-4.984 17.5c-0.062 0.216 0.028 0.446 0.22 0.563l8.999 5.5zM20.161 23.368c0.096 0.088 0.217 0.132 0.339 0.132 0.12 0 0.24-0.043 0.336-0.129 0.333-0.303 8.164-7.489 8.164-14.871 0-4.767-3.733-8.5-8.5-8.5s-8.5 3.733-8.5 8.5c0 7.254 7.828 14.56 8.161 14.868zM20.5 1c4.275 0 7.5 3.224 7.5 7.5 0 6.097-5.993 12.337-7.497 13.807-1.501-1.487-7.503-7.809-7.503-13.807 0-4.276 3.225-7.5 7.5-7.5zM25 8.5c0-2.481-2.019-4.5-4.5-4.5s-4.5 2.019-4.5 4.5 2.019 4.5 4.5 4.5 4.5-2.019 4.5-4.5zM20.5 12c-1.93 0-3.5-1.57-3.5-3.5s1.57-3.5 3.5-3.5 3.5 1.57 3.5 3.5-1.57 3.5-3.5 3.5z"></path>
</symbol>
<symbol id="icon-map-pin" viewBox="0 0 24 32">
<title>map-pin</title>
<path d="M12 0c-6.617 0-12 5.394-12 12.022 0 9.927 11.201 19.459 11.678 19.86 0.093 0.079 0.208 0.118 0.322 0.118s0.226-0.038 0.318-0.114c0.477-0.394 11.682-9.762 11.682-19.864 0-6.628-5.383-12.022-12-12.022zM12.002 30.838c-1.841-1.645-11.002-10.259-11.002-18.816 0-6.078 4.935-11.022 11-11.022s11 4.944 11 11.022c0 8.702-9.152 17.193-10.998 18.816zM12 6c-3.309 0-6 2.691-6 6s2.691 6 6 6 6-2.691 6-6-2.691-6-6-6zM12 17c-2.757 0-5-2.243-5-5s2.243-5 5-5 5 2.243 5 5-2.243 5-5 5z"></path>
</symbol>
<symbol id="icon-arrow-up-right2" viewBox="0 0 32 32">
<title>arrow-up-right2</title>
<path d="M7.414 27.414l16.586-16.586v7.172c0 1.105 0.895 2 2 2s2-0.895 2-2v-12c0-0.809-0.487-1.538-1.235-1.848-0.248-0.103-0.508-0.151-0.765-0.151v-0.001h-12c-1.105 0-2 0.895-2 2s0.895 2 2 2h7.172l-16.586 16.586c-0.391 0.39-0.586 0.902-0.586 1.414s0.195 1.024 0.586 1.414c0.781 0.781 2.047 0.781 2.828 0z"></path>
</symbol>
<symbol id="icon-arrow-right2" viewBox="0 0 32 32">
<title>arrow-right2</title>
<path d="M19.414 27.414l10-10c0.781-0.781 0.781-2.047 0-2.828l-10-10c-0.781-0.781-2.047-0.781-2.828 0s-0.781 2.047 0 2.828l6.586 6.586h-19.172c-1.105 0-2 0.895-2 2s0.895 2 2 2h19.172l-6.586 6.586c-0.39 0.39-0.586 0.902-0.586 1.414s0.195 1.024 0.586 1.414c0.781 0.781 2.047 0.781 2.828 0z"></path>
</symbol>
<symbol id="icon-arrow-down-right2" viewBox="0 0 32 32">
<title>arrow-down-right2</title>
<path d="M4.586 7.414l16.586 16.586h-7.171c-1.105 0-2 0.895-2 2s0.895 2 2 2h12c0.809 0 1.538-0.487 1.848-1.235 0.103-0.248 0.151-0.508 0.151-0.765h0.001v-12c0-1.105-0.895-2-2-2s-2 0.895-2 2v7.172l-16.586-16.586c-0.391-0.391-0.902-0.586-1.414-0.586s-1.024 0.195-1.414 0.586c-0.781 0.781-0.781 2.047 0 2.828z"></path>
</symbol>
<symbol id="icon-arrow-down2" viewBox="0 0 32 32">
<title>arrow-down2</title>
<path d="M27.414 19.414l-10 10c-0.781 0.781-2.047 0.781-2.828 0l-10-10c-0.781-0.781-0.781-2.047 0-2.828s2.047-0.781 2.828 0l6.586 6.586v-19.172c0-1.105 0.895-2 2-2s2 0.895 2 2v19.172l6.586-6.586c0.39-0.39 0.902-0.586 1.414-0.586s1.024 0.195 1.414 0.586c0.781 0.781 0.781 2.047 0 2.828z"></path>
</symbol>
<symbol id="icon-arrow-down-left2" viewBox="0 0 32 32">
<title>arrow-down-left2</title>
<path d="M24.586 4.586l-16.586 16.586v-7.172c0-1.105-0.895-2-2-2s-2 0.895-2 2v12c0 0.809 0.487 1.538 1.235 1.848 0.248 0.103 0.508 0.151 0.765 0.151v0.001l12-0c1.105 0 2-0.895 2-2s-0.895-2-2-2h-7.172l16.586-16.586c0.39-0.391 0.586-0.902 0.586-1.414s-0.195-1.024-0.586-1.414c-0.781-0.781-2.047-0.781-2.828 0v0z"></path>
</symbol>
<symbol id="icon-arrow-left2" viewBox="0 0 32 32">
<title>arrow-left2</title>
<path d="M12.586 27.414l-10-10c-0.781-0.781-0.781-2.047 0-2.828l10-10c0.781-0.781 2.047-0.781 2.828 0s0.781 2.047 0 2.828l-6.586 6.586h19.172c1.105 0 2 0.895 2 2s-0.895 2-2 2h-19.172l6.586 6.586c0.39 0.39 0.586 0.902 0.586 1.414s-0.195 1.024-0.586 1.414c-0.781 0.781-2.047 0.781-2.828 0z"></path>
</symbol>
<symbol id="icon-paragraph-left" viewBox="0 0 32 32">
<title>paragraph-left</title>
<path d="M0 2h32v4h-32zM0 8h20v4h-20zM0 20h20v4h-20zM0 14h32v4h-32zM0 26h32v4h-32z"></path>
</symbol>
<symbol id="icon-paragraph-justify" viewBox="0 0 32 32">
<title>paragraph-justify</title>
<path d="M0 2h32v4h-32zM0 8h32v4h-32zM0 14h32v4h-32zM0 20h32v4h-32zM0 26h32v4h-32z"></path>
</symbol>
<symbol id="icon-facebook" viewBox="0 0 32 32">
<title>facebook</title>
<path d="M19 6h5v-6h-5c-3.86 0-7 3.14-7 7v3h-4v6h4v16h6v-16h5l1-6h-6v-3c0-0.542 0.458-1 1-1z"></path>
</symbol>
<symbol id="icon-instagram" viewBox="0 0 32 32">
<title>instagram</title>
<path d="M16 2.881c4.275 0 4.781 0.019 6.462 0.094 1.563 0.069 2.406 0.331 2.969 0.55 0.744 0.288 1.281 0.638 1.837 1.194 0.563 0.563 0.906 1.094 1.2 1.838 0.219 0.563 0.481 1.412 0.55 2.969 0.075 1.688 0.094 2.194 0.094 6.463s-0.019 4.781-0.094 6.463c-0.069 1.563-0.331 2.406-0.55 2.969-0.288 0.744-0.637 1.281-1.194 1.837-0.563 0.563-1.094 0.906-1.837 1.2-0.563 0.219-1.413 0.481-2.969 0.55-1.688 0.075-2.194 0.094-6.463 0.094s-4.781-0.019-6.463-0.094c-1.563-0.069-2.406-0.331-2.969-0.55-0.744-0.288-1.281-0.637-1.838-1.194-0.563-0.563-0.906-1.094-1.2-1.837-0.219-0.563-0.481-1.413-0.55-2.969-0.075-1.688-0.094-2.194-0.094-6.463s0.019-4.781 0.094-6.463c0.069-1.563 0.331-2.406 0.55-2.969 0.288-0.744 0.638-1.281 1.194-1.838 0.563-0.563 1.094-0.906 1.838-1.2 0.563-0.219 1.412-0.481 2.969-0.55 1.681-0.075 2.188-0.094 6.463-0.094zM16 0c-4.344 0-4.887 0.019-6.594 0.094-1.7 0.075-2.869 0.35-3.881 0.744-1.056 0.412-1.95 0.956-2.837 1.85-0.894 0.888-1.438 1.781-1.85 2.831-0.394 1.019-0.669 2.181-0.744 3.881-0.075 1.713-0.094 2.256-0.094 6.6s0.019 4.887 0.094 6.594c0.075 1.7 0.35 2.869 0.744 3.881 0.413 1.056 0.956 1.95 1.85 2.837 0.887 0.887 1.781 1.438 2.831 1.844 1.019 0.394 2.181 0.669 3.881 0.744 1.706 0.075 2.25 0.094 6.594 0.094s4.888-0.019 6.594-0.094c1.7-0.075 2.869-0.35 3.881-0.744 1.050-0.406 1.944-0.956 2.831-1.844s1.438-1.781 1.844-2.831c0.394-1.019 0.669-2.181 0.744-3.881 0.075-1.706 0.094-2.25 0.094-6.594s-0.019-4.887-0.094-6.594c-0.075-1.7-0.35-2.869-0.744-3.881-0.394-1.063-0.938-1.956-1.831-2.844-0.887-0.887-1.781-1.438-2.831-1.844-1.019-0.394-2.181-0.669-3.881-0.744-1.712-0.081-2.256-0.1-6.6-0.1v0z"></path>
<path d="M16 7.781c-4.537 0-8.219 3.681-8.219 8.219s3.681 8.219 8.219 8.219 8.219-3.681 8.219-8.219c0-4.537-3.681-8.219-8.219-8.219zM16 21.331c-2.944 0-5.331-2.387-5.331-5.331s2.387-5.331 5.331-5.331c2.944 0 5.331 2.387 5.331 5.331s-2.387 5.331-5.331 5.331z"></path>
<path d="M26.462 7.456c0 1.060-0.859 1.919-1.919 1.919s-1.919-0.859-1.919-1.919c0-1.060 0.859-1.919 1.919-1.919s1.919 0.859 1.919 1.919z"></path>
</symbol>
<symbol id="icon-whatsapp" viewBox="0 0 32 32">
<title>whatsapp</title>
<path d="M27.281 4.65c-2.994-3-6.975-4.65-11.219-4.65-8.738 0-15.85 7.112-15.85 15.856 0 2.794 0.731 5.525 2.119 7.925l-2.25 8.219 8.406-2.206c2.319 1.262 4.925 1.931 7.575 1.931h0.006c0 0 0 0 0 0 8.738 0 15.856-7.113 15.856-15.856 0-4.238-1.65-8.219-4.644-11.219zM16.069 29.050v0c-2.369 0-4.688-0.637-6.713-1.837l-0.481-0.288-4.987 1.306 1.331-4.863-0.313-0.5c-1.325-2.094-2.019-4.519-2.019-7.012 0-7.269 5.912-13.181 13.188-13.181 3.519 0 6.831 1.375 9.319 3.862 2.488 2.494 3.856 5.8 3.856 9.325-0.006 7.275-5.919 13.188-13.181 13.188zM23.294 19.175c-0.394-0.2-2.344-1.156-2.706-1.288s-0.625-0.2-0.894 0.2c-0.262 0.394-1.025 1.288-1.256 1.556-0.231 0.262-0.462 0.3-0.856 0.1s-1.675-0.619-3.188-1.969c-1.175-1.050-1.975-2.35-2.206-2.744s-0.025-0.613 0.175-0.806c0.181-0.175 0.394-0.463 0.594-0.694s0.262-0.394 0.394-0.662c0.131-0.262 0.069-0.494-0.031-0.694s-0.894-2.15-1.219-2.944c-0.319-0.775-0.65-0.669-0.894-0.681-0.231-0.012-0.494-0.012-0.756-0.012s-0.694 0.1-1.056 0.494c-0.363 0.394-1.387 1.356-1.387 3.306s1.419 3.831 1.619 4.1c0.2 0.262 2.794 4.269 6.769 5.981 0.944 0.406 1.681 0.65 2.256 0.837 0.95 0.3 1.813 0.256 2.494 0.156 0.762-0.113 2.344-0.956 2.675-1.881s0.331-1.719 0.231-1.881c-0.094-0.175-0.356-0.275-0.756-0.475z"></path>
</symbol>
<symbol id="icon-youtube" viewBox="0 0 32 32">
<title>youtube</title>
<path d="M31.681 9.6c0 0-0.313-2.206-1.275-3.175-1.219-1.275-2.581-1.281-3.206-1.356-4.475-0.325-11.194-0.325-11.194-0.325h-0.012c0 0-6.719 0-11.194 0.325-0.625 0.075-1.987 0.081-3.206 1.356-0.963 0.969-1.269 3.175-1.269 3.175s-0.319 2.588-0.319 5.181v2.425c0 2.587 0.319 5.181 0.319 5.181s0.313 2.206 1.269 3.175c1.219 1.275 2.819 1.231 3.531 1.369 2.563 0.244 10.881 0.319 10.881 0.319s6.725-0.012 11.2-0.331c0.625-0.075 1.988-0.081 3.206-1.356 0.962-0.969 1.275-3.175 1.275-3.175s0.319-2.587 0.319-5.181v-2.425c-0.006-2.588-0.325-5.181-0.325-5.181zM12.694 20.15v-8.994l8.644 4.513-8.644 4.481z"></path>
</symbol>
<symbol id="icon-linkedin2" viewBox="0 0 32 32">
<title>linkedin2</title>
<path d="M12 12h5.535v2.837h0.079c0.77-1.381 2.655-2.837 5.464-2.837 5.842 0 6.922 3.637 6.922 8.367v9.633h-5.769v-8.54c0-2.037-0.042-4.657-3.001-4.657-3.005 0-3.463 2.218-3.463 4.509v8.688h-5.767v-18z"></path>
<path d="M2 12h6v18h-6v-18z"></path>
<path d="M8 7c0 1.657-1.343 3-3 3s-3-1.343-3-3c0-1.657 1.343-3 3-3s3 1.343 3 3z"></path>
</symbol>
<symbol id="icon-paypal" viewBox="0 0 32 32">
<title>paypal</title>
<path d="M29.063 9.644c-1.494 6.631-6.106 10.131-13.375 10.131h-2.419l-1.681 10.675h-2.025l-0.106 0.688c-0.069 0.456 0.281 0.863 0.738 0.863h5.175c0.613 0 1.131-0.444 1.231-1.050l0.050-0.262 0.975-6.181 0.063-0.337c0.094-0.606 0.619-1.050 1.231-1.050h0.769c5.012 0 8.938-2.038 10.088-7.925 0.431-2.238 0.269-4.137-0.712-5.55z"></path>
<path d="M25.969 2.413c-1.481-1.688-4.163-2.413-7.587-2.413h-9.944c-0.7 0-1.3 0.506-1.406 1.2l-4.144 26.262c-0.081 0.519 0.319 0.988 0.844 0.988h6.144l1.544-9.781-0.050 0.306c0.106-0.694 0.7-1.2 1.4-1.2h2.919c5.731 0 10.219-2.325 11.531-9.063 0.038-0.2 0.075-0.394 0.1-0.581 0.387-2.487 0-4.188-1.35-5.719z"></path>
</symbol>
</defs>
</svg>
